<svg width="16" height="12" viewBox="0 0 16 12" fill="none" xmlns="http://www.w3.org/2000/svg">
<path d="M8.92059 10.2662C8.51535 10.6415 8.49101 11.2742 8.86624 11.6794C9.24147 12.0847 9.87416 12.109 10.2794 11.7338L8.92059 10.2662ZM15 6L15.6794 6.73376C15.8838 6.5445 16 6.27856 16 6C16 5.72144 15.8838 5.4555 15.6794 5.26624L15 6ZM10.2794 0.26624C9.87416 -0.108987 9.24147 -0.0846525 8.86624 0.320592C8.49101 0.725837 8.51535 1.35853 8.92059 1.73376L10.2794 0.26624ZM1 5C0.447715 5 2.42698e-07 5.44772 2.18557e-07 6C1.94416e-07 6.55229 0.447715 7 1 7L1 5ZM10.2794 11.7338L15.6794 6.73376L14.3206 5.26624L8.92059 10.2662L10.2794 11.7338ZM15.6794 5.26624L10.2794 0.26624L8.92059 1.73376L14.3206 6.73376L15.6794 5.26624ZM15 6C15 5 15 5 14.9999 5C14.9998 5 14.9996 5 14.9995 5C14.999 5 14.9986 5 14.9978 5C14.9963 5 14.9942 5 14.9913 5C14.9855 5 14.9769 5 14.9655 5C14.9428 5 14.9089 5 14.8647 5C14.7764 5 14.6465 5 14.4805 5C14.1484 5 13.6719 5 13.0938 5C11.9375 5 10.375 5 8.75 5C5.5 5 2 5 1 5L1 7C2 7 5.5 7 8.75 7C10.375 7 11.9375 7 13.0938 7C13.6719 7 14.1484 7 14.4805 7C14.6465 7 14.7764 7 14.8647 7C14.909 7 14.9427 7 14.9655 7C14.9769 7 14.9855 7 14.9913 7C14.9942 7 14.9964 7 14.9978 7C14.9986 7 14.999 7 14.9995 7C14.9996 7 14.9998 7 14.9999 7C15 7 15 7 15 6Z" fill="black"/>
</svg>
