<svg width="22" height="20" viewBox="0 0 22 20" fill="none" xmlns="http://www.w3.org/2000/svg">
<path d="M10.7071 1.70711C11.0976 1.31658 11.0976 0.683417 10.7071 0.292893C10.3166 -0.0976316 9.68342 -0.0976316 9.29289 0.292893L10.7071 1.70711ZM1 10L0.292892 9.29289C-0.0976318 9.68342 -0.0976319 10.3166 0.292892 10.7071L1 10ZM9.29289 19.7071C9.68342 20.0976 10.3166 20.0976 10.7071 19.7071C11.0976 19.3166 11.0976 18.6834 10.7071 18.2929L9.29289 19.7071ZM21 11C21.5523 11 22 10.5523 22 10C22 9.44771 21.5523 9 21 9L21 11ZM9.29289 0.292893L0.292892 9.29289L1.70711 10.7071L10.7071 1.70711L9.29289 0.292893ZM0.292892 10.7071L9.29289 19.7071L10.7071 18.2929L1.70711 9.29289L0.292892 10.7071ZM1 11L21 11L21 9L1 9L1 11Z" fill="black"/>
</svg>
