<svg width="22" height="20" viewBox="0 0 22 20" fill="none" xmlns="http://www.w3.org/2000/svg">
<path d="M11.2929 1.70711C10.9024 1.31658 10.9024 0.683418 11.2929 0.292894C11.6834 -0.0976306 12.3166 -0.0976306 12.7071 0.292894L11.2929 1.70711ZM21 10L21.7071 9.29289C22.0976 9.68342 22.0976 10.3166 21.7071 10.7071L21 10ZM12.7071 19.7071C12.3166 20.0976 11.6834 20.0976 11.2929 19.7071C10.9024 19.3166 10.9024 18.6834 11.2929 18.2929L12.7071 19.7071ZM1 11C0.447715 11 -4.17544e-07 10.5523 -3.93403e-07 10C-3.69261e-07 9.44771 0.447715 9 1 9L1 11ZM12.7071 0.292894L21.7071 9.29289L20.2929 10.7071L11.2929 1.70711L12.7071 0.292894ZM21.7071 10.7071L12.7071 19.7071L11.2929 18.2929L20.2929 9.29289L21.7071 10.7071ZM21 11L1 11L1 9L21 9L21 11Z" fill="black"/>
</svg>
