<svg width="82" height="82" viewBox="0 0 82 82" fill="none" xmlns="http://www.w3.org/2000/svg">
<g opacity="0.7">
<path d="M12 12H10V14V68V70H12H18H24H26V68V14V12H24H23.9766H23.9531H23.9297H23.9062H23.8828H23.8594H23.8359H23.8125H23.7891H23.7656H23.7422H23.7188H23.6953H23.6719H23.6484H23.625H23.6016H23.5781H23.5547H23.5312H23.5078H23.4844H23.4609H23.4375H23.4141H23.3906H23.3672H23.3438H23.3203H23.2969H23.2734H23.25H23.2266H23.2031H23.1797H23.1562H23.1328H23.1094H23.0859H23.0625H23.0391H23.0156H22.9922H22.9688H22.9453H22.9219H22.8984H22.875H22.8516H22.8281H22.8047H22.7812H22.7578H22.7344H22.7109H22.6875H22.6641H22.6406H22.6172H22.5938H22.5703H22.5469H22.5234H22.5H22.4766H22.4531H22.4297H22.4062H22.3828H22.3594H22.3359H22.3125H22.2891H22.2656H22.2422H22.2188H22.1953H22.1719H22.1484H22.125H22.1016H22.0781H22.0547H22.0312H22.0078H21.9844H21.9609H21.9375H21.9141H21.8906H21.8672H21.8438H21.8203H21.7969H21.7734H21.75H21.7266H21.7031H21.6797H21.6562H21.6328H21.6094H21.5859H21.5625H21.5391H21.5156H21.4922H21.4688H21.4453H21.4219H21.3984H21.375H21.3516H21.3281H21.3047H21.2812H21.2578H21.2344H21.2109H21.1875H21.1641H21.1406H21.1172H21.0938H21.0703H21.0469H21.0234H21H20.9766H20.9531H20.9297H20.9062H20.8828H20.8594H20.8359H20.8125H20.7891H20.7656H20.7422H20.7188H20.6953H20.6719H20.6484H20.625H20.6016H20.5781H20.5547H20.5312H20.5078H20.4844H20.4609H20.4375H20.4141H20.3906H20.3672H20.3438H20.3203H20.2969H20.2734H20.25H20.2266H20.2031H20.1797H20.1562H20.1328H20.1094H20.0859H20.0625H20.0391H20.0156H19.9922H19.9688H19.9453H19.9219H19.8984H19.875H19.8516H19.8281H19.8047H19.7812H19.7578H19.7344H19.7109H19.6875H19.6641H19.6406H19.6172H19.5938H19.5703H19.5469H19.5234H19.5H19.4766H19.4531H19.4297H19.4062H19.3828H19.3594H19.3359H19.3125H19.2891H19.2656H19.2422H19.2188H19.1953H19.1719H19.1484H19.125H19.1016H19.0781H19.0547H19.0312H19.0078H18.9844H18.9609H18.9375H18.9141H18.8906H18.8672H18.8438H18.8203H18.7969H18.7734H18.75H18.7266H18.7031H18.6797H18.6562H18.6328H18.6094H18.5859H18.5625H18.5391H18.5156H18.4922H18.4688H18.4453H18.4219H18.3984H18.375H18.3516H18.3281H18.3047H18.2812H18.2578H18.2344H18.2109H18.1875H18.1641H18.1406H18.1172H18.0938H18.0703H18.0469H18.0234H18H17.9766H17.9531H17.9297H17.9062H17.8828H17.8594H17.8359H17.8125H17.7891H17.7656H17.7422H17.7188H17.6953H17.6719H17.6484H17.625H17.6016H17.5781H17.5547H17.5312H17.5078H17.4844H17.4609H17.4375H17.4141H17.3906H17.3672H17.3438H17.3203H17.2969H17.2734H17.25H17.2266H17.2031H17.1797H17.1562H17.1328H17.1094H17.0859H17.0625H17.0391H17.0156H16.9922H16.9688H16.9453H16.9219H16.8984H16.875H16.8516H16.8281H16.8047H16.7812H16.7578H16.7344H16.7109H16.6875H16.6641H16.6406H16.6172H16.5938H16.5703H16.5469H16.5234H16.5H16.4766H16.4531H16.4297H16.4062H16.3828H16.3594H16.3359H16.3125H16.2891H16.2656H16.2422H16.2188H16.1953H16.1719H16.1484H16.125H16.1016H16.0781H16.0547H16.0312H16.0078H15.9844H15.9609H15.9375H15.9141H15.8906H15.8672H15.8438H15.8203H15.7969H15.7734H15.75H15.7266H15.7031H15.6797H15.6562H15.6328H15.6094H15.5859H15.5625H15.5391H15.5156H15.4922H15.4688H15.4453H15.4219H15.3984H15.375H15.3516H15.3281H15.3047H15.2812H15.2578H15.2344H15.2109H15.1875H15.1641H15.1406H15.1172H15.0938H15.0703H15.0469H15.0234H15H14.9766H14.9531H14.9297H14.9062H14.8828H14.8594H14.8359H14.8125H14.7891H14.7656H14.7422H14.7188H14.6953H14.6719H14.6484H14.625H14.6016H14.5781H14.5547H14.5312H14.5078H14.4844H14.4609H14.4375H14.4141H14.3906H14.3672H14.3438H14.3203H14.2969H14.2734H14.25H14.2266H14.2031H14.1797H14.1562H14.1328H14.1094H14.0859H14.0625H14.0391H14.0156H13.9922H13.9688H13.9453H13.9219H13.8984H13.875H13.8516H13.8281H13.8047H13.7812H13.7578H13.7344H13.7109H13.6875H13.6641H13.6406H13.6172H13.5938H13.5703H13.5469H13.5234H13.5H13.4766H13.4531H13.4297H13.4062H13.3828H13.3594H13.3359H13.3125H13.2891H13.2656H13.2422H13.2188H13.1953H13.1719H13.1484H13.125H13.1016H13.0781H13.0547H13.0312H13.0078H12.9844H12.9609H12.9375H12.9141H12.8906H12.8672H12.8438H12.8203H12.7969H12.7734H12.75H12.7266H12.7031H12.6797H12.6562H12.6328H12.6094H12.5859H12.5625H12.5391H12.5156H12.4922H12.4688H12.4453H12.4219H12.3984H12.375H12.3516H12.3281H12.3047H12.2812H12.2578H12.2344H12.2109H12.1875H12.1641H12.1406H12.1172H12.0938H12.0703H12.0469H12.0234H12Z" stroke="black" stroke-width="4"/>
<path d="M28 17H26V19V68V70H28H34H40H42V68V19V17H40H39.9766H39.9531H39.9297H39.9062H39.8828H39.8594H39.8359H39.8125H39.7891H39.7656H39.7422H39.7188H39.6953H39.6719H39.6484H39.625H39.6016H39.5781H39.5547H39.5312H39.5078H39.4844H39.4609H39.4375H39.4141H39.3906H39.3672H39.3438H39.3203H39.2969H39.2734H39.25H39.2266H39.2031H39.1797H39.1562H39.1328H39.1094H39.0859H39.0625H39.0391H39.0156H38.9922H38.9688H38.9453H38.9219H38.8984H38.875H38.8516H38.8281H38.8047H38.7812H38.7578H38.7344H38.7109H38.6875H38.6641H38.6406H38.6172H38.5938H38.5703H38.5469H38.5234H38.5H38.4766H38.4531H38.4297H38.4062H38.3828H38.3594H38.3359H38.3125H38.2891H38.2656H38.2422H38.2188H38.1953H38.1719H38.1484H38.125H38.1016H38.0781H38.0547H38.0312H38.0078H37.9844H37.9609H37.9375H37.9141H37.8906H37.8672H37.8438H37.8203H37.7969H37.7734H37.75H37.7266H37.7031H37.6797H37.6562H37.6328H37.6094H37.5859H37.5625H37.5391H37.5156H37.4922H37.4688H37.4453H37.4219H37.3984H37.375H37.3516H37.3281H37.3047H37.2812H37.2578H37.2344H37.2109H37.1875H37.1641H37.1406H37.1172H37.0938H37.0703H37.0469H37.0234H37H36.9766H36.9531H36.9297H36.9062H36.8828H36.8594H36.8359H36.8125H36.7891H36.7656H36.7422H36.7188H36.6953H36.6719H36.6484H36.625H36.6016H36.5781H36.5547H36.5312H36.5078H36.4844H36.4609H36.4375H36.4141H36.3906H36.3672H36.3438H36.3203H36.2969H36.2734H36.25H36.2266H36.2031H36.1797H36.1562H36.1328H36.1094H36.0859H36.0625H36.0391H36.0156H35.9922H35.9688H35.9453H35.9219H35.8984H35.875H35.8516H35.8281H35.8047H35.7812H35.7578H35.7344H35.7109H35.6875H35.6641H35.6406H35.6172H35.5938H35.5703H35.5469H35.5234H35.5H35.4766H35.4531H35.4297H35.4062H35.3828H35.3594H35.3359H35.3125H35.2891H35.2656H35.2422H35.2188H35.1953H35.1719H35.1484H35.125H35.1016H35.0781H35.0547H35.0312H35.0078H34.9844H34.9609H34.9375H34.9141H34.8906H34.8672H34.8438H34.8203H34.7969H34.7734H34.75H34.7266H34.7031H34.6797H34.6562H34.6328H34.6094H34.5859H34.5625H34.5391H34.5156H34.4922H34.4688H34.4453H34.4219H34.3984H34.375H34.3516H34.3281H34.3047H34.2812H34.2578H34.2344H34.2109H34.1875H34.1641H34.1406H34.1172H34.0938H34.0703H34.0469H34.0234H34H33.9766H33.9531H33.9297H33.9062H33.8828H33.8594H33.8359H33.8125H33.7891H33.7656H33.7422H33.7188H33.6953H33.6719H33.6484H33.625H33.6016H33.5781H33.5547H33.5312H33.5078H33.4844H33.4609H33.4375H33.4141H33.3906H33.3672H33.3438H33.3203H33.2969H33.2734H33.25H33.2266H33.2031H33.1797H33.1562H33.1328H33.1094H33.0859H33.0625H33.0391H33.0156H32.9922H32.9688H32.9453H32.9219H32.8984H32.875H32.8516H32.8281H32.8047H32.7812H32.7578H32.7344H32.7109H32.6875H32.6641H32.6406H32.6172H32.5938H32.5703H32.5469H32.5234H32.5H32.4766H32.4531H32.4297H32.4062H32.3828H32.3594H32.3359H32.3125H32.2891H32.2656H32.2422H32.2188H32.1953H32.1719H32.1484H32.125H32.1016H32.0781H32.0547H32.0312H32.0078H31.9844H31.9609H31.9375H31.9141H31.8906H31.8672H31.8438H31.8203H31.7969H31.7734H31.75H31.7266H31.7031H31.6797H31.6562H31.6328H31.6094H31.5859H31.5625H31.5391H31.5156H31.4922H31.4688H31.4453H31.4219H31.3984H31.375H31.3516H31.3281H31.3047H31.2812H31.2578H31.2344H31.2109H31.1875H31.1641H31.1406H31.1172H31.0938H31.0703H31.0469H31.0234H31H30.9766H30.9531H30.9297H30.9062H30.8828H30.8594H30.8359H30.8125H30.7891H30.7656H30.7422H30.7188H30.6953H30.6719H30.6484H30.625H30.6016H30.5781H30.5547H30.5312H30.5078H30.4844H30.4609H30.4375H30.4141H30.3906H30.3672H30.3438H30.3203H30.2969H30.2734H30.25H30.2266H30.2031H30.1797H30.1562H30.1328H30.1094H30.0859H30.0625H30.0391H30.0156H29.9922H29.9688H29.9453H29.9219H29.8984H29.875H29.8516H29.8281H29.8047H29.7812H29.7578H29.7344H29.7109H29.6875H29.6641H29.6406H29.6172H29.5938H29.5703H29.5469H29.5234H29.5H29.4766H29.4531H29.4297H29.4062H29.3828H29.3594H29.3359H29.3125H29.2891H29.2656H29.2422H29.2188H29.1953H29.1719H29.1484H29.125H29.1016H29.0781H29.0547H29.0312H29.0078H28.9844H28.9609H28.9375H28.9141H28.8906H28.8672H28.8438H28.8203H28.7969H28.7734H28.75H28.7266H28.7031H28.6797H28.6562H28.6328H28.6094H28.5859H28.5625H28.5391H28.5156H28.4922H28.4688H28.4453H28.4219H28.3984H28.375H28.3516H28.3281H28.3047H28.2812H28.2578H28.2344H28.2109H28.1875H28.1641H28.1406H28.1172H28.0938H28.0703H28.0469H28.0234H28Z" stroke="black" stroke-width="4"/>
<path d="M44 12H42V14V68V70H44H50H56H58V68V14V12H56H55.9766H55.9531H55.9297H55.9062H55.8828H55.8594H55.8359H55.8125H55.7891H55.7656H55.7422H55.7188H55.6953H55.6719H55.6484H55.625H55.6016H55.5781H55.5547H55.5312H55.5078H55.4844H55.4609H55.4375H55.4141H55.3906H55.3672H55.3438H55.3203H55.2969H55.2734H55.25H55.2266H55.2031H55.1797H55.1562H55.1328H55.1094H55.0859H55.0625H55.0391H55.0156H54.9922H54.9688H54.9453H54.9219H54.8984H54.875H54.8516H54.8281H54.8047H54.7812H54.7578H54.7344H54.7109H54.6875H54.6641H54.6406H54.6172H54.5938H54.5703H54.5469H54.5234H54.5H54.4766H54.4531H54.4297H54.4062H54.3828H54.3594H54.3359H54.3125H54.2891H54.2656H54.2422H54.2188H54.1953H54.1719H54.1484H54.125H54.1016H54.0781H54.0547H54.0312H54.0078H53.9844H53.9609H53.9375H53.9141H53.8906H53.8672H53.8438H53.8203H53.7969H53.7734H53.75H53.7266H53.7031H53.6797H53.6562H53.6328H53.6094H53.5859H53.5625H53.5391H53.5156H53.4922H53.4688H53.4453H53.4219H53.3984H53.375H53.3516H53.3281H53.3047H53.2812H53.2578H53.2344H53.2109H53.1875H53.1641H53.1406H53.1172H53.0938H53.0703H53.0469H53.0234H53H52.9766H52.9531H52.9297H52.9062H52.8828H52.8594H52.8359H52.8125H52.7891H52.7656H52.7422H52.7188H52.6953H52.6719H52.6484H52.625H52.6016H52.5781H52.5547H52.5312H52.5078H52.4844H52.4609H52.4375H52.4141H52.3906H52.3672H52.3438H52.3203H52.2969H52.2734H52.25H52.2266H52.2031H52.1797H52.1562H52.1328H52.1094H52.0859H52.0625H52.0391H52.0156H51.9922H51.9688H51.9453H51.9219H51.8984H51.875H51.8516H51.8281H51.8047H51.7812H51.7578H51.7344H51.7109H51.6875H51.6641H51.6406H51.6172H51.5938H51.5703H51.5469H51.5234H51.5H51.4766H51.4531H51.4297H51.4062H51.3828H51.3594H51.3359H51.3125H51.2891H51.2656H51.2422H51.2188H51.1953H51.1719H51.1484H51.125H51.1016H51.0781H51.0547H51.0312H51.0078H50.9844H50.9609H50.9375H50.9141H50.8906H50.8672H50.8438H50.8203H50.7969H50.7734H50.75H50.7266H50.7031H50.6797H50.6562H50.6328H50.6094H50.5859H50.5625H50.5391H50.5156H50.4922H50.4688H50.4453H50.4219H50.3984H50.375H50.3516H50.3281H50.3047H50.2812H50.2578H50.2344H50.2109H50.1875H50.1641H50.1406H50.1172H50.0938H50.0703H50.0469H50.0234H50H49.9766H49.9531H49.9297H49.9062H49.8828H49.8594H49.8359H49.8125H49.7891H49.7656H49.7422H49.7188H49.6953H49.6719H49.6484H49.625H49.6016H49.5781H49.5547H49.5312H49.5078H49.4844H49.4609H49.4375H49.4141H49.3906H49.3672H49.3438H49.3203H49.2969H49.2734H49.25H49.2266H49.2031H49.1797H49.1562H49.1328H49.1094H49.0859H49.0625H49.0391H49.0156H48.9922H48.9688H48.9453H48.9219H48.8984H48.875H48.8516H48.8281H48.8047H48.7812H48.7578H48.7344H48.7109H48.6875H48.6641H48.6406H48.6172H48.5938H48.5703H48.5469H48.5234H48.5H48.4766H48.4531H48.4297H48.4062H48.3828H48.3594H48.3359H48.3125H48.2891H48.2656H48.2422H48.2188H48.1953H48.1719H48.1484H48.125H48.1016H48.0781H48.0547H48.0312H48.0078H47.9844H47.9609H47.9375H47.9141H47.8906H47.8672H47.8438H47.8203H47.7969H47.7734H47.75H47.7266H47.7031H47.6797H47.6562H47.6328H47.6094H47.5859H47.5625H47.5391H47.5156H47.4922H47.4688H47.4453H47.4219H47.3984H47.375H47.3516H47.3281H47.3047H47.2812H47.2578H47.2344H47.2109H47.1875H47.1641H47.1406H47.1172H47.0938H47.0703H47.0469H47.0234H47H46.9766H46.9531H46.9297H46.9062H46.8828H46.8594H46.8359H46.8125H46.7891H46.7656H46.7422H46.7188H46.6953H46.6719H46.6484H46.625H46.6016H46.5781H46.5547H46.5312H46.5078H46.4844H46.4609H46.4375H46.4141H46.3906H46.3672H46.3438H46.3203H46.2969H46.2734H46.25H46.2266H46.2031H46.1797H46.1562H46.1328H46.1094H46.0859H46.0625H46.0391H46.0156H45.9922H45.9688H45.9453H45.9219H45.8984H45.875H45.8516H45.8281H45.8047H45.7812H45.7578H45.7344H45.7109H45.6875H45.6641H45.6406H45.6172H45.5938H45.5703H45.5469H45.5234H45.5H45.4766H45.4531H45.4297H45.4062H45.3828H45.3594H45.3359H45.3125H45.2891H45.2656H45.2422H45.2188H45.1953H45.1719H45.1484H45.125H45.1016H45.0781H45.0547H45.0312H45.0078H44.9844H44.9609H44.9375H44.9141H44.8906H44.8672H44.8438H44.8203H44.7969H44.7734H44.75H44.7266H44.7031H44.6797H44.6562H44.6328H44.6094H44.5859H44.5625H44.5391H44.5156H44.4922H44.4688H44.4453H44.4219H44.3984H44.375H44.3516H44.3281H44.3047H44.2812H44.2578H44.2344H44.2109H44.1875H44.1641H44.1406H44.1172H44.0938H44.0703H44.0469H44.0234H44Z" stroke="black" stroke-width="4"/>
<path d="M60 12H58V14V68V70H60H66H72H74V68V14V12H72H71.9766H71.9531H71.9297H71.9062H71.8828H71.8594H71.8359H71.8125H71.7891H71.7656H71.7422H71.7188H71.6953H71.6719H71.6484H71.625H71.6016H71.5781H71.5547H71.5312H71.5078H71.4844H71.4609H71.4375H71.4141H71.3906H71.3672H71.3438H71.3203H71.2969H71.2734H71.25H71.2266H71.2031H71.1797H71.1562H71.1328H71.1094H71.0859H71.0625H71.0391H71.0156H70.9922H70.9688H70.9453H70.9219H70.8984H70.875H70.8516H70.8281H70.8047H70.7812H70.7578H70.7344H70.7109H70.6875H70.6641H70.6406H70.6172H70.5938H70.5703H70.5469H70.5234H70.5H70.4766H70.4531H70.4297H70.4062H70.3828H70.3594H70.3359H70.3125H70.2891H70.2656H70.2422H70.2188H70.1953H70.1719H70.1484H70.125H70.1016H70.0781H70.0547H70.0312H70.0078H69.9844H69.9609H69.9375H69.9141H69.8906H69.8672H69.8438H69.8203H69.7969H69.7734H69.75H69.7266H69.7031H69.6797H69.6562H69.6328H69.6094H69.5859H69.5625H69.5391H69.5156H69.4922H69.4688H69.4453H69.4219H69.3984H69.375H69.3516H69.3281H69.3047H69.2812H69.2578H69.2344H69.2109H69.1875H69.1641H69.1406H69.1172H69.0938H69.0703H69.0469H69.0234H69H68.9766H68.9531H68.9297H68.9062H68.8828H68.8594H68.8359H68.8125H68.7891H68.7656H68.7422H68.7188H68.6953H68.6719H68.6484H68.625H68.6016H68.5781H68.5547H68.5312H68.5078H68.4844H68.4609H68.4375H68.4141H68.3906H68.3672H68.3438H68.3203H68.2969H68.2734H68.25H68.2266H68.2031H68.1797H68.1562H68.1328H68.1094H68.0859H68.0625H68.0391H68.0156H67.9922H67.9688H67.9453H67.9219H67.8984H67.875H67.8516H67.8281H67.8047H67.7812H67.7578H67.7344H67.7109H67.6875H67.6641H67.6406H67.6172H67.5938H67.5703H67.5469H67.5234H67.5H67.4766H67.4531H67.4297H67.4062H67.3828H67.3594H67.3359H67.3125H67.2891H67.2656H67.2422H67.2188H67.1953H67.1719H67.1484H67.125H67.1016H67.0781H67.0547H67.0312H67.0078H66.9844H66.9609H66.9375H66.9141H66.8906H66.8672H66.8438H66.8203H66.7969H66.7734H66.75H66.7266H66.7031H66.6797H66.6562H66.6328H66.6094H66.5859H66.5625H66.5391H66.5156H66.4922H66.4688H66.4453H66.4219H66.3984H66.375H66.3516H66.3281H66.3047H66.2812H66.2578H66.2344H66.2109H66.1875H66.1641H66.1406H66.1172H66.0938H66.0703H66.0469H66.0234H66H65.9766H65.9531H65.9297H65.9062H65.8828H65.8594H65.8359H65.8125H65.7891H65.7656H65.7422H65.7188H65.6953H65.6719H65.6484H65.625H65.6016H65.5781H65.5547H65.5312H65.5078H65.4844H65.4609H65.4375H65.4141H65.3906H65.3672H65.3438H65.3203H65.2969H65.2734H65.25H65.2266H65.2031H65.1797H65.1562H65.1328H65.1094H65.0859H65.0625H65.0391H65.0156H64.9922H64.9688H64.9453H64.9219H64.8984H64.875H64.8516H64.8281H64.8047H64.7812H64.7578H64.7344H64.7109H64.6875H64.6641H64.6406H64.6172H64.5938H64.5703H64.5469H64.5234H64.5H64.4766H64.4531H64.4297H64.4062H64.3828H64.3594H64.3359H64.3125H64.2891H64.2656H64.2422H64.2188H64.1953H64.1719H64.1484H64.125H64.1016H64.0781H64.0547H64.0312H64.0078H63.9844H63.9609H63.9375H63.9141H63.8906H63.8672H63.8438H63.8203H63.7969H63.7734H63.75H63.7266H63.7031H63.6797H63.6562H63.6328H63.6094H63.5859H63.5625H63.5391H63.5156H63.4922H63.4688H63.4453H63.4219H63.3984H63.375H63.3516H63.3281H63.3047H63.2812H63.2578H63.2344H63.2109H63.1875H63.1641H63.1406H63.1172H63.0938H63.0703H63.0469H63.0234H63H62.9766H62.9531H62.9297H62.9062H62.8828H62.8594H62.8359H62.8125H62.7891H62.7656H62.7422H62.7188H62.6953H62.6719H62.6484H62.625H62.6016H62.5781H62.5547H62.5312H62.5078H62.4844H62.4609H62.4375H62.4141H62.3906H62.3672H62.3438H62.3203H62.2969H62.2734H62.25H62.2266H62.2031H62.1797H62.1562H62.1328H62.1094H62.0859H62.0625H62.0391H62.0156H61.9922H61.9688H61.9453H61.9219H61.8984H61.875H61.8516H61.8281H61.8047H61.7812H61.7578H61.7344H61.7109H61.6875H61.6641H61.6406H61.6172H61.5938H61.5703H61.5469H61.5234H61.5H61.4766H61.4531H61.4297H61.4062H61.3828H61.3594H61.3359H61.3125H61.2891H61.2656H61.2422H61.2188H61.1953H61.1719H61.1484H61.125H61.1016H61.0781H61.0547H61.0312H61.0078H60.9844H60.9609H60.9375H60.9141H60.8906H60.8672H60.8438H60.8203H60.7969H60.7734H60.75H60.7266H60.7031H60.6797H60.6562H60.6328H60.6094H60.5859H60.5625H60.5391H60.5156H60.4922H60.4688H60.4453H60.4219H60.3984H60.375H60.3516H60.3281H60.3047H60.2812H60.2578H60.2344H60.2109H60.1875H60.1641H60.1406H60.1172H60.0938H60.0703H60.0469H60.0234H60Z" stroke="black" stroke-width="4"/>
</g>
</svg>
