<svg width="85" height="95" viewBox="0 0 85 95" fill="none" xmlns="http://www.w3.org/2000/svg">
<g opacity="0.7">
<path d="M46 29H16V90H69V40.5" stroke="black" stroke-width="4"/>
<path d="M30 39V90" stroke="black" stroke-width="4"/>
<path d="M76 36.6842L77.5859 37.9028L77.6184 37.8605L77.6487 37.8164L76 36.6842ZM77.5 34.5L79.1487 35.6322L79.2744 35.4491L79.357 35.2428L77.5 34.5ZM63.1462 41C55.3163 41 49 34.7149 49 27H45C45 36.9582 53.1415 45 63.1462 45V41ZM63.1462 9C53.1415 9 45 17.0418 45 27H49C49 19.2851 55.3163 13 63.1462 13V9ZM74.4141 35.4656C71.8296 38.829 67.7469 41 63.1462 41V45C69.0338 45 74.2716 42.216 77.5859 37.9028L74.4141 35.4656ZM63.1462 13C67.5767 13 71.5262 15.013 74.1209 18.1657L77.2094 15.6238C73.8826 11.5815 68.8153 9 63.1462 9V13ZM77.6487 37.8164L79.1487 35.6322L75.8513 33.3678L74.3513 35.552L77.6487 37.8164ZM79.357 35.2428L80.357 32.7428L76.643 31.2572L75.643 33.7572L79.357 35.2428Z" fill="black"/>
<path d="M75.2444 4.60391L78.396 18.2446L64.7553 21.3961" stroke="black" stroke-width="4"/>
</g>
</svg>
