<svg width="21" height="17" viewBox="0 0 21 17" fill="none" xmlns="http://www.w3.org/2000/svg">
<path d="M1 12.5C1 10.567 2.567 9 4.5 9C6.433 9 8 10.567 8 12.5C8 14.433 6.433 16 4.5 16C2.567 16 1 14.433 1 12.5Z" stroke="#BDAFAD" stroke-width="2"/>
<path d="M12 12.5C12 10.567 13.567 9 15.5 9C17.433 9 19 10.567 19 12.5C19 14.433 17.433 16 15.5 16C13.567 16 12 14.433 12 12.5Z" stroke="#BDAFAD" stroke-width="2"/>
<path d="M8.55354 12.4464C9.3524 11.6475 10.6476 11.6475 11.4465 12.4464" stroke="#BDAFAD" stroke-width="2" stroke-linecap="round"/>
<path d="M1 12C1 10.4375 2.84615 3.25 2.84615 3.25C2.84615 3.25 4.07692 2.3125 5 2" stroke="#BDAFAD" stroke-width="2" stroke-linecap="round"/>
<path d="M19 12C19 10.4375 17.1538 3.25 17.1538 3.25C17.1538 3.25 15.9231 2.3125 15 2" stroke="#BDAFAD" stroke-width="2" stroke-linecap="round"/>
</svg>
