<svg width="371" height="52" viewBox="0 0 371 52" fill="none" xmlns="http://www.w3.org/2000/svg">
    <g clip-path="url(#clip0)">
        <path fill-rule="evenodd" clip-rule="evenodd"
              d="M365.23 16.3955H364.628H364.422H363.932C362.736 16.3955 361.767 17.3558 361.767 18.5404C361.767 18.729 361.767 18.8683 361.767 18.9693H360.036C360.036 18.9209 360.036 18.803 360.036 18.5404C360.036 17.5167 360.438 16.5861 361.094 15.8951C360.452 15.4266 360.036 14.6724 360.036 13.8217C360.036 12.4001 361.198 11.2477 362.633 11.2477C364.067 11.2477 366.096 11.2477 366.096 11.2477H366.962V15.5375V18.9693H365.23V16.3955ZM365.23 13.8217V12.9637C364.309 12.9637 362.943 12.9637 362.633 12.9637C362.155 12.9637 361.767 13.3477 361.767 13.8217C361.767 14.2955 362.155 14.6795 362.633 14.6795H364.48H365.173H365.23V13.8217ZM364.405 51.4388L363.191 48.6331H352.43L351.216 51.4388H344.621L353.776 30.6431L351.781 26.187H353.477H355.738H357.761H358.187H359.883L371 51.4388H364.405ZM357.81 36.2006L354.859 43.0216H360.762L357.81 36.2006ZM350.661 18.1113H347.365L346.993 18.9693H344.973L347.777 12.6104L347.166 11.2477H347.685H348.378H348.998H349.128H349.648L353.053 18.9693H351.033L350.661 18.1113ZM349.013 14.3097L348.109 16.3955H349.917L349.013 14.3097ZM325.825 41.5252H323.141H322.011V43.0216V45.8273V51.4388H316.358V37.4101V26.187H322.011V35.9137H322.657H323.33H324.931C328.833 35.9137 331.997 32.7733 331.997 28.8993C331.997 27.2038 331.997 26.4728 331.997 26.187H337.65C337.65 26.187 337.65 26.8425 337.65 28.8993C337.65 33.3855 335.292 37.3251 331.741 39.5647L340.099 51.4388H332.562L325.825 41.5252ZM335.754 18.9693L333.691 15.938H332.868H332.522V16.3955V17.2535V18.9693H330.791V14.6795V11.2477H332.522V14.222H332.72H332.926H333.417C334.612 14.222 335.581 13.2617 335.581 12.0771C335.581 11.5586 335.581 11.3352 335.581 11.2477H337.313C337.313 11.2477 337.313 11.4482 337.313 12.0771C337.313 13.4489 336.59 14.6531 335.503 15.3379L338.063 18.9693H335.754ZM319.001 17.425C319.797 17.425 320.499 17.0315 320.921 16.4301L322.343 17.4091C321.608 18.4557 320.386 19.141 319.001 19.141C316.754 19.141 314.932 17.3356 314.932 15.1086C314.932 12.8816 316.754 11.0762 319.001 11.0762C320.386 11.0762 321.608 11.7613 322.343 12.8079L320.921 13.7869C320.499 13.1857 319.797 12.792 319.001 12.792C317.71 12.792 316.664 13.8292 316.664 15.1086C316.664 16.3878 317.71 17.425 319.001 17.425ZM288.283 51.4388H284.892H284.892V37.4101V36.6383V35.9137L284.892 31.6175V30.3957L283.007 26.187H284.892H289.414H307.502V31.7985H290.544V35.9137H304.864L302.415 41.5252H290.544V43.0216V45.8273H307.502V51.4388H290.544H288.283ZM303.562 19.8273L303.906 18.9693H300.564L300.907 19.8273H298.948L297.906 17.2535H298.483H298.727C299.842 15.7577 300.503 13.9083 300.503 11.9056C300.503 11.6843 300.495 11.465 300.479 11.2477H300.676H301.657H302.638H304.889H305.698V16.3955V17.2535H305.986H306.568L305.524 19.8273H303.562ZM303.966 14.6795V12.9637H302.176C302.016 14.5149 301.522 15.9681 300.769 17.2535H303.966V14.6795ZM287.186 19.141C284.938 19.141 283.116 17.3356 283.116 15.1086C283.116 12.8816 284.938 11.0762 287.186 11.0762C289.433 11.0762 291.255 12.8816 291.255 15.1086C291.255 17.3356 289.433 19.141 287.186 19.141ZM287.186 12.792C285.894 12.792 284.848 13.8292 284.848 15.1086C284.848 16.3878 285.894 17.425 287.186 17.425C288.477 17.425 289.523 16.3878 289.523 15.1086C289.523 13.8292 288.477 12.792 287.186 12.792ZM267.369 43.0216V45.8273L267.369 51.4388H261.716V37.4101V31.7985H260.397H258.136H256.181H254.368H254.259L251.73 26.187H254.368H259.171H276.225V31.7985H267.369L267.369 43.0216ZM273.058 17.2535C272.158 17.2535 271.395 17.2535 270.882 17.2535V17.6538V18.9693H269.15V15.995V15.709V15.5375V12.4209L268.631 11.2477H270.568C271.02 11.2477 271.916 11.2477 273.058 11.2477C274.725 11.2477 276.076 12.5922 276.076 14.2506C276.076 15.909 274.725 17.2535 273.058 17.2535ZM272.959 12.9637C272.508 12.9637 271.532 12.9637 270.882 12.9637V13.8217V15.4803V15.5375C271.563 15.5375 272.526 15.5375 272.959 15.5375C273.667 15.5375 274.23 14.9913 274.23 14.2787C274.23 13.566 273.667 12.9637 272.959 12.9637ZM257.71 19.141C255.462 19.141 253.641 17.3356 253.641 15.1086C253.641 12.8816 255.462 11.0762 257.71 11.0762C259.957 11.0762 261.779 12.8816 261.779 15.1086C261.779 17.3356 259.957 19.141 257.71 19.141ZM257.71 12.792C256.419 12.792 255.372 13.8292 255.372 15.1086C255.372 16.3878 256.419 17.425 257.71 17.425C259.001 17.425 260.047 16.3878 260.047 15.1086C260.047 13.8292 259.001 12.792 257.71 12.792ZM235.431 52C228.095 52 222.148 46.0959 222.148 38.8129C222.148 31.5299 228.095 25.6259 235.431 25.6259C242.768 25.6259 248.715 31.5299 248.715 38.8129C248.715 46.0959 242.768 52 235.431 52ZM235.431 31.2374C231.217 31.2374 227.8 34.629 227.8 38.8129C227.8 42.9967 231.217 46.3885 235.431 46.3885C239.646 46.3885 243.062 42.9967 243.062 38.8129C243.062 34.629 239.646 31.2374 235.431 31.2374ZM242.675 12.9637V14.1647V14.7367V16.3955V17.2535V18.9693H240.944V14.6795V14.508V14.222V12.4059L240.425 11.2477H240.944H242.387H247.466L247.293 12.9637H242.675ZM222.677 16.3708H222.075H221.869H221.379C220.183 16.3708 219.214 17.3311 219.214 18.5157C219.214 18.7043 219.214 18.8434 219.214 18.9446H217.483C217.483 18.8962 217.483 18.7783 217.483 18.5157C217.483 17.4918 217.885 16.5614 218.541 15.8705C217.899 15.4019 217.483 14.6477 217.483 13.7968C217.483 12.3754 218.645 11.223 220.08 11.223C221.514 11.223 223.543 11.223 223.543 11.223H224.409V15.5128V18.9446H222.677V16.3708ZM222.677 13.7968V12.939C221.756 12.939 220.39 12.939 220.08 12.939C219.602 12.939 219.214 13.323 219.214 13.7968C219.214 14.2708 219.602 14.6548 220.08 14.6548H221.927H222.619H222.677V13.7968ZM209.147 35.3525L197.842 51.4388H192.189V26.187H197.842V42.2734L209.147 26.187H214.799V51.4388H209.147V35.3525ZM207.443 18.0866H204.147L203.775 18.9446H201.755L204.56 12.5857L203.948 11.223H204.468H205.16H205.78H205.911H206.43L209.836 18.9446H207.815L207.443 18.0866ZM205.795 14.285L204.891 16.3708H206.7L205.795 14.285ZM192.58 15.9131H189.117V16.3708V17.2286V18.9446H187.385V15.9131V14.6548V14.1973V11.223H189.117V14.1973H192.58V11.223H194.312V16.3708V17.2286V18.9446H192.58V15.9131ZM171.84 36.2006L165.245 51.4388H158.65L167.898 30.431L165.999 26.187H167.506H169.767H172.405H173.298H173.912L185.029 51.4388H178.434L171.84 36.2006ZM177.342 18.9446C175.676 18.9446 174.531 18.9446 174.531 18.9446H173.434V14.6548V14.4833V14.1973V11.223H175.166V12.5385V12.9388C175.679 12.9388 176.443 12.9388 177.342 12.9388C179.009 12.9388 180.36 14.2833 180.36 15.9417C180.36 17.6001 179.009 18.9446 177.342 18.9446ZM177.243 14.6548C176.81 14.6548 175.847 14.6548 175.166 14.6548V14.7121V16.3708V17.2286C175.816 17.2286 176.793 17.2286 177.243 17.2286C177.951 17.2286 178.514 16.6263 178.514 15.9137C178.514 15.201 177.951 14.6548 177.243 14.6548ZM161.934 14.285L159.914 18.9446H157.894L160.698 12.5857L160.087 11.223H160.606H161.299H161.919H162.049H162.569L165.974 18.9446H163.954L161.934 14.285ZM144.142 34.6043C148.824 34.6043 152.621 38.3728 152.621 43.0216C152.621 47.6703 148.824 51.4388 144.142 51.4388C139.459 51.4388 132.836 51.4388 132.836 51.4388H130.01V37.4101V36.8489V35.9137V30.3957L128.126 26.187H130.01H134.532H151.302L150.736 31.7985H135.663V34.6043C138.015 34.6043 141.408 34.6043 144.142 34.6043ZM135.663 43.0216V45.8273C138.669 45.8273 143.128 45.8273 144.142 45.8273C145.703 45.8273 146.968 44.5711 146.968 43.0216C146.968 41.472 145.703 40.2158 144.142 40.2158C143.128 40.2158 138.669 40.2158 135.663 40.2158V43.0216ZM148.159 18.0866H144.862L144.49 18.9446H142.47L145.275 12.5857L144.663 11.223H145.183H145.876H146.495H146.626H147.146L150.551 18.9446H148.531L148.159 18.0866ZM146.511 14.285L145.606 16.3708H147.415L146.511 14.285ZM132.671 17.2286C131.772 17.2286 131.008 17.2286 130.495 17.2286V17.6291V18.9446H128.763V15.9703V15.6843V15.5128V12.3962L128.244 11.223H130.181C130.633 11.223 131.53 11.223 132.671 11.223C134.338 11.223 135.689 12.5673 135.689 14.2259C135.689 15.8843 134.338 17.2286 132.671 17.2286ZM132.573 12.939C132.122 12.939 131.145 12.939 130.495 12.939V13.7968V15.4556V15.5128C131.176 15.5128 132.139 15.5128 132.573 15.5128C133.28 15.5128 133.843 14.9666 133.843 14.254C133.843 13.5411 133.28 12.939 132.573 12.939ZM117.234 16.3708V17.2286V18.9446H115.502V14.6548V12.9388H115.098H114.406H113.807H113.251H113.218L112.443 11.223H114.723H119.946V12.9388H117.234V16.3708ZM102.599 15.9131H99.1356V16.3708V17.2286V18.9446H97.404V14.6548V14.3497V14.1973V11.223H99.1356V14.1973H102.599V11.223H104.33V16.3708V17.2286V18.9446H102.599V15.9131ZM102.124 42.2734L113.429 26.187H119.082V51.4388H113.429V35.3525L102.124 51.4388H96.4713V26.187H102.124V42.2734ZM82.8414 18.9446H81.8026V14.6548V14.4186V14.1973V12.8836V12.5099L81.2253 11.223H81.8026H83.1877H88.7288V12.9388H83.534V14.1973H87.9206L87.1703 15.9131H83.534V16.3708V17.2286H88.7288V18.9446H83.534H82.8414ZM69.6497 19.8026L69.9932 18.9446H66.2639H65.7569H64.8591V14.6548V11.223H66.5907V16.3708V17.2286H67.6296H70.0537V14.6548L70.0538 11.223H71.7852V16.3708V17.2286H72.6561L71.6121 19.8026H69.6497ZM69.7156 26.187H86.2966L85.7314 31.7985H70.6577V34.6043C73.01 34.6043 76.4029 34.6043 79.1367 34.6043C83.8193 34.6043 87.6156 38.3728 87.6156 43.0216C87.6156 47.6703 83.8193 51.4388 79.1367 51.4388C74.4538 51.4388 67.8314 51.4388 67.8314 51.4388H65.0051V37.4101V36.8489V35.9137V29.9748L63.3093 26.187H65.0051H69.7156ZM70.6577 43.0216V45.8273C73.6638 45.8273 78.1233 45.8273 79.1367 45.8273C80.6975 45.8273 81.9628 44.5711 81.9628 43.0216C81.9628 41.472 80.6975 40.2158 79.1367 40.2158C78.1233 40.2158 73.6638 40.2158 70.6577 40.2158V43.0216Z"
              fill="black"/>
        <path fill-rule="evenodd" clip-rule="evenodd"
              d="M8.47888 40.0288V0.187073H33.9157V40.0288H8.47888ZM28.263 5.79858H14.1315V34.4173H28.263V5.79858Z"
              fill="#EAAF75"/>
        <path fill-rule="evenodd" clip-rule="evenodd"
              d="M0 51.2518V0L42.3946 18.518V51.2518H0ZM36.742 22.259L5.65262 8.79137V45.6403H36.742V22.259Z"
              fill="black"/>
    </g>
    <defs>
        <clipPath id="clip0">
            <rect width="371" height="52" fill="white"/>
        </clipPath>
    </defs>
</svg>
