<svg width="91" height="31" viewBox="0 0 91 31" fill="none" xmlns="http://www.w3.org/2000/svg">
    <path opacity="0.5" fill-rule="evenodd" clip-rule="evenodd"
          d="M85.5681 25.12C86.4995 25.12 87.7669 25.12 89.0333 25.12L91 30.849C88.0053 30.849 90.1185 30.849 85.5684 30.849C80.4176 30.849 76.242 26.8076 76.242 21.8221C76.242 16.837 76.242 9.06966 76.242 9.06966L82.1552 5.78712C82.1552 5.78712 82.1719 10.5661 82.186 14.9427H85.5392L87.6287 21.0292L82.204 21.0565C82.2048 21.4202 82.2051 21.697 82.2051 21.8647C82.2051 23.6625 83.7109 25.12 85.5681 25.12ZM67.4097 30.93C63.4325 31.1852 57.4832 30.6606 57.4832 30.6606L58.3589 24.9512C58.3589 24.9512 66.3356 25.286 67.0665 25.2391C67.5765 25.2064 68.3891 25.1377 68.3565 24.601C68.3297 24.1579 68.0767 24.1154 66.5327 23.6827C64.078 22.9718 63.5871 23.2371 60.9982 22.2721C58.5689 21.3662 57.3323 19.3868 57.1846 16.9515C56.9509 13.1018 58.7379 10.4734 64.0011 10.1361C67.9786 9.88088 73.3948 10.3973 73.3948 10.3973L72.282 16.1035C72.282 16.1035 65.1947 15.7697 64.4636 15.8166C63.7327 15.8635 63.0378 15.9219 63.0713 16.47C63.1177 17.2348 64.14 17.4639 64.9574 17.6485C67.5336 18.4003 67.9014 18.241 69.7735 18.845C72.7432 19.8029 74.0541 21.2741 74.2387 24.3202C74.4723 28.1699 72.47 30.6058 67.4097 30.93ZM45.7074 30.849C40.5566 30.849 36.3813 26.8076 36.3813 21.8221C36.3813 16.837 36.3813 13.0625 36.3813 13.0625L42.2942 9.77999C42.2942 9.77999 42.3444 20.0672 42.3444 21.8647C42.3444 23.6625 43.8499 25.12 45.7074 25.12C47.5646 25.12 49.0704 23.6625 49.0704 21.8647C49.0704 20.0672 49.1208 13.0625 49.1208 13.0625L55.0338 9.77999C55.0338 9.77999 55.0338 16.837 55.0338 21.8221C55.0338 26.8076 50.8582 30.849 45.7074 30.849ZM25.6199 30.816L23.6643 25.12C24.0921 25.12 24.4997 25.12 24.85 25.12C26.7075 25.12 28.213 23.6625 28.213 21.8647C28.213 20.0672 28.2634 13.0625 28.2634 13.0625L34.1767 9.77999C34.1767 9.77999 34.1767 16.837 34.1767 21.8221C34.1767 26.5564 30.4102 30.4367 25.6199 30.816ZM8.61537 21.8221C8.61537 16.837 8.61537 9.06966 8.61537 9.06966L14.5286 5.78712C14.5286 5.78712 14.5453 10.5661 14.5594 14.9427H17.9126L20.0021 21.0292L14.5771 21.0565C14.5779 21.4202 14.5784 21.697 14.5784 21.8647C14.5784 23.6625 16.0843 25.12 17.9415 25.12C18.8729 25.12 20.1403 25.12 21.4066 25.12L23.3734 30.849C20.3787 30.849 22.4918 30.849 17.9417 30.849C12.791 30.849 8.61537 26.8076 8.61537 21.8221ZM0 13.1296L5.8981 9.84734V30.7557H0V13.1296ZM0 6.56481L5.8981 0V6.68451L0 10.6234V6.56481Z"
          fill="#BDAFAD"/>
</svg>
