<svg width="125" height="39" viewBox="0 0 125 39" fill="none" xmlns="http://www.w3.org/2000/svg">
<path fill-rule="evenodd" clip-rule="evenodd" d="M106.004 13.968V17.8221C108.519 17.8221 112.967 17.8221 115.89 17.8221C120.897 17.8221 124.956 21.8942 124.956 26.9175C124.956 31.9407 120.897 36.0129 115.89 36.0129C110.883 36.0129 103.802 36.0129 103.802 36.0129H100.78V20.8538V20.2474V19.2368V12.8633L98.9289 8.72667H100.78H105.615H123.546L122.941 13.968H106.004ZM106.004 26.9175V30.7714C109.218 30.7714 114.522 30.7671 115.897 30.7671C118.016 30.7671 119.734 29.0437 119.734 26.9177C119.734 24.7918 118.016 23.0683 115.897 23.0683C114.522 23.0683 109.218 23.0634 106.004 23.0634V26.9175ZM78.0449 13.9711V19.0371V21.058V26.9185V29.9499V36.0125H72.8431V20.8559V20.2497V19.2392V12.4117L71.2006 8.73061H72.8431H77.8609H95.523L95.0848 13.9711H78.0449ZM57.9293 38.9564L59.042 35.9252H45.3361H43.5732H40.4512V20.7685V8.64316H45.6529V26.8311V30.6846H50.0851H59.3343V20.7685V8.64316H64.536V26.8311V30.6846H67.4004L63.9339 38.9564H57.9293Z" fill="black"/>
<path fill-rule="evenodd" clip-rule="evenodd" d="M6.80664 28.101V0.131317H24.4768V28.101H6.80664ZM19.6339 4.9899H11.6496V23.2424H19.6339V4.9899Z" fill="#EAAF75"/>
<path fill-rule="evenodd" clip-rule="evenodd" d="M0 35.9798V0L31.2827 13.6566V35.9798H0ZM26.4398 17.0707L4.84293 7.61616V31.1212H26.4398V17.0707Z" fill="black"/>
</svg>
