<svg width="20" height="25" viewBox="0 0 20 25" fill="none" xmlns="http://www.w3.org/2000/svg">
<mask id="path-1-outside-1" maskUnits="userSpaceOnUse" x="0" y="0" width="20" height="25" fill="black">
<rect fill="white" width="20" height="25"/>
<path fill-rule="evenodd" clip-rule="evenodd" d="M10 22C10 22 18 16.1667 18 10.3333C18 5.73096 14.4183 2 10 2C5.58172 2 2 5.73096 2 10.3333C2 16.1667 10 22 10 22ZM10 14.4998C12.2091 14.4998 14 12.6344 14 10.3332C14 8.03198 12.2091 6.1665 10 6.1665C7.79086 6.1665 6 8.03198 6 10.3332C6 12.6344 7.79086 14.4998 10 14.4998Z"/>
</mask>
<path d="M10 22L8.82166 23.616L10 24.4752L11.1783 23.616L10 22ZM16 10.3333C16 12.4392 14.4827 14.8622 12.5239 17.0046C11.5951 18.0205 10.6598 18.8737 9.95409 19.474C9.60273 19.7729 9.31202 20.006 9.11246 20.1619C9.01277 20.2398 8.93611 20.2982 8.8863 20.3357C8.8614 20.3545 8.84324 20.368 8.8323 20.3761C8.82683 20.3802 8.82317 20.3829 8.82137 20.3842C8.82048 20.3848 8.82005 20.3852 8.82009 20.3851C8.82011 20.3851 8.82025 20.385 8.82051 20.3848C8.82064 20.3847 8.82093 20.3845 8.82099 20.3845C8.82131 20.3842 8.82166 20.384 10 22C11.1783 23.616 11.1788 23.6157 11.1792 23.6154C11.1794 23.6153 11.1798 23.6149 11.1802 23.6146C11.181 23.6141 11.1818 23.6135 11.1828 23.6127C11.1848 23.6113 11.1873 23.6095 11.1902 23.6073C11.1961 23.603 11.2039 23.5972 11.2136 23.5901C11.2329 23.5757 11.2597 23.5558 11.2934 23.5304C11.3608 23.4796 11.456 23.407 11.575 23.314C11.813 23.1281 12.1473 22.8599 12.5459 22.5208C13.3402 21.845 14.4049 20.8753 15.4761 19.7037C17.5173 17.4711 20 14.0608 20 10.3333H16ZM10 4C13.2375 4 16 6.7578 16 10.3333H20C20 4.70412 15.599 0 10 0V4ZM4 10.3333C4 6.7578 6.76245 4 10 4V0C4.40099 0 0 4.70412 0 10.3333H4ZM10 22C11.1783 20.384 11.1787 20.3842 11.179 20.3845C11.1791 20.3845 11.1794 20.3847 11.1795 20.3848C11.1797 20.385 11.1799 20.3851 11.1799 20.3851C11.18 20.3852 11.1795 20.3848 11.1786 20.3842C11.1768 20.3829 11.1732 20.3802 11.1677 20.3761C11.1568 20.368 11.1386 20.3545 11.1137 20.3357C11.0639 20.2982 10.9872 20.2398 10.8875 20.1619C10.688 20.006 10.3973 19.7729 10.0459 19.474C9.34024 18.8737 8.40486 18.0205 7.47606 17.0046C5.51728 14.8622 4 12.4392 4 10.3333H0C0 14.0608 2.48272 17.4711 4.52394 19.7037C5.59514 20.8753 6.65976 21.845 7.45409 22.5208C7.85273 22.8599 8.18702 23.1281 8.42496 23.314C8.54402 23.407 8.63923 23.4796 8.70661 23.5304C8.74031 23.5558 8.76707 23.5757 8.7864 23.5901C8.79607 23.5972 8.80388 23.603 8.80978 23.6073C8.81272 23.6095 8.81519 23.6113 8.81718 23.6127C8.81817 23.6135 8.81904 23.6141 8.81978 23.6146C8.82016 23.6149 8.82063 23.6153 8.82081 23.6154C8.82125 23.6157 8.82166 23.616 10 22ZM12 10.3332C12 11.6075 11.0284 12.4998 10 12.4998V16.4998C13.3899 16.4998 16 13.6612 16 10.3332H12ZM10 8.1665C11.0284 8.1665 12 9.05882 12 10.3332H16C16 7.00515 13.3899 4.1665 10 4.1665V8.1665ZM8 10.3332C8 9.05882 8.97159 8.1665 10 8.1665V4.1665C6.61013 4.1665 4 7.00515 4 10.3332H8ZM10 12.4998C8.97159 12.4998 8 11.6075 8 10.3332H4C4 13.6612 6.61013 16.4998 10 16.4998V12.4998Z" fill="#132031" mask="url(#path-1-outside-1)"/>
</svg>
