<svg width="30" height="30" viewBox="0 0 30 30" fill="none" xmlns="http://www.w3.org/2000/svg">
<path d="M4 4H3V5V25V26H4H6H8H9V25V5V4H8H7.99219H7.98438H7.97656H7.96875H7.96094H7.95312H7.94531H7.9375H7.92969H7.92188H7.91406H7.90625H7.89844H7.89062H7.88281H7.875H7.86719H7.85938H7.85156H7.84375H7.83594H7.82812H7.82031H7.8125H7.80469H7.79688H7.78906H7.78125H7.77344H7.76562H7.75781H7.75H7.74219H7.73438H7.72656H7.71875H7.71094H7.70312H7.69531H7.6875H7.67969H7.67188H7.66406H7.65625H7.64844H7.64062H7.63281H7.625H7.61719H7.60938H7.60156H7.59375H7.58594H7.57812H7.57031H7.5625H7.55469H7.54688H7.53906H7.53125H7.52344H7.51562H7.50781H7.5H7.49219H7.48438H7.47656H7.46875H7.46094H7.45312H7.44531H7.4375H7.42969H7.42188H7.41406H7.40625H7.39844H7.39062H7.38281H7.375H7.36719H7.35938H7.35156H7.34375H7.33594H7.32812H7.32031H7.3125H7.30469H7.29688H7.28906H7.28125H7.27344H7.26562H7.25781H7.25H7.24219H7.23438H7.22656H7.21875H7.21094H7.20312H7.19531H7.1875H7.17969H7.17188H7.16406H7.15625H7.14844H7.14062H7.13281H7.125H7.11719H7.10938H7.10156H7.09375H7.08594H7.07812H7.07031H7.0625H7.05469H7.04688H7.03906H7.03125H7.02344H7.01562H7.00781H7H6.99219H6.98438H6.97656H6.96875H6.96094H6.95312H6.94531H6.9375H6.92969H6.92188H6.91406H6.90625H6.89844H6.89062H6.88281H6.875H6.86719H6.85938H6.85156H6.84375H6.83594H6.82812H6.82031H6.8125H6.80469H6.79688H6.78906H6.78125H6.77344H6.76562H6.75781H6.75H6.74219H6.73438H6.72656H6.71875H6.71094H6.70312H6.69531H6.6875H6.67969H6.67188H6.66406H6.65625H6.64844H6.64062H6.63281H6.625H6.61719H6.60938H6.60156H6.59375H6.58594H6.57812H6.57031H6.5625H6.55469H6.54688H6.53906H6.53125H6.52344H6.51562H6.50781H6.5H6.49219H6.48438H6.47656H6.46875H6.46094H6.45312H6.44531H6.4375H6.42969H6.42188H6.41406H6.40625H6.39844H6.39062H6.38281H6.375H6.36719H6.35938H6.35156H6.34375H6.33594H6.32812H6.32031H6.3125H6.30469H6.29688H6.28906H6.28125H6.27344H6.26562H6.25781H6.25H6.24219H6.23438H6.22656H6.21875H6.21094H6.20312H6.19531H6.1875H6.17969H6.17188H6.16406H6.15625H6.14844H6.14062H6.13281H6.125H6.11719H6.10938H6.10156H6.09375H6.08594H6.07812H6.07031H6.0625H6.05469H6.04688H6.03906H6.03125H6.02344H6.01562H6.00781H6H5.99219H5.98438H5.97656H5.96875H5.96094H5.95312H5.94531H5.9375H5.92969H5.92188H5.91406H5.90625H5.89844H5.89062H5.88281H5.875H5.86719H5.85938H5.85156H5.84375H5.83594H5.82812H5.82031H5.8125H5.80469H5.79688H5.78906H5.78125H5.77344H5.76562H5.75781H5.75H5.74219H5.73438H5.72656H5.71875H5.71094H5.70312H5.69531H5.6875H5.67969H5.67188H5.66406H5.65625H5.64844H5.64062H5.63281H5.625H5.61719H5.60938H5.60156H5.59375H5.58594H5.57812H5.57031H5.5625H5.55469H5.54688H5.53906H5.53125H5.52344H5.51562H5.50781H5.5H5.49219H5.48438H5.47656H5.46875H5.46094H5.45312H5.44531H5.4375H5.42969H5.42188H5.41406H5.40625H5.39844H5.39062H5.38281H5.375H5.36719H5.35938H5.35156H5.34375H5.33594H5.32812H5.32031H5.3125H5.30469H5.29688H5.28906H5.28125H5.27344H5.26562H5.25781H5.25H5.24219H5.23438H5.22656H5.21875H5.21094H5.20312H5.19531H5.1875H5.17969H5.17188H5.16406H5.15625H5.14844H5.14062H5.13281H5.125H5.11719H5.10938H5.10156H5.09375H5.08594H5.07812H5.07031H5.0625H5.05469H5.04688H5.03906H5.03125H5.02344H5.01562H5.00781H5H4.99219H4.98438H4.97656H4.96875H4.96094H4.95312H4.94531H4.9375H4.92969H4.92188H4.91406H4.90625H4.89844H4.89062H4.88281H4.875H4.86719H4.85938H4.85156H4.84375H4.83594H4.82812H4.82031H4.8125H4.80469H4.79688H4.78906H4.78125H4.77344H4.76562H4.75781H4.75H4.74219H4.73438H4.72656H4.71875H4.71094H4.70312H4.69531H4.6875H4.67969H4.67188H4.66406H4.65625H4.64844H4.64062H4.63281H4.625H4.61719H4.60938H4.60156H4.59375H4.58594H4.57812H4.57031H4.5625H4.55469H4.54688H4.53906H4.53125H4.52344H4.51562H4.50781H4.5H4.49219H4.48438H4.47656H4.46875H4.46094H4.45312H4.44531H4.4375H4.42969H4.42188H4.41406H4.40625H4.39844H4.39062H4.38281H4.375H4.36719H4.35938H4.35156H4.34375H4.33594H4.32812H4.32031H4.3125H4.30469H4.29688H4.28906H4.28125H4.27344H4.26562H4.25781H4.25H4.24219H4.23438H4.22656H4.21875H4.21094H4.20312H4.19531H4.1875H4.17969H4.17188H4.16406H4.15625H4.14844H4.14062H4.13281H4.125H4.11719H4.10938H4.10156H4.09375H4.08594H4.07812H4.07031H4.0625H4.05469H4.04688H4.03906H4.03125H4.02344H4.01562H4.00781H4Z" stroke="black" stroke-width="2"/>
<path d="M10 6H9V7V25V26H10H12H14H15V25V7V6H14H13.9922H13.9844H13.9766H13.9688H13.9609H13.9531H13.9453H13.9375H13.9297H13.9219H13.9141H13.9062H13.8984H13.8906H13.8828H13.875H13.8672H13.8594H13.8516H13.8438H13.8359H13.8281H13.8203H13.8125H13.8047H13.7969H13.7891H13.7812H13.7734H13.7656H13.7578H13.75H13.7422H13.7344H13.7266H13.7188H13.7109H13.7031H13.6953H13.6875H13.6797H13.6719H13.6641H13.6562H13.6484H13.6406H13.6328H13.625H13.6172H13.6094H13.6016H13.5938H13.5859H13.5781H13.5703H13.5625H13.5547H13.5469H13.5391H13.5312H13.5234H13.5156H13.5078H13.5H13.4922H13.4844H13.4766H13.4688H13.4609H13.4531H13.4453H13.4375H13.4297H13.4219H13.4141H13.4062H13.3984H13.3906H13.3828H13.375H13.3672H13.3594H13.3516H13.3438H13.3359H13.3281H13.3203H13.3125H13.3047H13.2969H13.2891H13.2812H13.2734H13.2656H13.2578H13.25H13.2422H13.2344H13.2266H13.2188H13.2109H13.2031H13.1953H13.1875H13.1797H13.1719H13.1641H13.1562H13.1484H13.1406H13.1328H13.125H13.1172H13.1094H13.1016H13.0938H13.0859H13.0781H13.0703H13.0625H13.0547H13.0469H13.0391H13.0312H13.0234H13.0156H13.0078H13H12.9922H12.9844H12.9766H12.9688H12.9609H12.9531H12.9453H12.9375H12.9297H12.9219H12.9141H12.9062H12.8984H12.8906H12.8828H12.875H12.8672H12.8594H12.8516H12.8438H12.8359H12.8281H12.8203H12.8125H12.8047H12.7969H12.7891H12.7812H12.7734H12.7656H12.7578H12.75H12.7422H12.7344H12.7266H12.7188H12.7109H12.7031H12.6953H12.6875H12.6797H12.6719H12.6641H12.6562H12.6484H12.6406H12.6328H12.625H12.6172H12.6094H12.6016H12.5938H12.5859H12.5781H12.5703H12.5625H12.5547H12.5469H12.5391H12.5312H12.5234H12.5156H12.5078H12.5H12.4922H12.4844H12.4766H12.4688H12.4609H12.4531H12.4453H12.4375H12.4297H12.4219H12.4141H12.4062H12.3984H12.3906H12.3828H12.375H12.3672H12.3594H12.3516H12.3438H12.3359H12.3281H12.3203H12.3125H12.3047H12.2969H12.2891H12.2812H12.2734H12.2656H12.2578H12.25H12.2422H12.2344H12.2266H12.2188H12.2109H12.2031H12.1953H12.1875H12.1797H12.1719H12.1641H12.1562H12.1484H12.1406H12.1328H12.125H12.1172H12.1094H12.1016H12.0938H12.0859H12.0781H12.0703H12.0625H12.0547H12.0469H12.0391H12.0312H12.0234H12.0156H12.0078H12H11.9922H11.9844H11.9766H11.9688H11.9609H11.9531H11.9453H11.9375H11.9297H11.9219H11.9141H11.9062H11.8984H11.8906H11.8828H11.875H11.8672H11.8594H11.8516H11.8438H11.8359H11.8281H11.8203H11.8125H11.8047H11.7969H11.7891H11.7812H11.7734H11.7656H11.7578H11.75H11.7422H11.7344H11.7266H11.7188H11.7109H11.7031H11.6953H11.6875H11.6797H11.6719H11.6641H11.6562H11.6484H11.6406H11.6328H11.625H11.6172H11.6094H11.6016H11.5938H11.5859H11.5781H11.5703H11.5625H11.5547H11.5469H11.5391H11.5312H11.5234H11.5156H11.5078H11.5H11.4922H11.4844H11.4766H11.4688H11.4609H11.4531H11.4453H11.4375H11.4297H11.4219H11.4141H11.4062H11.3984H11.3906H11.3828H11.375H11.3672H11.3594H11.3516H11.3438H11.3359H11.3281H11.3203H11.3125H11.3047H11.2969H11.2891H11.2812H11.2734H11.2656H11.2578H11.25H11.2422H11.2344H11.2266H11.2188H11.2109H11.2031H11.1953H11.1875H11.1797H11.1719H11.1641H11.1562H11.1484H11.1406H11.1328H11.125H11.1172H11.1094H11.1016H11.0938H11.0859H11.0781H11.0703H11.0625H11.0547H11.0469H11.0391H11.0312H11.0234H11.0156H11.0078H11H10.9922H10.9844H10.9766H10.9688H10.9609H10.9531H10.9453H10.9375H10.9297H10.9219H10.9141H10.9062H10.8984H10.8906H10.8828H10.875H10.8672H10.8594H10.8516H10.8438H10.8359H10.8281H10.8203H10.8125H10.8047H10.7969H10.7891H10.7812H10.7734H10.7656H10.7578H10.75H10.7422H10.7344H10.7266H10.7188H10.7109H10.7031H10.6953H10.6875H10.6797H10.6719H10.6641H10.6562H10.6484H10.6406H10.6328H10.625H10.6172H10.6094H10.6016H10.5938H10.5859H10.5781H10.5703H10.5625H10.5547H10.5469H10.5391H10.5312H10.5234H10.5156H10.5078H10.5H10.4922H10.4844H10.4766H10.4688H10.4609H10.4531H10.4453H10.4375H10.4297H10.4219H10.4141H10.4062H10.3984H10.3906H10.3828H10.375H10.3672H10.3594H10.3516H10.3438H10.3359H10.3281H10.3203H10.3125H10.3047H10.2969H10.2891H10.2812H10.2734H10.2656H10.2578H10.25H10.2422H10.2344H10.2266H10.2188H10.2109H10.2031H10.1953H10.1875H10.1797H10.1719H10.1641H10.1562H10.1484H10.1406H10.1328H10.125H10.1172H10.1094H10.1016H10.0938H10.0859H10.0781H10.0703H10.0625H10.0547H10.0469H10.0391H10.0312H10.0234H10.0156H10.0078H10Z" stroke="black" stroke-width="2"/>
<path d="M16 4H15V5V25V26H16H18H20H21V25V5V4H20H19.9922H19.9844H19.9766H19.9688H19.9609H19.9531H19.9453H19.9375H19.9297H19.9219H19.9141H19.9062H19.8984H19.8906H19.8828H19.875H19.8672H19.8594H19.8516H19.8438H19.8359H19.8281H19.8203H19.8125H19.8047H19.7969H19.7891H19.7812H19.7734H19.7656H19.7578H19.75H19.7422H19.7344H19.7266H19.7188H19.7109H19.7031H19.6953H19.6875H19.6797H19.6719H19.6641H19.6562H19.6484H19.6406H19.6328H19.625H19.6172H19.6094H19.6016H19.5938H19.5859H19.5781H19.5703H19.5625H19.5547H19.5469H19.5391H19.5312H19.5234H19.5156H19.5078H19.5H19.4922H19.4844H19.4766H19.4688H19.4609H19.4531H19.4453H19.4375H19.4297H19.4219H19.4141H19.4062H19.3984H19.3906H19.3828H19.375H19.3672H19.3594H19.3516H19.3438H19.3359H19.3281H19.3203H19.3125H19.3047H19.2969H19.2891H19.2812H19.2734H19.2656H19.2578H19.25H19.2422H19.2344H19.2266H19.2188H19.2109H19.2031H19.1953H19.1875H19.1797H19.1719H19.1641H19.1562H19.1484H19.1406H19.1328H19.125H19.1172H19.1094H19.1016H19.0938H19.0859H19.0781H19.0703H19.0625H19.0547H19.0469H19.0391H19.0312H19.0234H19.0156H19.0078H19H18.9922H18.9844H18.9766H18.9688H18.9609H18.9531H18.9453H18.9375H18.9297H18.9219H18.9141H18.9062H18.8984H18.8906H18.8828H18.875H18.8672H18.8594H18.8516H18.8438H18.8359H18.8281H18.8203H18.8125H18.8047H18.7969H18.7891H18.7812H18.7734H18.7656H18.7578H18.75H18.7422H18.7344H18.7266H18.7188H18.7109H18.7031H18.6953H18.6875H18.6797H18.6719H18.6641H18.6562H18.6484H18.6406H18.6328H18.625H18.6172H18.6094H18.6016H18.5938H18.5859H18.5781H18.5703H18.5625H18.5547H18.5469H18.5391H18.5312H18.5234H18.5156H18.5078H18.5H18.4922H18.4844H18.4766H18.4688H18.4609H18.4531H18.4453H18.4375H18.4297H18.4219H18.4141H18.4062H18.3984H18.3906H18.3828H18.375H18.3672H18.3594H18.3516H18.3438H18.3359H18.3281H18.3203H18.3125H18.3047H18.2969H18.2891H18.2812H18.2734H18.2656H18.2578H18.25H18.2422H18.2344H18.2266H18.2188H18.2109H18.2031H18.1953H18.1875H18.1797H18.1719H18.1641H18.1562H18.1484H18.1406H18.1328H18.125H18.1172H18.1094H18.1016H18.0938H18.0859H18.0781H18.0703H18.0625H18.0547H18.0469H18.0391H18.0312H18.0234H18.0156H18.0078H18H17.9922H17.9844H17.9766H17.9688H17.9609H17.9531H17.9453H17.9375H17.9297H17.9219H17.9141H17.9062H17.8984H17.8906H17.8828H17.875H17.8672H17.8594H17.8516H17.8438H17.8359H17.8281H17.8203H17.8125H17.8047H17.7969H17.7891H17.7812H17.7734H17.7656H17.7578H17.75H17.7422H17.7344H17.7266H17.7188H17.7109H17.7031H17.6953H17.6875H17.6797H17.6719H17.6641H17.6562H17.6484H17.6406H17.6328H17.625H17.6172H17.6094H17.6016H17.5938H17.5859H17.5781H17.5703H17.5625H17.5547H17.5469H17.5391H17.5312H17.5234H17.5156H17.5078H17.5H17.4922H17.4844H17.4766H17.4688H17.4609H17.4531H17.4453H17.4375H17.4297H17.4219H17.4141H17.4062H17.3984H17.3906H17.3828H17.375H17.3672H17.3594H17.3516H17.3438H17.3359H17.3281H17.3203H17.3125H17.3047H17.2969H17.2891H17.2812H17.2734H17.2656H17.2578H17.25H17.2422H17.2344H17.2266H17.2188H17.2109H17.2031H17.1953H17.1875H17.1797H17.1719H17.1641H17.1562H17.1484H17.1406H17.1328H17.125H17.1172H17.1094H17.1016H17.0938H17.0859H17.0781H17.0703H17.0625H17.0547H17.0469H17.0391H17.0312H17.0234H17.0156H17.0078H17H16.9922H16.9844H16.9766H16.9688H16.9609H16.9531H16.9453H16.9375H16.9297H16.9219H16.9141H16.9062H16.8984H16.8906H16.8828H16.875H16.8672H16.8594H16.8516H16.8438H16.8359H16.8281H16.8203H16.8125H16.8047H16.7969H16.7891H16.7812H16.7734H16.7656H16.7578H16.75H16.7422H16.7344H16.7266H16.7188H16.7109H16.7031H16.6953H16.6875H16.6797H16.6719H16.6641H16.6562H16.6484H16.6406H16.6328H16.625H16.6172H16.6094H16.6016H16.5938H16.5859H16.5781H16.5703H16.5625H16.5547H16.5469H16.5391H16.5312H16.5234H16.5156H16.5078H16.5H16.4922H16.4844H16.4766H16.4688H16.4609H16.4531H16.4453H16.4375H16.4297H16.4219H16.4141H16.4062H16.3984H16.3906H16.3828H16.375H16.3672H16.3594H16.3516H16.3438H16.3359H16.3281H16.3203H16.3125H16.3047H16.2969H16.2891H16.2812H16.2734H16.2656H16.2578H16.25H16.2422H16.2344H16.2266H16.2188H16.2109H16.2031H16.1953H16.1875H16.1797H16.1719H16.1641H16.1562H16.1484H16.1406H16.1328H16.125H16.1172H16.1094H16.1016H16.0938H16.0859H16.0781H16.0703H16.0625H16.0547H16.0469H16.0391H16.0312H16.0234H16.0156H16.0078H16Z" stroke="black" stroke-width="2"/>
<path d="M22 4H21V5V25V26H22H24H26H27V25V5V4H26H25.9922H25.9844H25.9766H25.9688H25.9609H25.9531H25.9453H25.9375H25.9297H25.9219H25.9141H25.9062H25.8984H25.8906H25.8828H25.875H25.8672H25.8594H25.8516H25.8438H25.8359H25.8281H25.8203H25.8125H25.8047H25.7969H25.7891H25.7812H25.7734H25.7656H25.7578H25.75H25.7422H25.7344H25.7266H25.7188H25.7109H25.7031H25.6953H25.6875H25.6797H25.6719H25.6641H25.6562H25.6484H25.6406H25.6328H25.625H25.6172H25.6094H25.6016H25.5938H25.5859H25.5781H25.5703H25.5625H25.5547H25.5469H25.5391H25.5312H25.5234H25.5156H25.5078H25.5H25.4922H25.4844H25.4766H25.4688H25.4609H25.4531H25.4453H25.4375H25.4297H25.4219H25.4141H25.4062H25.3984H25.3906H25.3828H25.375H25.3672H25.3594H25.3516H25.3438H25.3359H25.3281H25.3203H25.3125H25.3047H25.2969H25.2891H25.2812H25.2734H25.2656H25.2578H25.25H25.2422H25.2344H25.2266H25.2188H25.2109H25.2031H25.1953H25.1875H25.1797H25.1719H25.1641H25.1562H25.1484H25.1406H25.1328H25.125H25.1172H25.1094H25.1016H25.0938H25.0859H25.0781H25.0703H25.0625H25.0547H25.0469H25.0391H25.0312H25.0234H25.0156H25.0078H25H24.9922H24.9844H24.9766H24.9688H24.9609H24.9531H24.9453H24.9375H24.9297H24.9219H24.9141H24.9062H24.8984H24.8906H24.8828H24.875H24.8672H24.8594H24.8516H24.8438H24.8359H24.8281H24.8203H24.8125H24.8047H24.7969H24.7891H24.7812H24.7734H24.7656H24.7578H24.75H24.7422H24.7344H24.7266H24.7188H24.7109H24.7031H24.6953H24.6875H24.6797H24.6719H24.6641H24.6562H24.6484H24.6406H24.6328H24.625H24.6172H24.6094H24.6016H24.5938H24.5859H24.5781H24.5703H24.5625H24.5547H24.5469H24.5391H24.5312H24.5234H24.5156H24.5078H24.5H24.4922H24.4844H24.4766H24.4688H24.4609H24.4531H24.4453H24.4375H24.4297H24.4219H24.4141H24.4062H24.3984H24.3906H24.3828H24.375H24.3672H24.3594H24.3516H24.3438H24.3359H24.3281H24.3203H24.3125H24.3047H24.2969H24.2891H24.2812H24.2734H24.2656H24.2578H24.25H24.2422H24.2344H24.2266H24.2188H24.2109H24.2031H24.1953H24.1875H24.1797H24.1719H24.1641H24.1562H24.1484H24.1406H24.1328H24.125H24.1172H24.1094H24.1016H24.0938H24.0859H24.0781H24.0703H24.0625H24.0547H24.0469H24.0391H24.0312H24.0234H24.0156H24.0078H24H23.9922H23.9844H23.9766H23.9688H23.9609H23.9531H23.9453H23.9375H23.9297H23.9219H23.9141H23.9062H23.8984H23.8906H23.8828H23.875H23.8672H23.8594H23.8516H23.8438H23.8359H23.8281H23.8203H23.8125H23.8047H23.7969H23.7891H23.7812H23.7734H23.7656H23.7578H23.75H23.7422H23.7344H23.7266H23.7188H23.7109H23.7031H23.6953H23.6875H23.6797H23.6719H23.6641H23.6562H23.6484H23.6406H23.6328H23.625H23.6172H23.6094H23.6016H23.5938H23.5859H23.5781H23.5703H23.5625H23.5547H23.5469H23.5391H23.5312H23.5234H23.5156H23.5078H23.5H23.4922H23.4844H23.4766H23.4688H23.4609H23.4531H23.4453H23.4375H23.4297H23.4219H23.4141H23.4062H23.3984H23.3906H23.3828H23.375H23.3672H23.3594H23.3516H23.3438H23.3359H23.3281H23.3203H23.3125H23.3047H23.2969H23.2891H23.2812H23.2734H23.2656H23.2578H23.25H23.2422H23.2344H23.2266H23.2188H23.2109H23.2031H23.1953H23.1875H23.1797H23.1719H23.1641H23.1562H23.1484H23.1406H23.1328H23.125H23.1172H23.1094H23.1016H23.0938H23.0859H23.0781H23.0703H23.0625H23.0547H23.0469H23.0391H23.0312H23.0234H23.0156H23.0078H23H22.9922H22.9844H22.9766H22.9688H22.9609H22.9531H22.9453H22.9375H22.9297H22.9219H22.9141H22.9062H22.8984H22.8906H22.8828H22.875H22.8672H22.8594H22.8516H22.8438H22.8359H22.8281H22.8203H22.8125H22.8047H22.7969H22.7891H22.7812H22.7734H22.7656H22.7578H22.75H22.7422H22.7344H22.7266H22.7188H22.7109H22.7031H22.6953H22.6875H22.6797H22.6719H22.6641H22.6562H22.6484H22.6406H22.6328H22.625H22.6172H22.6094H22.6016H22.5938H22.5859H22.5781H22.5703H22.5625H22.5547H22.5469H22.5391H22.5312H22.5234H22.5156H22.5078H22.5H22.4922H22.4844H22.4766H22.4688H22.4609H22.4531H22.4453H22.4375H22.4297H22.4219H22.4141H22.4062H22.3984H22.3906H22.3828H22.375H22.3672H22.3594H22.3516H22.3438H22.3359H22.3281H22.3203H22.3125H22.3047H22.2969H22.2891H22.2812H22.2734H22.2656H22.2578H22.25H22.2422H22.2344H22.2266H22.2188H22.2109H22.2031H22.1953H22.1875H22.1797H22.1719H22.1641H22.1562H22.1484H22.1406H22.1328H22.125H22.1172H22.1094H22.1016H22.0938H22.0859H22.0781H22.0703H22.0625H22.0547H22.0469H22.0391H22.0312H22.0234H22.0156H22.0078H22Z" stroke="black" stroke-width="2"/>
</svg>
