<svg width="30" height="30" viewBox="0 0 30 30" fill="none" xmlns="http://www.w3.org/2000/svg">
<path d="M2 28L1.01427 27.8316L0.77658 29.2234L2.16835 28.9857L2 28ZM5.46307 7.72255L6.26038 7.11898L4.86621 5.27729L4.47735 7.5542L5.46307 7.72255ZM12.1437 7.76447L11.4366 7.05736V7.05736L12.1437 7.76447ZM16 4L16.7071 3.29289L16.0106 2.59636L15.3036 3.28232L16 4ZM12.9082 7L12.2118 6.28232L12.2064 6.28756L12.2011 6.29289L12.9082 7ZM22.2774 24.5369L22.4458 25.5226L24.7227 25.1338L22.881 23.7396L22.2774 24.5369ZM21.2355 18.8563L20.5284 18.1492L20.5284 18.1492L21.2355 18.8563ZM26 14L26.7177 14.6964L27.4036 13.9894L26.7071 13.2929L26 14ZM23 17.0918L23.7071 17.7989L23.7124 17.7936L23.7177 17.7882L23 17.0918ZM21 3L21.7071 2.29289L21 1.58579L20.2929 2.29289L21 3ZM27 9L27.7071 9.70711L28.4142 9L27.7071 8.29289L27 9ZM2.98573 28.1683L6.4488 7.8909L4.47735 7.5542L1.01427 27.8316L2.98573 28.1683ZM4.66576 8.32612C5.36459 9.24926 6.37312 10.4211 7.84318 10.7109C9.39627 11.0172 11.0393 10.2831 12.8508 8.47158L11.4366 7.05736C9.8022 8.69177 8.80552 8.86219 8.23008 8.74873C7.57159 8.61889 6.96276 8.04681 6.26038 7.11898L4.66576 8.32612ZM12.8508 8.47158L13.6153 7.70711L12.2011 6.29289L11.4366 7.05736L12.8508 8.47158ZM2.70711 28.7071L10.5015 20.9127L9.0873 19.4985L1.29289 27.2929L2.70711 28.7071ZM2.16835 28.9857L22.4458 25.5226L22.1091 23.5512L1.83165 27.0143L2.16835 28.9857ZM22.881 23.7396C22.6258 23.5464 22.362 23.3667 22.1192 23.2029C21.8692 23.0342 21.6458 22.8852 21.4363 22.7333C21.0025 22.4186 20.7588 22.1803 20.6409 21.9716C20.5595 21.8274 20.5111 21.6594 20.6262 21.3364C20.7621 20.9553 21.1242 20.3818 21.9426 19.5634L20.5284 18.1492C19.6239 19.0537 19.0234 19.8766 18.7424 20.6647C18.4406 21.511 18.521 22.2851 18.8994 22.9551C19.2414 23.5607 19.7886 24.0089 20.2621 24.3523C20.5063 24.5294 20.7656 24.7023 21.0006 24.8608C21.2428 25.0243 21.4664 25.1771 21.6739 25.3342L22.881 23.7396ZM21.9426 19.5634L23.7071 17.7989L22.2929 16.3847L20.5284 18.1492L21.9426 19.5634ZM12.2011 19.4985C11.7318 19.9678 10.9708 19.9678 10.5015 19.4985L9.0873 20.9127C10.3377 22.1631 12.3649 22.1631 13.6153 20.9127L12.2011 19.4985ZM10.5015 19.4985C10.0322 19.0292 10.0322 18.2682 10.5015 17.7989L9.0873 16.3847C7.83694 17.6351 7.83694 19.6623 9.0873 20.9127L10.5015 19.4985ZM10.5015 17.7989C10.9708 17.3296 11.7318 17.3296 12.2011 17.7989L13.6153 16.3847C12.3649 15.1343 10.3377 15.1343 9.0873 16.3847L10.5015 17.7989ZM12.2011 17.7989C12.6704 18.2682 12.6704 19.0292 12.2011 19.4985L13.6153 20.9127C14.8657 19.6623 14.8657 17.6351 13.6153 16.3847L12.2011 17.7989ZM12.2011 7.70711L22.2929 17.7989L23.7071 16.3847L13.6153 6.29289L12.2011 7.70711ZM13.6046 7.71768L16.6964 4.71768L15.3036 3.28232L12.2118 6.28232L13.6046 7.71768ZM23.7177 17.7882L26.7177 14.6964L25.2823 13.3036L22.2823 16.3954L23.7177 17.7882ZM18.7071 5.29289L16.7071 3.29289L15.2929 4.70711L17.2929 6.70711L18.7071 5.29289ZM18.7071 6.70711L21.7071 3.70711L20.2929 2.29289L17.2929 5.29289L18.7071 6.70711ZM26.7071 13.2929L24.7071 11.2929L23.2929 12.7071L25.2929 14.7071L26.7071 13.2929ZM24.7071 11.2929L18.7071 5.29289L17.2929 6.70711L23.2929 12.7071L24.7071 11.2929ZM27.7071 8.29289L21.7071 2.29289L20.2929 3.70711L26.2929 9.70711L27.7071 8.29289ZM24.7071 12.7071L27.7071 9.70711L26.2929 8.29289L23.2929 11.2929L24.7071 12.7071Z" fill="black"/>
</svg>
