<svg width="26" height="23" viewBox="0 0 26 23" fill="none" xmlns="http://www.w3.org/2000/svg">
<mask id="path-1-inside-1" fill="white">
<path d="M0 6V23H26V6L13 0L0 6Z"/>
</mask>
<path d="M0 23H-2V25H0V23ZM0 6L-0.838116 4.18408L-2 4.72034V6H0ZM26 23V25H28V23H26ZM26 6H28V4.72034L26.8381 4.18408L26 6ZM13 0L13.8381 -1.81592L13 -2.20274L12.1619 -1.81592L13 0ZM2 23V6H-2V23H2ZM28 23V6H24V23H28ZM12.1619 1.81592L25.1619 7.81592L26.8381 4.18408L13.8381 -1.81592L12.1619 1.81592ZM0.838116 7.81592L13.8381 1.81592L12.1619 -1.81592L-0.838116 4.18408L0.838116 7.81592ZM26 21H0V25H26V21Z" fill="black" mask="url(#path-1-inside-1)"/>
</svg>
