<svg width="30" height="30" viewBox="0 0 30 30" fill="none" xmlns="http://www.w3.org/2000/svg">
    <path d="M3 24H2V25V28V29H3H15H27H28V28V25V24H27H26.9531H26.9062H26.8594H26.8125H26.7656H26.7188H26.6719H26.625H26.5781H26.5312H26.4844H26.4375H26.3906H26.3438H26.2969H26.25H26.2031H26.1562H26.1094H26.0625H26.0156H25.9688H25.9219H25.875H25.8281H25.7812H25.7344H25.6875H25.6406H25.5938H25.5469H25.5H25.4531H25.4062H25.3594H25.3125H25.2656H25.2188H25.1719H25.125H25.0781H25.0312H24.9844H24.9375H24.8906H24.8438H24.7969H24.75H24.7031H24.6562H24.6094H24.5625H24.5156H24.4688H24.4219H24.375H24.3281H24.2812H24.2344H24.1875H24.1406H24.0938H24.0469H24H23.9531H23.9062H23.8594H23.8125H23.7656H23.7188H23.6719H23.625H23.5781H23.5312H23.4844H23.4375H23.3906H23.3438H23.2969H23.25H23.2031H23.1562H23.1094H23.0625H23.0156H22.9688H22.9219H22.875H22.8281H22.7812H22.7344H22.6875H22.6406H22.5938H22.5469H22.5H22.4531H22.4062H22.3594H22.3125H22.2656H22.2188H22.1719H22.125H22.0781H22.0312H21.9844H21.9375H21.8906H21.8438H21.7969H21.75H21.7031H21.6562H21.6094H21.5625H21.5156H21.4688H21.4219H21.375H21.3281H21.2812H21.2344H21.1875H21.1406H21.0938H21.0469H21H20.9531H20.9062H20.8594H20.8125H20.7656H20.7188H20.6719H20.625H20.5781H20.5312H20.4844H20.4375H20.3906H20.3438H20.2969H20.25H20.2031H20.1562H20.1094H20.0625H20.0156H19.9688H19.9219H19.875H19.8281H19.7812H19.7344H19.6875H19.6406H19.5938H19.5469H19.5H19.4531H19.4062H19.3594H19.3125H19.2656H19.2188H19.1719H19.125H19.0781H19.0312H18.9844H18.9375H18.8906H18.8438H18.7969H18.75H18.7031H18.6562H18.6094H18.5625H18.5156H18.4688H18.4219H18.375H18.3281H18.2812H18.2344H18.1875H18.1406H18.0938H18.0469H18H17.9531H17.9062H17.8594H17.8125H17.7656H17.7188H17.6719H17.625H17.5781H17.5312H17.4844H17.4375H17.3906H17.3438H17.2969H17.25H17.2031H17.1562H17.1094H17.0625H17.0156H16.9688H16.9219H16.875H16.8281H16.7812H16.7344H16.6875H16.6406H16.5938H16.5469H16.5H16.4531H16.4062H16.3594H16.3125H16.2656H16.2188H16.1719H16.125H16.0781H16.0312H15.9844H15.9375H15.8906H15.8438H15.7969H15.75H15.7031H15.6562H15.6094H15.5625H15.5156H15.4688H15.4219H15.375H15.3281H15.2812H15.2344H15.1875H15.1406H15.0938H15.0469H15H14.9531H14.9062H14.8594H14.8125H14.7656H14.7188H14.6719H14.625H14.5781H14.5312H14.4844H14.4375H14.3906H14.3438H14.2969H14.25H14.2031H14.1562H14.1094H14.0625H14.0156H13.9688H13.9219H13.875H13.8281H13.7812H13.7344H13.6875H13.6406H13.5938H13.5469H13.5H13.4531H13.4062H13.3594H13.3125H13.2656H13.2188H13.1719H13.125H13.0781H13.0312H12.9844H12.9375H12.8906H12.8438H12.7969H12.75H12.7031H12.6562H12.6094H12.5625H12.5156H12.4688H12.4219H12.375H12.3281H12.2812H12.2344H12.1875H12.1406H12.0938H12.0469H12H11.9531H11.9062H11.8594H11.8125H11.7656H11.7188H11.6719H11.625H11.5781H11.5312H11.4844H11.4375H11.3906H11.3438H11.2969H11.25H11.2031H11.1562H11.1094H11.0625H11.0156H10.9688H10.9219H10.875H10.8281H10.7812H10.7344H10.6875H10.6406H10.5938H10.5469H10.5H10.4531H10.4062H10.3594H10.3125H10.2656H10.2188H10.1719H10.125H10.0781H10.0312H9.98438H9.9375H9.89062H9.84375H9.79688H9.75H9.70312H9.65625H9.60938H9.5625H9.51562H9.46875H9.42188H9.375H9.32812H9.28125H9.23438H9.1875H9.14062H9.09375H9.04688H9H8.95312H8.90625H8.85938H8.8125H8.76562H8.71875H8.67188H8.625H8.57812H8.53125H8.48438H8.4375H8.39062H8.34375H8.29688H8.25H8.20312H8.15625H8.10938H8.0625H8.01562H7.96875H7.92188H7.875H7.82812H7.78125H7.73438H7.6875H7.64062H7.59375H7.54688H7.5H7.45312H7.40625H7.35938H7.3125H7.26562H7.21875H7.17188H7.125H7.07812H7.03125H6.98438H6.9375H6.89062H6.84375H6.79688H6.75H6.70312H6.65625H6.60938H6.5625H6.51562H6.46875H6.42188H6.375H6.32812H6.28125H6.23438H6.1875H6.14062H6.09375H6.04688H6H5.95312H5.90625H5.85938H5.8125H5.76562H5.71875H5.67188H5.625H5.57812H5.53125H5.48438H5.4375H5.39062H5.34375H5.29688H5.25H5.20312H5.15625H5.10938H5.0625H5.01562H4.96875H4.92188H4.875H4.82812H4.78125H4.73438H4.6875H4.64062H4.59375H4.54688H4.5H4.45312H4.40625H4.35938H4.3125H4.26562H4.21875H4.17188H4.125H4.07812H4.03125H3.98438H3.9375H3.89062H3.84375H3.79688H3.75H3.70312H3.65625H3.60938H3.5625H3.51562H3.46875H3.42188H3.375H3.32812H3.28125H3.23438H3.1875H3.14062H3.09375H3.04688H3Z" stroke="black" stroke-width="2"/>
    <path d="M4.02382 10C4.80775 17.5 15.0001 22 15.0001 22C15.0001 22 25.1923 17.5 25.9764 10C26.2866 7.03246 23.4954 4 20.4644 4C18.1123 4 15.7603 5.5 14.9763 7C14.1922 5.5 11.8402 4 9.51195 4C6.48094 4 3.71364 7.03246 4.02382 10Z" stroke="black" stroke-width="2"/>
</svg>
