<svg width="30" height="30" viewBox="0 0 30 30" fill="none" xmlns="http://www.w3.org/2000/svg">
<mask id="path-1-outside-1" maskUnits="userSpaceOnUse" x="4" y="16" width="19" height="14" fill="black">
<rect fill="white" x="4" y="16" width="19" height="14"/>
<path d="M6 28H10.7329C14.4283 28 12.5717 28 16.2671 28H21V21.25L13.5 19L6 21.25V28Z"/>
</mask>
<path d="M6 28H4V30H6V28ZM6 21.25L5.4253 19.3343L4 19.7619V21.25H6ZM21 28V30H23V28H21ZM21 21.25H23V19.7619L21.5747 19.3343L21 21.25ZM13.5 19L14.0747 17.0843L13.5 16.9119L12.9253 17.0843L13.5 19ZM6 30H10.7329V26H6V30ZM4 21.25V28H8V21.25H4ZM21 26H16.2671V30H21V26ZM19 21.25V28H23V21.25H19ZM10.7329 30C10.7402 30 10.7473 30 10.7545 30C10.7617 30 10.7689 30 10.776 30C10.7831 30 10.7902 30 10.7973 30C10.8044 30 10.8115 30 10.8185 30C10.8256 30 10.8326 30 10.8396 30C10.8466 30 10.8536 30 10.8606 30C10.8675 30 10.8745 30 10.8814 30C10.8883 30 10.8952 30 10.9021 30C10.909 30 10.9159 30 10.9227 30C10.9296 30 10.9364 30 10.9432 30C10.95 30 10.9568 30 10.9635 30C10.9703 30 10.977 30 10.9838 30C10.9905 30 10.9972 30 11.0039 30C11.0105 30 11.0172 30 11.0238 30C11.0305 30 11.0371 30 11.0437 30C11.0503 30 11.0569 30 11.0635 30C11.07 30 11.0766 30 11.0831 30C11.0896 30 11.0961 30 11.1026 30C11.1091 30 11.1155 30 11.122 30C11.1284 30 11.1348 30 11.1412 30C11.1476 30 11.154 30 11.1604 30C11.1668 30 11.1731 30 11.1794 30C11.1857 30 11.1921 30 11.1983 30C11.2046 30 11.2109 30 11.2171 30C11.2234 30 11.2296 30 11.2358 30C11.242 30 11.2482 30 11.2544 30C11.2606 30 11.2667 30 11.2729 30C11.279 30 11.2851 30 11.2912 30C11.2973 30 11.3034 30 11.3094 30C11.3155 30 11.3215 30 11.3276 30C11.3336 30 11.3396 30 11.3456 30C11.3516 30 11.3575 30 11.3635 30C11.3694 30 11.3753 30 11.3813 30C11.3872 30 11.3931 30 11.3989 30C11.4048 30 11.4107 30 11.4165 30C11.4223 30 11.4281 30 11.4339 30C11.4397 30 11.4455 30 11.4513 30C11.4571 30 11.4628 30 11.4685 30C11.4743 30 11.48 30 11.4857 30C11.4914 30 11.497 30 11.5027 30C11.5083 30 11.514 30 11.5196 30C11.5252 30 11.5308 30 11.5364 30C11.542 30 11.5476 30 11.5531 30C11.5586 30 11.5642 30 11.5697 30C11.5752 30 11.5807 30 11.5862 30C11.5917 30 11.5971 30 11.6026 30C11.608 30 11.6134 30 11.6188 30C11.6243 30 11.6297 30 11.635 30C11.6404 30 11.6458 30 11.6511 30C11.6564 30 11.6618 30 11.6671 30C11.6724 30 11.6777 30 11.6829 30C11.6882 30 11.6935 30 11.6987 30C11.7039 30 11.7092 30 11.7144 30C11.7196 30 11.7248 30 11.7299 30C11.7351 30 11.7403 30 11.7454 30C11.7505 30 11.7557 30 11.7608 30C11.7659 30 11.771 30 11.776 30C11.7811 30 11.7862 30 11.7912 30C11.7962 30 11.8013 30 11.8063 30C11.8113 30 11.8163 30 11.8212 30C11.8262 30 11.8312 30 11.8361 30C11.841 30 11.846 30 11.8509 30C11.8558 30 11.8607 30 11.8656 30C11.8704 30 11.8753 30 11.8801 30C11.885 30 11.8898 30 11.8946 30C11.8994 30 11.9042 30 11.909 30C11.9138 30 11.9186 30 11.9233 30C11.9281 30 11.9328 30 11.9375 30C11.9423 30 11.947 30 11.9516 30C11.9563 30 11.961 30 11.9657 30C11.9703 30 11.975 30 11.9796 30C11.9842 30 11.9888 30 11.9934 30C11.998 30 12.0026 30 12.0072 30C12.0117 30 12.0163 30 12.0208 30C12.0254 30 12.0299 30 12.0344 30C12.0389 30 12.0434 30 12.0479 30C12.0523 30 12.0568 30 12.0612 30C12.0657 30 12.0701 30 12.0745 30C12.079 30 12.0834 30 12.0878 30C12.0921 30 12.0965 30 12.1009 30C12.1052 30 12.1096 30 12.1139 30C12.1182 30 12.1225 30 12.1268 30C12.1311 30 12.1354 30 12.1397 30C12.144 30 12.1482 30 12.1525 30C12.1567 30 12.1609 30 12.1652 30C12.1694 30 12.1736 30 12.1778 30C12.182 30 12.1861 30 12.1903 30C12.1944 30 12.1986 30 12.2027 30C12.2068 30 12.211 30 12.2151 30C12.2192 30 12.2233 30 12.2273 30C12.2314 30 12.2355 30 12.2395 30C12.2436 30 12.2476 30 12.2516 30C12.2556 30 12.2597 30 12.2636 30C12.2676 30 12.2716 30 12.2756 30C12.2796 30 12.2835 30 12.2874 30C12.2914 30 12.2953 30 12.2992 30C12.3031 30 12.307 30 12.3109 30C12.3148 30 12.3187 30 12.3225 30C12.3264 30 12.3303 30 12.3341 30C12.3379 30 12.3418 30 12.3456 30C12.3494 30 12.3532 30 12.3569 30C12.3607 30 12.3645 30 12.3683 30C12.372 30 12.3758 30 12.3795 30C12.3832 30 12.3869 30 12.3907 30C12.3944 30 12.3981 30 12.4017 30C12.4054 30 12.4091 30 12.4127 30C12.4164 30 12.42 30 12.4237 30C12.4273 30 12.4309 30 12.4345 30C12.4381 30 12.4417 30 12.4453 30C12.4489 30 12.4525 30 12.456 30C12.4596 30 12.4631 30 12.4667 30C12.4702 30 12.4737 30 12.4773 30C12.4808 30 12.4843 30 12.4877 30C12.4912 30 12.4947 30 12.4982 30C12.5016 30 12.5051 30 12.5085 30C12.512 30 12.5154 30 12.5188 30C12.5222 30 12.5256 30 12.529 30C12.5324 30 12.5358 30 12.5392 30C12.5426 30 12.5459 30 12.5493 30C12.5526 30 12.5559 30 12.5593 30C12.5626 30 12.5659 30 12.5692 30C12.5725 30 12.5758 30 12.5791 30C12.5824 30 12.5856 30 12.5889 30C12.5922 30 12.5954 30 12.5986 30C12.6019 30 12.6051 30 12.6083 30C12.6115 30 12.6147 30 12.6179 30C12.6211 30 12.6243 30 12.6275 30C12.6307 30 12.6338 30 12.637 30C12.6401 30 12.6433 30 12.6464 30C12.6495 30 12.6526 30 12.6558 30C12.6589 30 12.662 30 12.6651 30C12.6681 30 12.6712 30 12.6743 30C12.6774 30 12.6804 30 12.6835 30C12.6865 30 12.6895 30 12.6926 30C12.6956 30 12.6986 30 12.7016 30C12.7046 30 12.7076 30 12.7106 30C12.7136 30 12.7166 30 12.7195 30C12.7225 30 12.7255 30 12.7284 30C12.7314 30 12.7343 30 12.7372 30C12.7402 30 12.7431 30 12.746 30C12.7489 30 12.7518 30 12.7547 30C12.7576 30 12.7605 30 12.7633 30C12.7662 30 12.7691 30 12.7719 30C12.7748 30 12.7776 30 12.7804 30C12.7833 30 12.7861 30 12.7889 30C12.7917 30 12.7945 30 12.7973 30C12.8001 30 12.8029 30 12.8057 30C12.8085 30 12.8112 30 12.814 30C12.8168 30 12.8195 30 12.8223 30C12.825 30 12.8277 30 12.8305 30C12.8332 30 12.8359 30 12.8386 30C12.8413 30 12.844 30 12.8467 30C12.8494 30 12.8521 30 12.8547 30C12.8574 30 12.8601 30 12.8627 30C12.8654 30 12.868 30 12.8707 30C12.8733 30 12.876 30 12.8786 30C12.8812 30 12.8838 30 12.8864 30C12.889 30 12.8916 30 12.8942 30C12.8968 30 12.8994 30 12.902 30C12.9045 30 12.9071 30 12.9097 30C12.9122 30 12.9148 30 12.9173 30C12.9199 30 12.9224 30 12.9249 30C12.9274 30 12.93 30 12.9325 30C12.935 30 12.9375 30 12.94 30C12.9425 30 12.945 30 12.9474 30C12.9499 30 12.9524 30 12.9549 30C12.9573 30 12.9598 30 12.9622 30C12.9647 30 12.9671 30 12.9696 30C12.972 30 12.9744 30 12.9769 30C12.9793 30 12.9817 30 12.9841 30C12.9865 30 12.9889 30 12.9913 30C12.9937 30 12.9961 30 12.9985 30C13.0008 30 13.0032 30 13.0056 30C13.0079 30 13.0103 30 13.0127 30C13.015 30 13.0174 30 13.0197 30C13.022 30 13.0244 30 13.0267 30C13.029 30 13.0313 30 13.0336 30C13.036 30 13.0383 30 13.0406 30C13.0429 30 13.0452 30 13.0474 30C13.0497 30 13.052 30 13.0543 30C13.0566 30 13.0588 30 13.0611 30C13.0633 30 13.0656 30 13.0678 30C13.0701 30 13.0723 30 13.0746 30C13.0768 30 13.079 30 13.0813 30C13.0835 30 13.0857 30 13.0879 30C13.0901 30 13.0923 30 13.0945 30C13.0967 30 13.0989 30 13.1011 30C13.1033 30 13.1055 30 13.1077 30C13.1099 30 13.112 30 13.1142 30C13.1164 30 13.1185 30 13.1207 30C13.1228 30 13.125 30 13.1271 30C13.1293 30 13.1314 30 13.1336 30C13.1357 30 13.1378 30 13.1399 30C13.1421 30 13.1442 30 13.1463 30C13.1484 30 13.1505 30 13.1526 30C13.1547 30 13.1568 30 13.1589 30C13.161 30 13.1631 30 13.1652 30C13.1673 30 13.1693 30 13.1714 30C13.1735 30 13.1756 30 13.1776 30C13.1797 30 13.1818 30 13.1838 30C13.1859 30 13.1879 30 13.19 30C13.192 30 13.194 30 13.1961 30C13.1981 30 13.2002 30 13.2022 30C13.2042 30 13.2062 30 13.2082 30C13.2103 30 13.2123 30 13.2143 30C13.2163 30 13.2183 30 13.2203 30C13.2223 30 13.2243 30 13.2263 30C13.2283 30 13.2303 30 13.2323 30C13.2343 30 13.2362 30 13.2382 30C13.2402 30 13.2422 30 13.2442 30C13.2461 30 13.2481 30 13.2501 30C13.252 30 13.254 30 13.2559 30C13.2579 30 13.2598 30 13.2618 30C13.2637 30 13.2657 30 13.2676 30C13.2696 30 13.2715 30 13.2734 30C13.2754 30 13.2773 30 13.2792 30C13.2812 30 13.2831 30 13.285 30C13.2869 30 13.2888 30 13.2908 30C13.2927 30 13.2946 30 13.2965 30C13.2984 30 13.3003 30 13.3022 30C13.3041 30 13.306 30 13.3079 30C13.3098 30 13.3117 30 13.3136 30C13.3155 30 13.3174 30 13.3193 30C13.3211 30 13.323 30 13.3249 30C13.3268 30 13.3287 30 13.3305 30C13.3324 30 13.3343 30 13.3362 30C13.338 30 13.3399 30 13.3418 30C13.3436 30 13.3455 30 13.3474 30C13.3492 30 13.3511 30 13.3529 30C13.3548 30 13.3566 30 13.3585 30C13.3603 30 13.3622 30 13.364 30C13.3659 30 13.3677 30 13.3696 30C13.3714 30 13.3733 30 13.3751 30C13.3769 30 13.3788 30 13.3806 30C13.3824 30 13.3843 30 13.3861 30C13.3879 30 13.3898 30 13.3916 30C13.3934 30 13.3953 30 13.3971 30C13.3989 30 13.4007 30 13.4026 30C13.4044 30 13.4062 30 13.408 30C13.4098 30 13.4117 30 13.4135 30C13.4153 30 13.4171 30 13.4189 30C13.4207 30 13.4225 30 13.4244 30C13.4262 30 13.428 30 13.4298 30C13.4316 30 13.4334 30 13.4352 30C13.437 30 13.4388 30 13.4406 30C13.4424 30 13.4442 30 13.446 30C13.4479 30 13.4497 30 13.4515 30C13.4533 30 13.4551 30 13.4569 30C13.4587 30 13.4605 30 13.4623 30C13.4641 30 13.4659 30 13.4677 30C13.4695 30 13.4713 30 13.4731 30C13.4749 30 13.4767 30 13.4784 30C13.4802 30 13.482 30 13.4838 30C13.4856 30 13.4874 30 13.4892 30C13.491 30 13.4928 30 13.4946 30C13.4964 30 13.4982 30 13.5 30C13.5018 30 13.5036 30 13.5054 30C13.5072 30 13.509 30 13.5108 30C13.5126 30 13.5144 30 13.5162 30C13.518 30 13.5198 30 13.5216 30C13.5233 30 13.5251 30 13.5269 30C13.5287 30 13.5305 30 13.5323 30C13.5341 30 13.5359 30 13.5377 30C13.5395 30 13.5413 30 13.5431 30C13.5449 30 13.5467 30 13.5485 30C13.5503 30 13.5521 30 13.554 30C13.5558 30 13.5576 30 13.5594 30C13.5612 30 13.563 30 13.5648 30C13.5666 30 13.5684 30 13.5702 30C13.572 30 13.5738 30 13.5756 30C13.5775 30 13.5793 30 13.5811 30C13.5829 30 13.5847 30 13.5865 30C13.5883 30 13.5902 30 13.592 30C13.5938 30 13.5956 30 13.5974 30C13.5993 30 13.6011 30 13.6029 30C13.6047 30 13.6066 30 13.6084 30C13.6102 30 13.6121 30 13.6139 30C13.6157 30 13.6176 30 13.6194 30C13.6212 30 13.6231 30 13.6249 30C13.6267 30 13.6286 30 13.6304 30C13.6323 30 13.6341 30 13.636 30C13.6378 30 13.6397 30 13.6415 30C13.6434 30 13.6452 30 13.6471 30C13.6489 30 13.6508 30 13.6526 30C13.6545 30 13.6564 30 13.6582 30C13.6601 30 13.662 30 13.6638 30C13.6657 30 13.6676 30 13.6695 30C13.6713 30 13.6732 30 13.6751 30C13.677 30 13.6789 30 13.6807 30C13.6826 30 13.6845 30 13.6864 30C13.6883 30 13.6902 30 13.6921 30C13.694 30 13.6959 30 13.6978 30C13.6997 30 13.7016 30 13.7035 30C13.7054 30 13.7073 30 13.7092 30C13.7112 30 13.7131 30 13.715 30C13.7169 30 13.7188 30 13.7208 30C13.7227 30 13.7246 30 13.7266 30C13.7285 30 13.7304 30 13.7324 30C13.7343 30 13.7363 30 13.7382 30C13.7402 30 13.7421 30 13.7441 30C13.746 30 13.748 30 13.7499 30C13.7519 30 13.7539 30 13.7558 30C13.7578 30 13.7598 30 13.7618 30C13.7638 30 13.7657 30 13.7677 30C13.7697 30 13.7717 30 13.7737 30C13.7757 30 13.7777 30 13.7797 30C13.7817 30 13.7837 30 13.7857 30C13.7877 30 13.7897 30 13.7918 30C13.7938 30 13.7958 30 13.7978 30C13.7998 30 13.8019 30 13.8039 30C13.806 30 13.808 30 13.81 30C13.8121 30 13.8141 30 13.8162 30C13.8182 30 13.8203 30 13.8224 30C13.8244 30 13.8265 30 13.8286 30C13.8307 30 13.8327 30 13.8348 30C13.8369 30 13.839 30 13.8411 30C13.8432 30 13.8453 30 13.8474 30C13.8495 30 13.8516 30 13.8537 30C13.8558 30 13.8579 30 13.8601 30C13.8622 30 13.8643 30 13.8664 30C13.8686 30 13.8707 30 13.8729 30C13.875 30 13.8772 30 13.8793 30C13.8815 30 13.8836 30 13.8858 30C13.888 30 13.8901 30 13.8923 30C13.8945 30 13.8967 30 13.8989 30C13.9011 30 13.9033 30 13.9055 30C13.9077 30 13.9099 30 13.9121 30C13.9143 30 13.9165 30 13.9187 30C13.921 30 13.9232 30 13.9254 30C13.9277 30 13.9299 30 13.9322 30C13.9344 30 13.9367 30 13.9389 30C13.9412 30 13.9434 30 13.9457 30C13.948 30 13.9503 30 13.9526 30C13.9548 30 13.9571 30 13.9594 30C13.9617 30 13.964 30 13.9664 30C13.9687 30 13.971 30 13.9733 30C13.9756 30 13.978 30 13.9803 30C13.9826 30 13.985 30 13.9873 30C13.9897 30 13.9921 30 13.9944 30C13.9968 30 13.9992 30 14.0015 30C14.0039 30 14.0063 30 14.0087 30C14.0111 30 14.0135 30 14.0159 30C14.0183 30 14.0207 30 14.0231 30C14.0256 30 14.028 30 14.0304 30C14.0329 30 14.0353 30 14.0378 30C14.0402 30 14.0427 30 14.0451 30C14.0476 30 14.0501 30 14.0526 30C14.055 30 14.0575 30 14.06 30C14.0625 30 14.065 30 14.0675 30C14.07 30 14.0726 30 14.0751 30C14.0776 30 14.0801 30 14.0827 30C14.0852 30 14.0878 30 14.0903 30C14.0929 30 14.0955 30 14.098 30C14.1006 30 14.1032 30 14.1058 30C14.1084 30 14.111 30 14.1136 30C14.1162 30 14.1188 30 14.1214 30C14.124 30 14.1267 30 14.1293 30C14.132 30 14.1346 30 14.1373 30C14.1399 30 14.1426 30 14.1453 30C14.1479 30 14.1506 30 14.1533 30C14.156 30 14.1587 30 14.1614 30C14.1641 30 14.1668 30 14.1695 30C14.1723 30 14.175 30 14.1777 30C14.1805 30 14.1832 30 14.186 30C14.1888 30 14.1915 30 14.1943 30C14.1971 30 14.1999 30 14.2027 30C14.2055 30 14.2083 30 14.2111 30C14.2139 30 14.2167 30 14.2196 30C14.2224 30 14.2252 30 14.2281 30C14.2309 30 14.2338 30 14.2367 30C14.2395 30 14.2424 30 14.2453 30C14.2482 30 14.2511 30 14.254 30C14.2569 30 14.2598 30 14.2628 30C14.2657 30 14.2686 30 14.2716 30C14.2745 30 14.2775 30 14.2805 30C14.2834 30 14.2864 30 14.2894 30C14.2924 30 14.2954 30 14.2984 30C14.3014 30 14.3044 30 14.3074 30C14.3105 30 14.3135 30 14.3165 30C14.3196 30 14.3226 30 14.3257 30C14.3288 30 14.3319 30 14.3349 30C14.338 30 14.3411 30 14.3442 30C14.3474 30 14.3505 30 14.3536 30C14.3567 30 14.3599 30 14.363 30C14.3662 30 14.3693 30 14.3725 30C14.3757 30 14.3789 30 14.3821 30C14.3853 30 14.3885 30 14.3917 30C14.3949 30 14.3981 30 14.4014 30C14.4046 30 14.4078 30 14.4111 30C14.4144 30 14.4176 30 14.4209 30C14.4242 30 14.4275 30 14.4308 30C14.4341 30 14.4374 30 14.4407 30C14.4441 30 14.4474 30 14.4507 30C14.4541 30 14.4574 30 14.4608 30C14.4642 30 14.4676 30 14.471 30C14.4744 30 14.4778 30 14.4812 30C14.4846 30 14.488 30 14.4915 30C14.4949 30 14.4984 30 14.5018 30C14.5053 30 14.5088 30 14.5123 30C14.5157 30 14.5192 30 14.5227 30C14.5263 30 14.5298 30 14.5333 30C14.5369 30 14.5404 30 14.544 30C14.5475 30 14.5511 30 14.5547 30C14.5583 30 14.5619 30 14.5655 30C14.5691 30 14.5727 30 14.5763 30C14.58 30 14.5836 30 14.5873 30C14.5909 30 14.5946 30 14.5983 30C14.6019 30 14.6056 30 14.6093 30C14.6131 30 14.6168 30 14.6205 30C14.6242 30 14.628 30 14.6317 30C14.6355 30 14.6393 30 14.6431 30C14.6468 30 14.6506 30 14.6544 30C14.6582 30 14.6621 30 14.6659 30C14.6697 30 14.6736 30 14.6775 30C14.6813 30 14.6852 30 14.6891 30C14.693 30 14.6969 30 14.7008 30C14.7047 30 14.7086 30 14.7126 30C14.7165 30 14.7204 30 14.7244 30C14.7284 30 14.7324 30 14.7364 30C14.7403 30 14.7444 30 14.7484 30C14.7524 30 14.7564 30 14.7605 30C14.7645 30 14.7686 30 14.7727 30C14.7767 30 14.7808 30 14.7849 30C14.789 30 14.7932 30 14.7973 30C14.8014 30 14.8056 30 14.8097 30C14.8139 30 14.818 30 14.8222 30C14.8264 30 14.8306 30 14.8348 30C14.8391 30 14.8433 30 14.8475 30C14.8518 30 14.856 30 14.8603 30C14.8646 30 14.8689 30 14.8732 30C14.8775 30 14.8818 30 14.8861 30C14.8904 30 14.8948 30 14.8991 30C14.9035 30 14.9079 30 14.9123 30C14.9166 30 14.921 30 14.9255 30C14.9299 30 14.9343 30 14.9388 30C14.9432 30 14.9477 30 14.9521 30C14.9566 30 14.9611 30 14.9656 30C14.9701 30 14.9746 30 14.9792 30C14.9837 30 14.9883 30 14.9928 30C14.9974 30 15.002 30 15.0066 30C15.0112 30 15.0158 30 15.0204 30C15.025 30 15.0297 30 15.0343 30C15.039 30 15.0437 30 15.0484 30C15.053 30 15.0577 30 15.0625 30C15.0672 30 15.0719 30 15.0767 30C15.0814 30 15.0862 30 15.091 30C15.0958 30 15.1006 30 15.1054 30C15.1102 30 15.115 30 15.1199 30C15.1247 30 15.1296 30 15.1344 30C15.1393 30 15.1442 30 15.1491 30C15.154 30 15.159 30 15.1639 30C15.1688 30 15.1738 30 15.1788 30C15.1837 30 15.1887 30 15.1937 30C15.1987 30 15.2038 30 15.2088 30C15.2138 30 15.2189 30 15.224 30C15.229 30 15.2341 30 15.2392 30C15.2443 30 15.2495 30 15.2546 30C15.2597 30 15.2649 30 15.2701 30C15.2752 30 15.2804 30 15.2856 30C15.2908 30 15.2961 30 15.3013 30C15.3065 30 15.3118 30 15.3171 30C15.3223 30 15.3276 30 15.3329 30C15.3382 30 15.3436 30 15.3489 30C15.3542 30 15.3596 30 15.365 30C15.3704 30 15.3757 30 15.3812 30C15.3866 30 15.392 30 15.3974 30C15.4029 30 15.4083 30 15.4138 30C15.4193 30 15.4248 30 15.4303 30C15.4358 30 15.4414 30 15.4469 30C15.4525 30 15.458 30 15.4636 30C15.4692 30 15.4748 30 15.4804 30C15.486 30 15.4917 30 15.4973 30C15.503 30 15.5087 30 15.5143 30C15.52 30 15.5257 30 15.5315 30C15.5372 30 15.5429 30 15.5487 30C15.5545 30 15.5603 30 15.5661 30C15.5719 30 15.5777 30 15.5835 30C15.5893 30 15.5952 30 15.6011 30C15.6069 30 15.6128 30 15.6187 30C15.6247 30 15.6306 30 15.6365 30C15.6425 30 15.6484 30 15.6544 30C15.6604 30 15.6664 30 15.6724 30C15.6785 30 15.6845 30 15.6906 30C15.6966 30 15.7027 30 15.7088 30C15.7149 30 15.721 30 15.7271 30C15.7333 30 15.7394 30 15.7456 30C15.7518 30 15.758 30 15.7642 30C15.7704 30 15.7766 30 15.7829 30C15.7891 30 15.7954 30 15.8017 30C15.8079 30 15.8143 30 15.8206 30C15.8269 30 15.8332 30 15.8396 30C15.846 30 15.8524 30 15.8588 30C15.8652 30 15.8716 30 15.878 30C15.8845 30 15.8909 30 15.8974 30C15.9039 30 15.9104 30 15.9169 30C15.9234 30 15.93 30 15.9365 30C15.9431 30 15.9497 30 15.9563 30C15.9629 30 15.9695 30 15.9762 30C15.9828 30 15.9895 30 15.9961 30C16.0028 30 16.0095 30 16.0162 30C16.023 30 16.0297 30 16.0365 30C16.0432 30 16.05 30 16.0568 30C16.0636 30 16.0704 30 16.0773 30C16.0841 30 16.091 30 16.0979 30C16.1048 30 16.1117 30 16.1186 30C16.1255 30 16.1325 30 16.1394 30C16.1464 30 16.1534 30 16.1604 30C16.1674 30 16.1744 30 16.1815 30C16.1885 30 16.1956 30 16.2027 30C16.2098 30 16.2169 30 16.224 30C16.2311 30 16.2383 30 16.2455 30C16.2527 30 16.2598 30 16.2671 30V26C16.2598 26 16.2527 26 16.2455 26C16.2383 26 16.2311 26 16.224 26C16.2169 26 16.2098 26 16.2027 26C16.1956 26 16.1885 26 16.1815 26C16.1744 26 16.1674 26 16.1604 26C16.1534 26 16.1464 26 16.1394 26C16.1325 26 16.1255 26 16.1186 26C16.1117 26 16.1048 26 16.0979 26C16.091 26 16.0841 26 16.0773 26C16.0704 26 16.0636 26 16.0568 26C16.05 26 16.0432 26 16.0365 26C16.0297 26 16.023 26 16.0162 26C16.0095 26 16.0028 26 15.9961 26C15.9895 26 15.9828 26 15.9762 26C15.9695 26 15.9629 26 15.9563 26C15.9497 26 15.9431 26 15.9365 26C15.93 26 15.9234 26 15.9169 26C15.9104 26 15.9039 26 15.8974 26C15.8909 26 15.8845 26 15.878 26C15.8716 26 15.8652 26 15.8588 26C15.8524 26 15.846 26 15.8396 26C15.8332 26 15.8269 26 15.8206 26C15.8143 26 15.8079 26 15.8017 26C15.7954 26 15.7891 26 15.7829 26C15.7766 26 15.7704 26 15.7642 26C15.758 26 15.7518 26 15.7456 26C15.7394 26 15.7333 26 15.7271 26C15.721 26 15.7149 26 15.7088 26C15.7027 26 15.6966 26 15.6906 26C15.6845 26 15.6785 26 15.6724 26C15.6664 26 15.6604 26 15.6544 26C15.6484 26 15.6425 26 15.6365 26C15.6306 26 15.6247 26 15.6187 26C15.6128 26 15.6069 26 15.6011 26C15.5952 26 15.5893 26 15.5835 26C15.5777 26 15.5719 26 15.5661 26C15.5603 26 15.5545 26 15.5487 26C15.5429 26 15.5372 26 15.5315 26C15.5257 26 15.52 26 15.5143 26C15.5087 26 15.503 26 15.4973 26C15.4917 26 15.486 26 15.4804 26C15.4748 26 15.4692 26 15.4636 26C15.458 26 15.4525 26 15.4469 26C15.4414 26 15.4358 26 15.4303 26C15.4248 26 15.4193 26 15.4138 26C15.4083 26 15.4029 26 15.3974 26C15.392 26 15.3866 26 15.3812 26C15.3757 26 15.3704 26 15.365 26C15.3596 26 15.3542 26 15.3489 26C15.3436 26 15.3382 26 15.3329 26C15.3276 26 15.3223 26 15.3171 26C15.3118 26 15.3065 26 15.3013 26C15.2961 26 15.2908 26 15.2856 26C15.2804 26 15.2752 26 15.2701 26C15.2649 26 15.2597 26 15.2546 26C15.2495 26 15.2443 26 15.2392 26C15.2341 26 15.229 26 15.224 26C15.2189 26 15.2138 26 15.2088 26C15.2038 26 15.1987 26 15.1937 26C15.1887 26 15.1837 26 15.1788 26C15.1738 26 15.1688 26 15.1639 26C15.159 26 15.154 26 15.1491 26C15.1442 26 15.1393 26 15.1344 26C15.1296 26 15.1247 26 15.1199 26C15.115 26 15.1102 26 15.1054 26C15.1006 26 15.0958 26 15.091 26C15.0862 26 15.0814 26 15.0767 26C15.0719 26 15.0672 26 15.0625 26C15.0577 26 15.053 26 15.0484 26C15.0437 26 15.039 26 15.0343 26C15.0297 26 15.025 26 15.0204 26C15.0158 26 15.0112 26 15.0066 26C15.002 26 14.9974 26 14.9928 26C14.9883 26 14.9837 26 14.9792 26C14.9746 26 14.9701 26 14.9656 26C14.9611 26 14.9566 26 14.9521 26C14.9477 26 14.9432 26 14.9388 26C14.9343 26 14.9299 26 14.9255 26C14.921 26 14.9166 26 14.9123 26C14.9079 26 14.9035 26 14.8991 26C14.8948 26 14.8904 26 14.8861 26C14.8818 26 14.8775 26 14.8732 26C14.8689 26 14.8646 26 14.8603 26C14.856 26 14.8518 26 14.8475 26C14.8433 26 14.8391 26 14.8348 26C14.8306 26 14.8264 26 14.8222 26C14.818 26 14.8139 26 14.8097 26C14.8056 26 14.8014 26 14.7973 26C14.7932 26 14.789 26 14.7849 26C14.7808 26 14.7767 26 14.7727 26C14.7686 26 14.7645 26 14.7605 26C14.7564 26 14.7524 26 14.7484 26C14.7444 26 14.7403 26 14.7364 26C14.7324 26 14.7284 26 14.7244 26C14.7204 26 14.7165 26 14.7126 26C14.7086 26 14.7047 26 14.7008 26C14.6969 26 14.693 26 14.6891 26C14.6852 26 14.6813 26 14.6775 26C14.6736 26 14.6697 26 14.6659 26C14.6621 26 14.6582 26 14.6544 26C14.6506 26 14.6468 26 14.6431 26C14.6393 26 14.6355 26 14.6317 26C14.628 26 14.6242 26 14.6205 26C14.6168 26 14.6131 26 14.6093 26C14.6056 26 14.6019 26 14.5983 26C14.5946 26 14.5909 26 14.5873 26C14.5836 26 14.58 26 14.5763 26C14.5727 26 14.5691 26 14.5655 26C14.5619 26 14.5583 26 14.5547 26C14.5511 26 14.5475 26 14.544 26C14.5404 26 14.5369 26 14.5333 26C14.5298 26 14.5263 26 14.5227 26C14.5192 26 14.5157 26 14.5123 26C14.5088 26 14.5053 26 14.5018 26C14.4984 26 14.4949 26 14.4915 26C14.488 26 14.4846 26 14.4812 26C14.4778 26 14.4744 26 14.471 26C14.4676 26 14.4642 26 14.4608 26C14.4574 26 14.4541 26 14.4507 26C14.4474 26 14.4441 26 14.4407 26C14.4374 26 14.4341 26 14.4308 26C14.4275 26 14.4242 26 14.4209 26C14.4176 26 14.4144 26 14.4111 26C14.4078 26 14.4046 26 14.4014 26C14.3981 26 14.3949 26 14.3917 26C14.3885 26 14.3853 26 14.3821 26C14.3789 26 14.3757 26 14.3725 26C14.3693 26 14.3662 26 14.363 26C14.3599 26 14.3567 26 14.3536 26C14.3505 26 14.3474 26 14.3442 26C14.3411 26 14.338 26 14.3349 26C14.3319 26 14.3288 26 14.3257 26C14.3226 26 14.3196 26 14.3165 26C14.3135 26 14.3105 26 14.3074 26C14.3044 26 14.3014 26 14.2984 26C14.2954 26 14.2924 26 14.2894 26C14.2864 26 14.2834 26 14.2805 26C14.2775 26 14.2745 26 14.2716 26C14.2686 26 14.2657 26 14.2628 26C14.2598 26 14.2569 26 14.254 26C14.2511 26 14.2482 26 14.2453 26C14.2424 26 14.2395 26 14.2367 26C14.2338 26 14.2309 26 14.2281 26C14.2252 26 14.2224 26 14.2196 26C14.2167 26 14.2139 26 14.2111 26C14.2083 26 14.2055 26 14.2027 26C14.1999 26 14.1971 26 14.1943 26C14.1915 26 14.1888 26 14.186 26C14.1832 26 14.1805 26 14.1777 26C14.175 26 14.1723 26 14.1695 26C14.1668 26 14.1641 26 14.1614 26C14.1587 26 14.156 26 14.1533 26C14.1506 26 14.1479 26 14.1453 26C14.1426 26 14.1399 26 14.1373 26C14.1346 26 14.132 26 14.1293 26C14.1267 26 14.124 26 14.1214 26C14.1188 26 14.1162 26 14.1136 26C14.111 26 14.1084 26 14.1058 26C14.1032 26 14.1006 26 14.098 26C14.0955 26 14.0929 26 14.0903 26C14.0878 26 14.0852 26 14.0827 26C14.0801 26 14.0776 26 14.0751 26C14.0726 26 14.07 26 14.0675 26C14.065 26 14.0625 26 14.06 26C14.0575 26 14.055 26 14.0526 26C14.0501 26 14.0476 26 14.0451 26C14.0427 26 14.0402 26 14.0378 26C14.0353 26 14.0329 26 14.0304 26C14.028 26 14.0256 26 14.0231 26C14.0207 26 14.0183 26 14.0159 26C14.0135 26 14.0111 26 14.0087 26C14.0063 26 14.0039 26 14.0015 26C13.9992 26 13.9968 26 13.9944 26C13.9921 26 13.9897 26 13.9873 26C13.985 26 13.9826 26 13.9803 26C13.978 26 13.9756 26 13.9733 26C13.971 26 13.9687 26 13.9664 26C13.964 26 13.9617 26 13.9594 26C13.9571 26 13.9548 26 13.9526 26C13.9503 26 13.948 26 13.9457 26C13.9434 26 13.9412 26 13.9389 26C13.9367 26 13.9344 26 13.9322 26C13.9299 26 13.9277 26 13.9254 26C13.9232 26 13.921 26 13.9187 26C13.9165 26 13.9143 26 13.9121 26C13.9099 26 13.9077 26 13.9055 26C13.9033 26 13.9011 26 13.8989 26C13.8967 26 13.8945 26 13.8923 26C13.8901 26 13.888 26 13.8858 26C13.8836 26 13.8815 26 13.8793 26C13.8772 26 13.875 26 13.8729 26C13.8707 26 13.8686 26 13.8664 26C13.8643 26 13.8622 26 13.8601 26C13.8579 26 13.8558 26 13.8537 26C13.8516 26 13.8495 26 13.8474 26C13.8453 26 13.8432 26 13.8411 26C13.839 26 13.8369 26 13.8348 26C13.8327 26 13.8307 26 13.8286 26C13.8265 26 13.8244 26 13.8224 26C13.8203 26 13.8182 26 13.8162 26C13.8141 26 13.8121 26 13.81 26C13.808 26 13.806 26 13.8039 26C13.8019 26 13.7998 26 13.7978 26C13.7958 26 13.7938 26 13.7918 26C13.7897 26 13.7877 26 13.7857 26C13.7837 26 13.7817 26 13.7797 26C13.7777 26 13.7757 26 13.7737 26C13.7717 26 13.7697 26 13.7677 26C13.7657 26 13.7638 26 13.7618 26C13.7598 26 13.7578 26 13.7558 26C13.7539 26 13.7519 26 13.7499 26C13.748 26 13.746 26 13.7441 26C13.7421 26 13.7402 26 13.7382 26C13.7363 26 13.7343 26 13.7324 26C13.7304 26 13.7285 26 13.7266 26C13.7246 26 13.7227 26 13.7208 26C13.7188 26 13.7169 26 13.715 26C13.7131 26 13.7112 26 13.7092 26C13.7073 26 13.7054 26 13.7035 26C13.7016 26 13.6997 26 13.6978 26C13.6959 26 13.694 26 13.6921 26C13.6902 26 13.6883 26 13.6864 26C13.6845 26 13.6826 26 13.6807 26C13.6789 26 13.677 26 13.6751 26C13.6732 26 13.6713 26 13.6695 26C13.6676 26 13.6657 26 13.6638 26C13.662 26 13.6601 26 13.6582 26C13.6564 26 13.6545 26 13.6526 26C13.6508 26 13.6489 26 13.6471 26C13.6452 26 13.6434 26 13.6415 26C13.6397 26 13.6378 26 13.636 26C13.6341 26 13.6323 26 13.6304 26C13.6286 26 13.6267 26 13.6249 26C13.6231 26 13.6212 26 13.6194 26C13.6176 26 13.6157 26 13.6139 26C13.6121 26 13.6102 26 13.6084 26C13.6066 26 13.6047 26 13.6029 26C13.6011 26 13.5993 26 13.5974 26C13.5956 26 13.5938 26 13.592 26C13.5902 26 13.5883 26 13.5865 26C13.5847 26 13.5829 26 13.5811 26C13.5793 26 13.5775 26 13.5756 26C13.5738 26 13.572 26 13.5702 26C13.5684 26 13.5666 26 13.5648 26C13.563 26 13.5612 26 13.5594 26C13.5576 26 13.5558 26 13.554 26C13.5521 26 13.5503 26 13.5485 26C13.5467 26 13.5449 26 13.5431 26C13.5413 26 13.5395 26 13.5377 26C13.5359 26 13.5341 26 13.5323 26C13.5305 26 13.5287 26 13.5269 26C13.5251 26 13.5233 26 13.5216 26C13.5198 26 13.518 26 13.5162 26C13.5144 26 13.5126 26 13.5108 26C13.509 26 13.5072 26 13.5054 26C13.5036 26 13.5018 26 13.5 26C13.4982 26 13.4964 26 13.4946 26C13.4928 26 13.491 26 13.4892 26C13.4874 26 13.4856 26 13.4838 26C13.482 26 13.4802 26 13.4784 26C13.4767 26 13.4749 26 13.4731 26C13.4713 26 13.4695 26 13.4677 26C13.4659 26 13.4641 26 13.4623 26C13.4605 26 13.4587 26 13.4569 26C13.4551 26 13.4533 26 13.4515 26C13.4497 26 13.4479 26 13.446 26C13.4442 26 13.4424 26 13.4406 26C13.4388 26 13.437 26 13.4352 26C13.4334 26 13.4316 26 13.4298 26C13.428 26 13.4262 26 13.4244 26C13.4225 26 13.4207 26 13.4189 26C13.4171 26 13.4153 26 13.4135 26C13.4117 26 13.4098 26 13.408 26C13.4062 26 13.4044 26 13.4026 26C13.4007 26 13.3989 26 13.3971 26C13.3953 26 13.3934 26 13.3916 26C13.3898 26 13.3879 26 13.3861 26C13.3843 26 13.3824 26 13.3806 26C13.3788 26 13.3769 26 13.3751 26C13.3733 26 13.3714 26 13.3696 26C13.3677 26 13.3659 26 13.364 26C13.3622 26 13.3603 26 13.3585 26C13.3566 26 13.3548 26 13.3529 26C13.3511 26 13.3492 26 13.3474 26C13.3455 26 13.3436 26 13.3418 26C13.3399 26 13.338 26 13.3362 26C13.3343 26 13.3324 26 13.3305 26C13.3287 26 13.3268 26 13.3249 26C13.323 26 13.3211 26 13.3193 26C13.3174 26 13.3155 26 13.3136 26C13.3117 26 13.3098 26 13.3079 26C13.306 26 13.3041 26 13.3022 26C13.3003 26 13.2984 26 13.2965 26C13.2946 26 13.2927 26 13.2908 26C13.2888 26 13.2869 26 13.285 26C13.2831 26 13.2812 26 13.2792 26C13.2773 26 13.2754 26 13.2734 26C13.2715 26 13.2696 26 13.2676 26C13.2657 26 13.2637 26 13.2618 26C13.2598 26 13.2579 26 13.2559 26C13.254 26 13.252 26 13.2501 26C13.2481 26 13.2461 26 13.2442 26C13.2422 26 13.2402 26 13.2382 26C13.2362 26 13.2343 26 13.2323 26C13.2303 26 13.2283 26 13.2263 26C13.2243 26 13.2223 26 13.2203 26C13.2183 26 13.2163 26 13.2143 26C13.2123 26 13.2103 26 13.2082 26C13.2062 26 13.2042 26 13.2022 26C13.2002 26 13.1981 26 13.1961 26C13.194 26 13.192 26 13.19 26C13.1879 26 13.1859 26 13.1838 26C13.1818 26 13.1797 26 13.1776 26C13.1756 26 13.1735 26 13.1714 26C13.1693 26 13.1673 26 13.1652 26C13.1631 26 13.161 26 13.1589 26C13.1568 26 13.1547 26 13.1526 26C13.1505 26 13.1484 26 13.1463 26C13.1442 26 13.1421 26 13.1399 26C13.1378 26 13.1357 26 13.1336 26C13.1314 26 13.1293 26 13.1271 26C13.125 26 13.1228 26 13.1207 26C13.1185 26 13.1164 26 13.1142 26C13.112 26 13.1099 26 13.1077 26C13.1055 26 13.1033 26 13.1011 26C13.0989 26 13.0967 26 13.0945 26C13.0923 26 13.0901 26 13.0879 26C13.0857 26 13.0835 26 13.0813 26C13.079 26 13.0768 26 13.0746 26C13.0723 26 13.0701 26 13.0678 26C13.0656 26 13.0633 26 13.0611 26C13.0588 26 13.0566 26 13.0543 26C13.052 26 13.0497 26 13.0474 26C13.0452 26 13.0429 26 13.0406 26C13.0383 26 13.036 26 13.0336 26C13.0313 26 13.029 26 13.0267 26C13.0244 26 13.022 26 13.0197 26C13.0174 26 13.015 26 13.0127 26C13.0103 26 13.0079 26 13.0056 26C13.0032 26 13.0008 26 12.9985 26C12.9961 26 12.9937 26 12.9913 26C12.9889 26 12.9865 26 12.9841 26C12.9817 26 12.9793 26 12.9769 26C12.9744 26 12.972 26 12.9696 26C12.9671 26 12.9647 26 12.9622 26C12.9598 26 12.9573 26 12.9549 26C12.9524 26 12.9499 26 12.9474 26C12.945 26 12.9425 26 12.94 26C12.9375 26 12.935 26 12.9325 26C12.93 26 12.9274 26 12.9249 26C12.9224 26 12.9199 26 12.9173 26C12.9148 26 12.9122 26 12.9097 26C12.9071 26 12.9045 26 12.902 26C12.8994 26 12.8968 26 12.8942 26C12.8916 26 12.889 26 12.8864 26C12.8838 26 12.8812 26 12.8786 26C12.876 26 12.8733 26 12.8707 26C12.868 26 12.8654 26 12.8627 26C12.8601 26 12.8574 26 12.8547 26C12.8521 26 12.8494 26 12.8467 26C12.844 26 12.8413 26 12.8386 26C12.8359 26 12.8332 26 12.8305 26C12.8277 26 12.825 26 12.8223 26C12.8195 26 12.8168 26 12.814 26C12.8112 26 12.8085 26 12.8057 26C12.8029 26 12.8001 26 12.7973 26C12.7945 26 12.7917 26 12.7889 26C12.7861 26 12.7833 26 12.7804 26C12.7776 26 12.7748 26 12.7719 26C12.7691 26 12.7662 26 12.7633 26C12.7605 26 12.7576 26 12.7547 26C12.7518 26 12.7489 26 12.746 26C12.7431 26 12.7402 26 12.7372 26C12.7343 26 12.7314 26 12.7284 26C12.7255 26 12.7225 26 12.7195 26C12.7166 26 12.7136 26 12.7106 26C12.7076 26 12.7046 26 12.7016 26C12.6986 26 12.6956 26 12.6926 26C12.6895 26 12.6865 26 12.6835 26C12.6804 26 12.6774 26 12.6743 26C12.6712 26 12.6681 26 12.6651 26C12.662 26 12.6589 26 12.6558 26C12.6526 26 12.6495 26 12.6464 26C12.6433 26 12.6401 26 12.637 26C12.6338 26 12.6307 26 12.6275 26C12.6243 26 12.6211 26 12.6179 26C12.6147 26 12.6115 26 12.6083 26C12.6051 26 12.6019 26 12.5986 26C12.5954 26 12.5922 26 12.5889 26C12.5856 26 12.5824 26 12.5791 26C12.5758 26 12.5725 26 12.5692 26C12.5659 26 12.5626 26 12.5593 26C12.5559 26 12.5526 26 12.5493 26C12.5459 26 12.5426 26 12.5392 26C12.5358 26 12.5324 26 12.529 26C12.5256 26 12.5222 26 12.5188 26C12.5154 26 12.512 26 12.5085 26C12.5051 26 12.5016 26 12.4982 26C12.4947 26 12.4912 26 12.4877 26C12.4843 26 12.4808 26 12.4773 26C12.4737 26 12.4702 26 12.4667 26C12.4631 26 12.4596 26 12.456 26C12.4525 26 12.4489 26 12.4453 26C12.4417 26 12.4381 26 12.4345 26C12.4309 26 12.4273 26 12.4237 26C12.42 26 12.4164 26 12.4127 26C12.4091 26 12.4054 26 12.4017 26C12.3981 26 12.3944 26 12.3907 26C12.3869 26 12.3832 26 12.3795 26C12.3758 26 12.372 26 12.3683 26C12.3645 26 12.3607 26 12.3569 26C12.3532 26 12.3494 26 12.3456 26C12.3418 26 12.3379 26 12.3341 26C12.3303 26 12.3264 26 12.3225 26C12.3187 26 12.3148 26 12.3109 26C12.307 26 12.3031 26 12.2992 26C12.2953 26 12.2914 26 12.2874 26C12.2835 26 12.2796 26 12.2756 26C12.2716 26 12.2676 26 12.2636 26C12.2597 26 12.2556 26 12.2516 26C12.2476 26 12.2436 26 12.2395 26C12.2355 26 12.2314 26 12.2273 26C12.2233 26 12.2192 26 12.2151 26C12.211 26 12.2068 26 12.2027 26C12.1986 26 12.1944 26 12.1903 26C12.1861 26 12.182 26 12.1778 26C12.1736 26 12.1694 26 12.1652 26C12.1609 26 12.1567 26 12.1525 26C12.1482 26 12.144 26 12.1397 26C12.1354 26 12.1311 26 12.1268 26C12.1225 26 12.1182 26 12.1139 26C12.1096 26 12.1052 26 12.1009 26C12.0965 26 12.0921 26 12.0878 26C12.0834 26 12.079 26 12.0745 26C12.0701 26 12.0657 26 12.0612 26C12.0568 26 12.0523 26 12.0479 26C12.0434 26 12.0389 26 12.0344 26C12.0299 26 12.0254 26 12.0208 26C12.0163 26 12.0117 26 12.0072 26C12.0026 26 11.998 26 11.9934 26C11.9888 26 11.9842 26 11.9796 26C11.975 26 11.9703 26 11.9657 26C11.961 26 11.9563 26 11.9516 26C11.947 26 11.9423 26 11.9375 26C11.9328 26 11.9281 26 11.9233 26C11.9186 26 11.9138 26 11.909 26C11.9042 26 11.8994 26 11.8946 26C11.8898 26 11.885 26 11.8801 26C11.8753 26 11.8704 26 11.8656 26C11.8607 26 11.8558 26 11.8509 26C11.846 26 11.841 26 11.8361 26C11.8312 26 11.8262 26 11.8212 26C11.8163 26 11.8113 26 11.8063 26C11.8013 26 11.7962 26 11.7912 26C11.7862 26 11.7811 26 11.776 26C11.771 26 11.7659 26 11.7608 26C11.7557 26 11.7505 26 11.7454 26C11.7403 26 11.7351 26 11.7299 26C11.7248 26 11.7196 26 11.7144 26C11.7092 26 11.7039 26 11.6987 26C11.6935 26 11.6882 26 11.6829 26C11.6777 26 11.6724 26 11.6671 26C11.6618 26 11.6564 26 11.6511 26C11.6458 26 11.6404 26 11.635 26C11.6297 26 11.6243 26 11.6188 26C11.6134 26 11.608 26 11.6026 26C11.5971 26 11.5917 26 11.5862 26C11.5807 26 11.5752 26 11.5697 26C11.5642 26 11.5586 26 11.5531 26C11.5476 26 11.542 26 11.5364 26C11.5308 26 11.5252 26 11.5196 26C11.514 26 11.5083 26 11.5027 26C11.497 26 11.4914 26 11.4857 26C11.48 26 11.4743 26 11.4685 26C11.4628 26 11.4571 26 11.4513 26C11.4455 26 11.4397 26 11.4339 26C11.4281 26 11.4223 26 11.4165 26C11.4107 26 11.4048 26 11.3989 26C11.3931 26 11.3872 26 11.3813 26C11.3753 26 11.3694 26 11.3635 26C11.3575 26 11.3516 26 11.3456 26C11.3396 26 11.3336 26 11.3276 26C11.3215 26 11.3155 26 11.3094 26C11.3034 26 11.2973 26 11.2912 26C11.2851 26 11.279 26 11.2729 26C11.2667 26 11.2606 26 11.2544 26C11.2482 26 11.242 26 11.2358 26C11.2296 26 11.2234 26 11.2171 26C11.2109 26 11.2046 26 11.1983 26C11.1921 26 11.1857 26 11.1794 26C11.1731 26 11.1668 26 11.1604 26C11.154 26 11.1476 26 11.1412 26C11.1348 26 11.1284 26 11.122 26C11.1155 26 11.1091 26 11.1026 26C11.0961 26 11.0896 26 11.0831 26C11.0766 26 11.07 26 11.0635 26C11.0569 26 11.0503 26 11.0437 26C11.0371 26 11.0305 26 11.0238 26C11.0172 26 11.0105 26 11.0039 26C10.9972 26 10.9905 26 10.9838 26C10.977 26 10.9703 26 10.9635 26C10.9568 26 10.95 26 10.9432 26C10.9364 26 10.9296 26 10.9227 26C10.9159 26 10.909 26 10.9021 26C10.8952 26 10.8883 26 10.8814 26C10.8745 26 10.8675 26 10.8606 26C10.8536 26 10.8466 26 10.8396 26C10.8326 26 10.8256 26 10.8185 26C10.8115 26 10.8044 26 10.7973 26C10.7902 26 10.7831 26 10.776 26C10.7689 26 10.7617 26 10.7545 26C10.7473 26 10.7402 26 10.7329 26V30ZM21.5747 19.3343L14.0747 17.0843L12.9253 20.9157L20.4253 23.1657L21.5747 19.3343ZM12.9253 17.0843L5.4253 19.3343L6.5747 23.1657L14.0747 20.9157L12.9253 17.0843Z" fill="black" mask="url(#path-1-outside-1)"/>
<mask id="path-3-inside-2" fill="white">
<path d="M8 29H9.89317C11.3713 29 9.52183 29 11 29V28.8333V22.5833V22L8 22.75V29Z"/>
</mask>
<path d="M8 29H6V31H8V29ZM8 22.75L7.51493 20.8097L6 21.1884V22.75H8ZM11 29V31H13V29H11ZM11 22H13V19.4384L10.5149 20.0597L11 22ZM8 31H9.89317V27H8V31ZM6 22.75V29H10V22.75H6ZM9 28.8333V29H13V28.8333H9ZM9 22.5833V28.8333H13V22.5833H9ZM9.89317 31C9.89606 31 9.89893 31 9.9018 31C9.90466 31 9.90751 31 9.91034 31C9.91318 31 9.916 31 9.91882 31C9.92163 31 9.92443 31 9.92721 31C9.93 31 9.93277 31 9.93553 31C9.93829 31 9.94104 31 9.94378 31C9.94652 31 9.94924 31 9.95195 31C9.95466 31 9.95736 31 9.96005 31C9.96274 31 9.96541 31 9.96808 31C9.97074 31 9.97339 31 9.97603 31C9.97866 31 9.98129 31 9.9839 31C9.98652 31 9.98912 31 9.99171 31C9.9943 31 9.99688 31 9.99944 31C10.002 31 10.0046 31 10.0071 31C10.0096 31 10.0122 31 10.0147 31C10.0172 31 10.0197 31 10.0222 31C10.0247 31 10.0272 31 10.0297 31C10.0321 31 10.0346 31 10.037 31C10.0395 31 10.0419 31 10.0443 31C10.0467 31 10.0492 31 10.0516 31C10.054 31 10.0563 31 10.0587 31C10.0611 31 10.0635 31 10.0658 31C10.0682 31 10.0705 31 10.0728 31C10.0752 31 10.0775 31 10.0798 31C10.0821 31 10.0844 31 10.0867 31C10.089 31 10.0912 31 10.0935 31C10.0958 31 10.098 31 10.1002 31C10.1025 31 10.1047 31 10.1069 31C10.1091 31 10.1113 31 10.1135 31C10.1157 31 10.1179 31 10.1201 31C10.1222 31 10.1244 31 10.1265 31C10.1287 31 10.1308 31 10.133 31C10.1351 31 10.1372 31 10.1393 31C10.1414 31 10.1435 31 10.1456 31C10.1477 31 10.1497 31 10.1518 31C10.1538 31 10.1559 31 10.1579 31C10.16 31 10.162 31 10.164 31C10.166 31 10.168 31 10.17 31C10.172 31 10.174 31 10.176 31C10.1779 31 10.1799 31 10.1819 31C10.1838 31 10.1858 31 10.1877 31C10.1896 31 10.1915 31 10.1934 31C10.1953 31 10.1972 31 10.1991 31C10.201 31 10.2029 31 10.2048 31C10.2066 31 10.2085 31 10.2103 31C10.2122 31 10.214 31 10.2158 31C10.2177 31 10.2195 31 10.2213 31C10.2231 31 10.2249 31 10.2266 31C10.2284 31 10.2302 31 10.232 31C10.2337 31 10.2355 31 10.2372 31C10.239 31 10.2407 31 10.2424 31C10.2441 31 10.2458 31 10.2476 31C10.2493 31 10.2509 31 10.2526 31C10.2543 31 10.256 31 10.2576 31C10.2593 31 10.2609 31 10.2626 31C10.2642 31 10.2659 31 10.2675 31C10.2691 31 10.2707 31 10.2723 31C10.2739 31 10.2755 31 10.2771 31C10.2787 31 10.2802 31 10.2818 31C10.2834 31 10.2849 31 10.2865 31C10.288 31 10.2895 31 10.2911 31C10.2926 31 10.2941 31 10.2956 31C10.2971 31 10.2986 31 10.3001 31C10.3016 31 10.303 31 10.3045 31C10.306 31 10.3074 31 10.3089 31C10.3103 31 10.3118 31 10.3132 31C10.3146 31 10.316 31 10.3174 31C10.3188 31 10.3202 31 10.3216 31C10.323 31 10.3244 31 10.3258 31C10.3271 31 10.3285 31 10.3299 31C10.3312 31 10.3326 31 10.3339 31C10.3352 31 10.3365 31 10.3379 31C10.3392 31 10.3405 31 10.3418 31C10.3431 31 10.3444 31 10.3457 31C10.3469 31 10.3482 31 10.3495 31C10.3507 31 10.352 31 10.3532 31C10.3545 31 10.3557 31 10.3569 31C10.3582 31 10.3594 31 10.3606 31C10.3618 31 10.363 31 10.3642 31C10.3654 31 10.3666 31 10.3677 31C10.3689 31 10.3701 31 10.3712 31C10.3724 31 10.3735 31 10.3747 31C10.3758 31 10.3769 31 10.3781 31C10.3792 31 10.3803 31 10.3814 31C10.3825 31 10.3836 31 10.3847 31C10.3858 31 10.3868 31 10.3879 31C10.389 31 10.39 31 10.3911 31C10.3922 31 10.3932 31 10.3942 31C10.3953 31 10.3963 31 10.3973 31C10.3983 31 10.3994 31 10.4004 31C10.4014 31 10.4024 31 10.4033 31C10.4043 31 10.4053 31 10.4063 31C10.4073 31 10.4082 31 10.4092 31C10.4101 31 10.4111 31 10.412 31C10.4129 31 10.4139 31 10.4148 31C10.4157 31 10.4166 31 10.4175 31C10.4185 31 10.4194 31 10.4202 31C10.4211 31 10.422 31 10.4229 31C10.4238 31 10.4246 31 10.4255 31C10.4264 31 10.4272 31 10.4281 31C10.4289 31 10.4297 31 10.4306 31C10.4314 31 10.4322 31 10.433 31C10.4338 31 10.4346 31 10.4354 31C10.4362 31 10.437 31 10.4378 31C10.4386 31 10.4394 31 10.4401 31C10.4409 31 10.4417 31 10.4424 31C10.4432 31 10.4439 31 10.4447 31C10.4454 31 10.4461 31 10.4468 31C10.4476 31 10.4483 31 10.449 31C10.4497 31 10.4504 31 10.4511 31C10.4518 31 10.4525 31 10.4532 31C10.4538 31 10.4545 31 10.4552 31C10.4558 31 10.4565 31 10.4572 31C10.4578 31 10.4585 31 10.4591 31C10.4597 31 10.4604 31 10.461 31C10.4616 31 10.4622 31 10.4628 31C10.4634 31 10.464 31 10.4646 31C10.4652 31 10.4658 31 10.4664 31C10.467 31 10.4676 31 10.4681 31C10.4687 31 10.4693 31 10.4698 31C10.4704 31 10.4709 31 10.4715 31C10.472 31 10.4725 31 10.4731 31C10.4736 31 10.4741 31 10.4746 31C10.4751 31 10.4756 31 10.4761 31C10.4766 31 10.4771 31 10.4776 31C10.4781 31 10.4786 31 10.4791 31C10.4795 31 10.48 31 10.4805 31C10.4809 31 10.4814 31 10.4818 31C10.4823 31 10.4827 31 10.4832 31C10.4836 31 10.484 31 10.4845 31C10.4849 31 10.4853 31 10.4857 31C10.4861 31 10.4865 31 10.4869 31C10.4873 31 10.4877 31 10.4881 31C10.4885 31 10.4889 31 10.4893 31C10.4896 31 10.49 31 10.4904 31C10.4907 31 10.4911 31 10.4915 31C10.4918 31 10.4921 31 10.4925 31C10.4928 31 10.4932 31 10.4935 31C10.4938 31 10.4941 31 10.4945 31C10.4948 31 10.4951 31 10.4954 31C10.4957 31 10.496 31 10.4963 31C10.4966 31 10.4969 31 10.4971 31C10.4974 31 10.4977 31 10.498 31C10.4982 31 10.4985 31 10.4988 31C10.499 31 10.4993 31 10.4995 31C10.4998 31 10.5 31 10.5003 31C10.5005 31 10.5007 31 10.501 31C10.5012 31 10.5014 31 10.5016 31C10.5018 31 10.502 31 10.5022 31C10.5025 31 10.5027 31 10.5028 31C10.503 31 10.5032 31 10.5034 31C10.5036 31 10.5038 31 10.504 31C10.5041 31 10.5043 31 10.5045 31C10.5046 31 10.5048 31 10.5049 31C10.5051 31 10.5052 31 10.5054 31C10.5055 31 10.5057 31 10.5058 31C10.5059 31 10.5061 31 10.5062 31C10.5063 31 10.5064 31 10.5065 31C10.5066 31 10.5068 31 10.5069 31C10.507 31 10.5071 31 10.5072 31C10.5072 31 10.5073 31 10.5074 31C10.5075 31 10.5076 31 10.5077 31C10.5077 31 10.5078 31 10.5079 31C10.5079 31 10.508 31 10.5081 31C10.5081 31 10.5082 31 10.5082 31C10.5083 31 10.5083 31 10.5083 31C10.5084 31 10.5084 31 10.5085 31C10.5085 31 10.5085 31 10.5085 31C10.5086 31 10.5086 31 10.5086 31C10.5086 31 10.5086 31 10.5086 31C10.5086 29 10.5086 27 10.5086 27C10.5086 27 10.5086 27 10.5086 27C10.5086 27 10.5086 27 10.5085 27C10.5085 27 10.5085 27 10.5085 27C10.5084 27 10.5084 27 10.5084 27C10.5083 27 10.5083 27 10.5082 27C10.5082 27 10.5081 27 10.5081 27C10.508 27 10.508 27 10.5079 27C10.5079 27 10.5078 27 10.5077 27C10.5076 27 10.5076 27 10.5075 27C10.5074 27 10.5073 27 10.5073 27C10.5072 27 10.5071 27 10.507 27C10.5069 27 10.5068 27 10.5067 27C10.5066 27 10.5065 27 10.5064 27C10.5063 27 10.5062 27 10.5061 27C10.506 27 10.5059 27 10.5057 27C10.5056 27 10.5055 27 10.5054 27C10.5052 27 10.5051 27 10.505 27C10.5048 27 10.5047 27 10.5046 27C10.5044 27 10.5043 27 10.5041 27C10.504 27 10.5038 27 10.5037 27C10.5035 27 10.5034 27 10.5032 27C10.5031 27 10.5029 27 10.5027 27C10.5026 27 10.5024 27 10.5022 27C10.502 27 10.5019 27 10.5017 27C10.5015 27 10.5013 27 10.5012 27C10.501 27 10.5008 27 10.5006 27C10.5004 27 10.5002 27 10.5 27C10.4998 27 10.4996 27 10.4994 27C10.4992 27 10.499 27 10.4988 27C10.4986 27 10.4984 27 10.4982 27C10.498 27 10.4977 27 10.4975 27C10.4973 27 10.4971 27 10.4969 27C10.4966 27 10.4964 27 10.4962 27C10.496 27 10.4957 27 10.4955 27C10.4953 27 10.495 27 10.4948 27C10.4945 27 10.4943 27 10.4941 27C10.4938 27 10.4936 27 10.4933 27C10.4931 27 10.4928 27 10.4926 27C10.4923 27 10.4921 27 10.4918 27C10.4915 27 10.4913 27 10.491 27C10.4908 27 10.4905 27 10.4902 27C10.49 27 10.4897 27 10.4894 27C10.4892 27 10.4889 27 10.4886 27C10.4883 27 10.4881 27 10.4878 27C10.4875 27 10.4872 27 10.4869 27C10.4866 27 10.4864 27 10.4861 27C10.4858 27 10.4855 27 10.4852 27C10.4849 27 10.4846 27 10.4843 27C10.484 27 10.4837 27 10.4834 27C10.4831 27 10.4828 27 10.4825 27C10.4822 27 10.4819 27 10.4816 27C10.4813 27 10.481 27 10.4807 27C10.4804 27 10.4801 27 10.4798 27C10.4795 27 10.4791 27 10.4788 27C10.4785 27 10.4782 27 10.4779 27C10.4776 27 10.4772 27 10.4769 27C10.4766 27 10.4763 27 10.476 27C10.4756 27 10.4753 27 10.475 27C10.4747 27 10.4743 27 10.474 27C10.4737 27 10.4733 27 10.473 27C10.4727 27 10.4723 27 10.472 27C10.4717 27 10.4713 27 10.471 27C10.4707 27 10.4703 27 10.47 27C10.4697 27 10.4693 27 10.469 27C10.4686 27 10.4683 27 10.4679 27C10.4676 27 10.4673 27 10.4669 27C10.4666 27 10.4662 27 10.4659 27C10.4655 27 10.4652 27 10.4648 27C10.4645 27 10.4641 27 10.4638 27C10.4634 27 10.4631 27 10.4627 27C10.4624 27 10.462 27 10.4617 27C10.4613 27 10.461 27 10.4606 27C10.4603 27 10.4599 27 10.4596 27C10.4592 27 10.4588 27 10.4585 27C10.4581 27 10.4578 27 10.4574 27C10.4571 27 10.4567 27 10.4563 27C10.456 27 10.4556 27 10.4553 27C10.4549 27 10.4545 27 10.4542 27C10.4538 27 10.4535 27 10.4531 27C10.4527 27 10.4524 27 10.452 27C10.4517 27 10.4513 27 10.4509 27C10.4506 27 10.4502 27 10.4498 27C10.4495 27 10.4491 27 10.4488 27C10.4484 27 10.448 27 10.4477 27C10.4473 27 10.4469 27 10.4466 27C10.4462 27 10.4459 27 10.4455 27C10.4451 27 10.4448 27 10.4444 27C10.444 27 10.4437 27 10.4433 27C10.443 27 10.4426 27 10.4422 27C10.4419 27 10.4415 27 10.4412 27C10.4408 27 10.4404 27 10.4401 27C10.4397 27 10.4393 27 10.439 27C10.4386 27 10.4383 27 10.4379 27C10.4375 27 10.4372 27 10.4368 27C10.4365 27 10.4361 27 10.4358 27C10.4354 27 10.435 27 10.4347 27C10.4343 27 10.434 27 10.4336 27C10.4333 27 10.4329 27 10.4326 27C10.4322 27 10.4318 27 10.4315 27C10.4311 27 10.4308 27 10.4304 27C10.4301 27 10.4297 27 10.4294 27C10.429 27 10.4287 27 10.4283 27C10.428 27 10.4276 27 10.4273 27C10.4269 27 10.4266 27 10.4263 27C10.4259 27 10.4256 27 10.4252 27C10.4249 27 10.4245 27 10.4242 27C10.4239 27 10.4235 27 10.4232 27C10.4228 27 10.4225 27 10.4222 27C10.4218 27 10.4215 27 10.4212 27C10.4208 27 10.4205 27 10.4202 27C10.4198 27 10.4195 27 10.4192 27C10.4188 27 10.4185 27 10.4182 27C10.4179 27 10.4175 27 10.4172 27C10.4169 27 10.4166 27 10.4162 27C10.4159 27 10.4156 27 10.4153 27C10.415 27 10.4147 27 10.4143 27C10.414 27 10.4137 27 10.4134 27C10.4131 27 10.4128 27 10.4125 27C10.4122 27 10.4119 27 10.4115 27C10.4112 27 10.4109 27 10.4106 27C10.4103 27 10.41 27 10.4097 27C10.4094 27 10.4091 27 10.4088 27C10.4086 27 10.4083 27 10.408 27C10.4077 27 10.4074 27 10.4071 27C10.4068 27 10.4065 27 10.4062 27C10.406 27 10.4057 27 10.4054 27C10.4051 27 10.4048 27 10.4046 27C10.4043 27 10.404 27 10.4037 27C10.4035 27 10.4032 27 10.4029 27C10.4027 27 10.4024 27 10.4021 27C10.4019 27 10.4016 27 10.4014 27C10.4011 27 10.4009 27 10.4006 27C10.4004 27 10.4001 27 10.3999 27C10.3996 27 10.3994 27 10.3991 27C10.3989 27 10.3986 27 10.3984 27C10.3982 27 10.3979 27 10.3977 27C10.3974 27 10.3972 27 10.397 27C10.3968 27 10.3965 27 10.3963 27C10.3961 27 10.3959 27 10.3956 27C10.3954 27 10.3952 27 10.395 27C10.3948 27 10.3946 27 10.3944 27C10.3942 27 10.394 27 10.3938 27C10.3936 27 10.3934 27 10.3932 27C10.393 27 10.3928 27 10.3926 27C10.3924 27 10.3922 27 10.392 27C10.3918 27 10.3917 27 10.3915 27C10.3913 27 10.3911 27 10.391 27C10.3908 27 10.3906 27 10.3904 27C10.3903 27 10.3901 27 10.39 27C10.3898 27 10.3896 27 10.3895 27C10.3893 27 10.3892 27 10.389 27C10.3889 27 10.3888 27 10.3886 27C10.3885 27 10.3883 27 10.3882 27C10.3881 27 10.3879 27 10.3878 27C10.3877 27 10.3876 27 10.3874 27C10.3873 27 10.3872 27 10.3871 27C10.387 27 10.3869 27 10.3868 27C10.3867 27 10.3866 27 10.3865 27C10.3864 27 10.3863 27 10.3862 27C10.3861 27 10.386 27 10.3859 27C10.3858 27 10.3857 27 10.3857 27C10.3856 27 10.3855 27 10.3855 27C10.3854 27 10.3853 27 10.3853 27C10.3852 27 10.3851 27 10.3851 27C10.385 27 10.385 27 10.3849 27C10.3849 27 10.3849 27 10.3848 27C10.3848 27 10.3847 27 10.3847 27C10.3847 27 10.3847 27 10.3846 27C10.3846 27 10.3846 27 10.3846 27C10.3846 27 10.3846 27 10.3846 27C10.3846 27 10.3846 29 10.3846 31C10.3846 31 10.3846 31 10.3846 31C10.3846 31 10.3846 31 10.3846 31C10.3847 31 10.3847 31 10.3847 31C10.3847 31 10.3848 31 10.3848 31C10.3849 31 10.3849 31 10.385 31C10.385 31 10.3851 31 10.3851 31C10.3852 31 10.3852 31 10.3853 31C10.3854 31 10.3854 31 10.3855 31C10.3856 31 10.3857 31 10.3857 31C10.3858 31 10.3859 31 10.386 31C10.3861 31 10.3862 31 10.3863 31C10.3864 31 10.3865 31 10.3866 31C10.3868 31 10.3869 31 10.387 31C10.3871 31 10.3872 31 10.3874 31C10.3875 31 10.3877 31 10.3878 31C10.3879 31 10.3881 31 10.3882 31C10.3884 31 10.3886 31 10.3887 31C10.3889 31 10.389 31 10.3892 31C10.3894 31 10.3896 31 10.3898 31C10.3899 31 10.3901 31 10.3903 31C10.3905 31 10.3907 31 10.3909 31C10.3911 31 10.3913 31 10.3916 31C10.3918 31 10.392 31 10.3922 31C10.3924 31 10.3927 31 10.3929 31C10.3932 31 10.3934 31 10.3936 31C10.3939 31 10.3941 31 10.3944 31C10.3947 31 10.3949 31 10.3952 31C10.3955 31 10.3957 31 10.396 31C10.3963 31 10.3966 31 10.3969 31C10.3972 31 10.3975 31 10.3978 31C10.3981 31 10.3984 31 10.3987 31C10.399 31 10.3994 31 10.3997 31C10.4 31 10.4003 31 10.4007 31C10.401 31 10.4014 31 10.4017 31C10.4021 31 10.4024 31 10.4028 31C10.4032 31 10.4035 31 10.4039 31C10.4043 31 10.4047 31 10.405 31C10.4054 31 10.4058 31 10.4062 31C10.4066 31 10.407 31 10.4074 31C10.4079 31 10.4083 31 10.4087 31C10.4091 31 10.4096 31 10.41 31C10.4104 31 10.4109 31 10.4113 31C10.4118 31 10.4122 31 10.4127 31C10.4132 31 10.4136 31 10.4141 31C10.4146 31 10.4151 31 10.4155 31C10.416 31 10.4165 31 10.417 31C10.4175 31 10.418 31 10.4186 31C10.4191 31 10.4196 31 10.4201 31C10.4206 31 10.4212 31 10.4217 31C10.4223 31 10.4228 31 10.4234 31C10.4239 31 10.4245 31 10.425 31C10.4256 31 10.4262 31 10.4268 31C10.4274 31 10.4279 31 10.4285 31C10.4291 31 10.4297 31 10.4303 31C10.431 31 10.4316 31 10.4322 31C10.4328 31 10.4334 31 10.4341 31C10.4347 31 10.4354 31 10.436 31C10.4367 31 10.4373 31 10.438 31C10.4387 31 10.4393 31 10.44 31C10.4407 31 10.4414 31 10.4421 31C10.4428 31 10.4435 31 10.4442 31C10.4449 31 10.4456 31 10.4463 31C10.447 31 10.4478 31 10.4485 31C10.4493 31 10.45 31 10.4508 31C10.4515 31 10.4523 31 10.453 31C10.4538 31 10.4546 31 10.4554 31C10.4561 31 10.4569 31 10.4577 31C10.4585 31 10.4593 31 10.4602 31C10.461 31 10.4618 31 10.4626 31C10.4634 31 10.4643 31 10.4651 31C10.466 31 10.4668 31 10.4677 31C10.4685 31 10.4694 31 10.4703 31C10.4712 31 10.472 31 10.4729 31C10.4738 31 10.4747 31 10.4756 31C10.4765 31 10.4774 31 10.4784 31C10.4793 31 10.4802 31 10.4812 31C10.4821 31 10.483 31 10.484 31C10.485 31 10.4859 31 10.4869 31C10.4879 31 10.4888 31 10.4898 31C10.4908 31 10.4918 31 10.4928 31C10.4938 31 10.4948 31 10.4959 31C10.4969 31 10.4979 31 10.4989 31C10.5 31 10.501 31 10.5021 31C10.5031 31 10.5042 31 10.5053 31C10.5063 31 10.5074 31 10.5085 31C10.5096 31 10.5107 31 10.5118 31C10.5129 31 10.514 31 10.5151 31C10.5162 31 10.5174 31 10.5185 31C10.5197 31 10.5208 31 10.522 31C10.5231 31 10.5243 31 10.5254 31C10.5266 31 10.5278 31 10.529 31C10.5302 31 10.5314 31 10.5326 31C10.5338 31 10.535 31 10.5362 31C10.5375 31 10.5387 31 10.5399 31C10.5412 31 10.5424 31 10.5437 31C10.545 31 10.5462 31 10.5475 31C10.5488 31 10.5501 31 10.5514 31C10.5527 31 10.554 31 10.5553 31C10.5566 31 10.558 31 10.5593 31C10.5606 31 10.562 31 10.5633 31C10.5647 31 10.566 31 10.5674 31C10.5688 31 10.5702 31 10.5715 31C10.5729 31 10.5743 31 10.5757 31C10.5772 31 10.5786 31 10.58 31C10.5814 31 10.5829 31 10.5843 31C10.5858 31 10.5872 31 10.5887 31C10.5901 31 10.5916 31 10.5931 31C10.5946 31 10.5961 31 10.5976 31C10.5991 31 10.6006 31 10.6021 31C10.6036 31 10.6052 31 10.6067 31C10.6083 31 10.6098 31 10.6114 31C10.6129 31 10.6145 31 10.6161 31C10.6177 31 10.6193 31 10.6209 31C10.6225 31 10.6241 31 10.6257 31C10.6273 31 10.6289 31 10.6306 31C10.6322 31 10.6339 31 10.6355 31C10.6372 31 10.6389 31 10.6406 31C10.6422 31 10.6439 31 10.6456 31C10.6473 31 10.649 31 10.6508 31C10.6525 31 10.6542 31 10.656 31C10.6577 31 10.6594 31 10.6612 31C10.663 31 10.6647 31 10.6665 31C10.6683 31 10.6701 31 10.6719 31C10.6737 31 10.6755 31 10.6773 31C10.6792 31 10.681 31 10.6828 31C10.6847 31 10.6865 31 10.6884 31C10.6903 31 10.6922 31 10.694 31C10.6959 31 10.6978 31 10.6997 31C10.7016 31 10.7036 31 10.7055 31C10.7074 31 10.7094 31 10.7113 31C10.7133 31 10.7152 31 10.7172 31C10.7192 31 10.7212 31 10.7231 31C10.7251 31 10.7271 31 10.7292 31C10.7312 31 10.7332 31 10.7352 31C10.7373 31 10.7393 31 10.7414 31C10.7434 31 10.7455 31 10.7476 31C10.7497 31 10.7518 31 10.7539 31C10.756 31 10.7581 31 10.7602 31C10.7623 31 10.7645 31 10.7666 31C10.7688 31 10.7709 31 10.7731 31C10.7753 31 10.7775 31 10.7796 31C10.7818 31 10.784 31 10.7863 31C10.7885 31 10.7907 31 10.7929 31C10.7952 31 10.7974 31 10.7997 31C10.8019 31 10.8042 31 10.8065 31C10.8088 31 10.8111 31 10.8134 31C10.8157 31 10.818 31 10.8203 31C10.8227 31 10.825 31 10.8274 31C10.8297 31 10.8321 31 10.8345 31C10.8368 31 10.8392 31 10.8416 31C10.844 31 10.8464 31 10.8488 31C10.8513 31 10.8537 31 10.8561 31C10.8586 31 10.8611 31 10.8635 31C10.866 31 10.8685 31 10.871 31C10.8735 31 10.876 31 10.8785 31C10.881 31 10.8835 31 10.8861 31C10.8886 31 10.8912 31 10.8937 31C10.8963 31 10.8989 31 10.9015 31C10.9041 31 10.9067 31 10.9093 31C10.9119 31 10.9145 31 10.9171 31C10.9198 31 10.9224 31 10.9251 31C10.9278 31 10.9304 31 10.9331 31C10.9358 31 10.9385 31 10.9412 31C10.9439 31 10.9467 31 10.9494 31C10.9521 31 10.9549 31 10.9576 31C10.9604 31 10.9632 31 10.966 31C10.9687 31 10.9715 31 10.9744 31C10.9772 31 10.98 31 10.9828 31C10.9857 31 10.9885 31 10.9914 31C10.9942 31 10.9971 31 11 31V27C10.9971 27 10.9942 27 10.9914 27C10.9885 27 10.9857 27 10.9828 27C10.98 27 10.9772 27 10.9744 27C10.9715 27 10.9687 27 10.966 27C10.9632 27 10.9604 27 10.9576 27C10.9549 27 10.9521 27 10.9494 27C10.9467 27 10.9439 27 10.9412 27C10.9385 27 10.9358 27 10.9331 27C10.9304 27 10.9278 27 10.9251 27C10.9224 27 10.9198 27 10.9171 27C10.9145 27 10.9119 27 10.9093 27C10.9067 27 10.9041 27 10.9015 27C10.8989 27 10.8963 27 10.8937 27C10.8912 27 10.8886 27 10.8861 27C10.8835 27 10.881 27 10.8785 27C10.876 27 10.8735 27 10.871 27C10.8685 27 10.866 27 10.8635 27C10.8611 27 10.8586 27 10.8561 27C10.8537 27 10.8513 27 10.8488 27C10.8464 27 10.844 27 10.8416 27C10.8392 27 10.8368 27 10.8345 27C10.8321 27 10.8297 27 10.8274 27C10.825 27 10.8227 27 10.8203 27C10.818 27 10.8157 27 10.8134 27C10.8111 27 10.8088 27 10.8065 27C10.8042 27 10.8019 27 10.7997 27C10.7974 27 10.7952 27 10.7929 27C10.7907 27 10.7885 27 10.7863 27C10.784 27 10.7818 27 10.7796 27C10.7775 27 10.7753 27 10.7731 27C10.7709 27 10.7688 27 10.7666 27C10.7645 27 10.7623 27 10.7602 27C10.7581 27 10.756 27 10.7539 27C10.7518 27 10.7497 27 10.7476 27C10.7455 27 10.7434 27 10.7414 27C10.7393 27 10.7373 27 10.7352 27C10.7332 27 10.7312 27 10.7292 27C10.7271 27 10.7251 27 10.7231 27C10.7212 27 10.7192 27 10.7172 27C10.7152 27 10.7133 27 10.7113 27C10.7094 27 10.7074 27 10.7055 27C10.7036 27 10.7016 27 10.6997 27C10.6978 27 10.6959 27 10.694 27C10.6922 27 10.6903 27 10.6884 27C10.6865 27 10.6847 27 10.6828 27C10.681 27 10.6792 27 10.6773 27C10.6755 27 10.6737 27 10.6719 27C10.6701 27 10.6683 27 10.6665 27C10.6647 27 10.663 27 10.6612 27C10.6594 27 10.6577 27 10.656 27C10.6542 27 10.6525 27 10.6508 27C10.649 27 10.6473 27 10.6456 27C10.6439 27 10.6422 27 10.6406 27C10.6389 27 10.6372 27 10.6355 27C10.6339 27 10.6322 27 10.6306 27C10.6289 27 10.6273 27 10.6257 27C10.6241 27 10.6225 27 10.6209 27C10.6193 27 10.6177 27 10.6161 27C10.6145 27 10.6129 27 10.6114 27C10.6098 27 10.6083 27 10.6067 27C10.6052 27 10.6036 27 10.6021 27C10.6006 27 10.5991 27 10.5976 27C10.5961 27 10.5946 27 10.5931 27C10.5916 27 10.5901 27 10.5887 27C10.5872 27 10.5858 27 10.5843 27C10.5829 27 10.5814 27 10.58 27C10.5786 27 10.5772 27 10.5757 27C10.5743 27 10.5729 27 10.5715 27C10.5702 27 10.5688 27 10.5674 27C10.566 27 10.5647 27 10.5633 27C10.562 27 10.5606 27 10.5593 27C10.558 27 10.5566 27 10.5553 27C10.554 27 10.5527 27 10.5514 27C10.5501 27 10.5488 27 10.5475 27C10.5462 27 10.545 27 10.5437 27C10.5424 27 10.5412 27 10.5399 27C10.5387 27 10.5375 27 10.5362 27C10.535 27 10.5338 27 10.5326 27C10.5314 27 10.5302 27 10.529 27C10.5278 27 10.5266 27 10.5254 27C10.5243 27 10.5231 27 10.522 27C10.5208 27 10.5197 27 10.5185 27C10.5174 27 10.5162 27 10.5151 27C10.514 27 10.5129 27 10.5118 27C10.5107 27 10.5096 27 10.5085 27C10.5074 27 10.5063 27 10.5053 27C10.5042 27 10.5031 27 10.5021 27C10.501 27 10.5 27 10.4989 27C10.4979 27 10.4969 27 10.4959 27C10.4948 27 10.4938 27 10.4928 27C10.4918 27 10.4908 27 10.4898 27C10.4888 27 10.4879 27 10.4869 27C10.4859 27 10.485 27 10.484 27C10.483 27 10.4821 27 10.4812 27C10.4802 27 10.4793 27 10.4784 27C10.4774 27 10.4765 27 10.4756 27C10.4747 27 10.4738 27 10.4729 27C10.472 27 10.4712 27 10.4703 27C10.4694 27 10.4685 27 10.4677 27C10.4668 27 10.466 27 10.4651 27C10.4643 27 10.4634 27 10.4626 27C10.4618 27 10.461 27 10.4602 27C10.4593 27 10.4585 27 10.4577 27C10.4569 27 10.4561 27 10.4554 27C10.4546 27 10.4538 27 10.453 27C10.4523 27 10.4515 27 10.4508 27C10.45 27 10.4493 27 10.4485 27C10.4478 27 10.447 27 10.4463 27C10.4456 27 10.4449 27 10.4442 27C10.4435 27 10.4428 27 10.4421 27C10.4414 27 10.4407 27 10.44 27C10.4393 27 10.4387 27 10.438 27C10.4373 27 10.4367 27 10.436 27C10.4354 27 10.4347 27 10.4341 27C10.4334 27 10.4328 27 10.4322 27C10.4316 27 10.431 27 10.4303 27C10.4297 27 10.4291 27 10.4285 27C10.4279 27 10.4274 27 10.4268 27C10.4262 27 10.4256 27 10.425 27C10.4245 27 10.4239 27 10.4234 27C10.4228 27 10.4223 27 10.4217 27C10.4212 27 10.4206 27 10.4201 27C10.4196 27 10.4191 27 10.4186 27C10.418 27 10.4175 27 10.417 27C10.4165 27 10.416 27 10.4155 27C10.4151 27 10.4146 27 10.4141 27C10.4136 27 10.4132 27 10.4127 27C10.4122 27 10.4118 27 10.4113 27C10.4109 27 10.4104 27 10.41 27C10.4096 27 10.4091 27 10.4087 27C10.4083 27 10.4079 27 10.4074 27C10.407 27 10.4066 27 10.4062 27C10.4058 27 10.4054 27 10.405 27C10.4047 27 10.4043 27 10.4039 27C10.4035 27 10.4032 27 10.4028 27C10.4024 27 10.4021 27 10.4017 27C10.4014 27 10.401 27 10.4007 27C10.4003 27 10.4 27 10.3997 27C10.3994 27 10.399 27 10.3987 27C10.3984 27 10.3981 27 10.3978 27C10.3975 27 10.3972 27 10.3969 27C10.3966 27 10.3963 27 10.396 27C10.3957 27 10.3955 27 10.3952 27C10.3949 27 10.3947 27 10.3944 27C10.3941 27 10.3939 27 10.3936 27C10.3934 27 10.3932 27 10.3929 27C10.3927 27 10.3924 27 10.3922 27C10.392 27 10.3918 27 10.3916 27C10.3913 27 10.3911 27 10.3909 27C10.3907 27 10.3905 27 10.3903 27C10.3901 27 10.3899 27 10.3898 27C10.3896 27 10.3894 27 10.3892 27C10.389 27 10.3889 27 10.3887 27C10.3886 27 10.3884 27 10.3882 27C10.3881 27 10.3879 27 10.3878 27C10.3877 27 10.3875 27 10.3874 27C10.3872 27 10.3871 27 10.387 27C10.3869 27 10.3868 27 10.3866 27C10.3865 27 10.3864 27 10.3863 27C10.3862 27 10.3861 27 10.386 27C10.3859 27 10.3858 27 10.3857 27C10.3857 27 10.3856 27 10.3855 27C10.3854 27 10.3854 27 10.3853 27C10.3852 27 10.3852 27 10.3851 27C10.3851 27 10.385 27 10.385 27C10.3849 27 10.3849 27 10.3848 27C10.3848 27 10.3847 27 10.3847 27C10.3847 27 10.3847 27 10.3846 27C10.3846 27 10.3846 27 10.3846 27C10.3846 27 10.3846 27 10.3846 27C10.3846 29 10.3846 31 10.3846 31C10.3846 31 10.3846 31 10.3846 31C10.3846 31 10.3846 31 10.3846 31C10.3847 31 10.3847 31 10.3847 31C10.3847 31 10.3848 31 10.3848 31C10.3849 31 10.3849 31 10.3849 31C10.385 31 10.385 31 10.3851 31C10.3851 31 10.3852 31 10.3853 31C10.3853 31 10.3854 31 10.3855 31C10.3855 31 10.3856 31 10.3857 31C10.3857 31 10.3858 31 10.3859 31C10.386 31 10.3861 31 10.3862 31C10.3863 31 10.3864 31 10.3865 31C10.3866 31 10.3867 31 10.3868 31C10.3869 31 10.387 31 10.3871 31C10.3872 31 10.3873 31 10.3874 31C10.3876 31 10.3877 31 10.3878 31C10.3879 31 10.3881 31 10.3882 31C10.3883 31 10.3885 31 10.3886 31C10.3888 31 10.3889 31 10.389 31C10.3892 31 10.3893 31 10.3895 31C10.3896 31 10.3898 31 10.39 31C10.3901 31 10.3903 31 10.3904 31C10.3906 31 10.3908 31 10.391 31C10.3911 31 10.3913 31 10.3915 31C10.3917 31 10.3918 31 10.392 31C10.3922 31 10.3924 31 10.3926 31C10.3928 31 10.393 31 10.3932 31C10.3934 31 10.3936 31 10.3938 31C10.394 31 10.3942 31 10.3944 31C10.3946 31 10.3948 31 10.395 31C10.3952 31 10.3954 31 10.3956 31C10.3959 31 10.3961 31 10.3963 31C10.3965 31 10.3968 31 10.397 31C10.3972 31 10.3974 31 10.3977 31C10.3979 31 10.3982 31 10.3984 31C10.3986 31 10.3989 31 10.3991 31C10.3994 31 10.3996 31 10.3999 31C10.4001 31 10.4004 31 10.4006 31C10.4009 31 10.4011 31 10.4014 31C10.4016 31 10.4019 31 10.4021 31C10.4024 31 10.4027 31 10.4029 31C10.4032 31 10.4035 31 10.4037 31C10.404 31 10.4043 31 10.4046 31C10.4048 31 10.4051 31 10.4054 31C10.4057 31 10.406 31 10.4062 31C10.4065 31 10.4068 31 10.4071 31C10.4074 31 10.4077 31 10.408 31C10.4083 31 10.4086 31 10.4088 31C10.4091 31 10.4094 31 10.4097 31C10.41 31 10.4103 31 10.4106 31C10.4109 31 10.4112 31 10.4115 31C10.4119 31 10.4122 31 10.4125 31C10.4128 31 10.4131 31 10.4134 31C10.4137 31 10.414 31 10.4143 31C10.4147 31 10.415 31 10.4153 31C10.4156 31 10.4159 31 10.4162 31C10.4166 31 10.4169 31 10.4172 31C10.4175 31 10.4179 31 10.4182 31C10.4185 31 10.4188 31 10.4192 31C10.4195 31 10.4198 31 10.4202 31C10.4205 31 10.4208 31 10.4212 31C10.4215 31 10.4218 31 10.4222 31C10.4225 31 10.4228 31 10.4232 31C10.4235 31 10.4239 31 10.4242 31C10.4245 31 10.4249 31 10.4252 31C10.4256 31 10.4259 31 10.4263 31C10.4266 31 10.4269 31 10.4273 31C10.4276 31 10.428 31 10.4283 31C10.4287 31 10.429 31 10.4294 31C10.4297 31 10.4301 31 10.4304 31C10.4308 31 10.4311 31 10.4315 31C10.4318 31 10.4322 31 10.4326 31C10.4329 31 10.4333 31 10.4336 31C10.434 31 10.4343 31 10.4347 31C10.435 31 10.4354 31 10.4358 31C10.4361 31 10.4365 31 10.4368 31C10.4372 31 10.4375 31 10.4379 31C10.4383 31 10.4386 31 10.439 31C10.4393 31 10.4397 31 10.4401 31C10.4404 31 10.4408 31 10.4412 31C10.4415 31 10.4419 31 10.4422 31C10.4426 31 10.443 31 10.4433 31C10.4437 31 10.444 31 10.4444 31C10.4448 31 10.4451 31 10.4455 31C10.4459 31 10.4462 31 10.4466 31C10.4469 31 10.4473 31 10.4477 31C10.448 31 10.4484 31 10.4488 31C10.4491 31 10.4495 31 10.4498 31C10.4502 31 10.4506 31 10.4509 31C10.4513 31 10.4517 31 10.452 31C10.4524 31 10.4527 31 10.4531 31C10.4535 31 10.4538 31 10.4542 31C10.4545 31 10.4549 31 10.4553 31C10.4556 31 10.456 31 10.4563 31C10.4567 31 10.4571 31 10.4574 31C10.4578 31 10.4581 31 10.4585 31C10.4588 31 10.4592 31 10.4596 31C10.4599 31 10.4603 31 10.4606 31C10.461 31 10.4613 31 10.4617 31C10.462 31 10.4624 31 10.4627 31C10.4631 31 10.4634 31 10.4638 31C10.4641 31 10.4645 31 10.4648 31C10.4652 31 10.4655 31 10.4659 31C10.4662 31 10.4666 31 10.4669 31C10.4673 31 10.4676 31 10.4679 31C10.4683 31 10.4686 31 10.469 31C10.4693 31 10.4697 31 10.47 31C10.4703 31 10.4707 31 10.471 31C10.4713 31 10.4717 31 10.472 31C10.4723 31 10.4727 31 10.473 31C10.4733 31 10.4737 31 10.474 31C10.4743 31 10.4747 31 10.475 31C10.4753 31 10.4756 31 10.476 31C10.4763 31 10.4766 31 10.4769 31C10.4772 31 10.4776 31 10.4779 31C10.4782 31 10.4785 31 10.4788 31C10.4791 31 10.4795 31 10.4798 31C10.4801 31 10.4804 31 10.4807 31C10.481 31 10.4813 31 10.4816 31C10.4819 31 10.4822 31 10.4825 31C10.4828 31 10.4831 31 10.4834 31C10.4837 31 10.484 31 10.4843 31C10.4846 31 10.4849 31 10.4852 31C10.4855 31 10.4858 31 10.4861 31C10.4864 31 10.4866 31 10.4869 31C10.4872 31 10.4875 31 10.4878 31C10.4881 31 10.4883 31 10.4886 31C10.4889 31 10.4892 31 10.4894 31C10.4897 31 10.49 31 10.4902 31C10.4905 31 10.4908 31 10.491 31C10.4913 31 10.4915 31 10.4918 31C10.4921 31 10.4923 31 10.4926 31C10.4928 31 10.4931 31 10.4933 31C10.4936 31 10.4938 31 10.4941 31C10.4943 31 10.4945 31 10.4948 31C10.495 31 10.4953 31 10.4955 31C10.4957 31 10.496 31 10.4962 31C10.4964 31 10.4966 31 10.4969 31C10.4971 31 10.4973 31 10.4975 31C10.4977 31 10.498 31 10.4982 31C10.4984 31 10.4986 31 10.4988 31C10.499 31 10.4992 31 10.4994 31C10.4996 31 10.4998 31 10.5 31C10.5002 31 10.5004 31 10.5006 31C10.5008 31 10.501 31 10.5012 31C10.5013 31 10.5015 31 10.5017 31C10.5019 31 10.502 31 10.5022 31C10.5024 31 10.5026 31 10.5027 31C10.5029 31 10.5031 31 10.5032 31C10.5034 31 10.5035 31 10.5037 31C10.5038 31 10.504 31 10.5041 31C10.5043 31 10.5044 31 10.5046 31C10.5047 31 10.5048 31 10.505 31C10.5051 31 10.5052 31 10.5054 31C10.5055 31 10.5056 31 10.5057 31C10.5059 31 10.506 31 10.5061 31C10.5062 31 10.5063 31 10.5064 31C10.5065 31 10.5066 31 10.5067 31C10.5068 31 10.5069 31 10.507 31C10.5071 31 10.5072 31 10.5073 31C10.5073 31 10.5074 31 10.5075 31C10.5076 31 10.5076 31 10.5077 31C10.5078 31 10.5079 31 10.5079 31C10.508 31 10.508 31 10.5081 31C10.5081 31 10.5082 31 10.5082 31C10.5083 31 10.5083 31 10.5084 31C10.5084 31 10.5084 31 10.5085 31C10.5085 31 10.5085 31 10.5085 31C10.5086 31 10.5086 31 10.5086 31C10.5086 31 10.5086 31 10.5086 31C10.5086 31 10.5086 29 10.5086 27C10.5086 27 10.5086 27 10.5086 27C10.5086 27 10.5086 27 10.5085 27C10.5085 27 10.5085 27 10.5085 27C10.5084 27 10.5084 27 10.5083 27C10.5083 27 10.5083 27 10.5082 27C10.5082 27 10.5081 27 10.5081 27C10.508 27 10.5079 27 10.5079 27C10.5078 27 10.5077 27 10.5077 27C10.5076 27 10.5075 27 10.5074 27C10.5073 27 10.5072 27 10.5072 27C10.5071 27 10.507 27 10.5069 27C10.5068 27 10.5066 27 10.5065 27C10.5064 27 10.5063 27 10.5062 27C10.5061 27 10.5059 27 10.5058 27C10.5057 27 10.5055 27 10.5054 27C10.5052 27 10.5051 27 10.5049 27C10.5048 27 10.5046 27 10.5045 27C10.5043 27 10.5041 27 10.504 27C10.5038 27 10.5036 27 10.5034 27C10.5032 27 10.503 27 10.5028 27C10.5027 27 10.5025 27 10.5022 27C10.502 27 10.5018 27 10.5016 27C10.5014 27 10.5012 27 10.501 27C10.5007 27 10.5005 27 10.5003 27C10.5 27 10.4998 27 10.4995 27C10.4993 27 10.499 27 10.4988 27C10.4985 27 10.4982 27 10.498 27C10.4977 27 10.4974 27 10.4971 27C10.4969 27 10.4966 27 10.4963 27C10.496 27 10.4957 27 10.4954 27C10.4951 27 10.4948 27 10.4945 27C10.4941 27 10.4938 27 10.4935 27C10.4932 27 10.4928 27 10.4925 27C10.4921 27 10.4918 27 10.4915 27C10.4911 27 10.4907 27 10.4904 27C10.49 27 10.4896 27 10.4893 27C10.4889 27 10.4885 27 10.4881 27C10.4877 27 10.4873 27 10.4869 27C10.4865 27 10.4861 27 10.4857 27C10.4853 27 10.4849 27 10.4845 27C10.484 27 10.4836 27 10.4832 27C10.4827 27 10.4823 27 10.4818 27C10.4814 27 10.4809 27 10.4805 27C10.48 27 10.4795 27 10.4791 27C10.4786 27 10.4781 27 10.4776 27C10.4771 27 10.4766 27 10.4761 27C10.4756 27 10.4751 27 10.4746 27C10.4741 27 10.4736 27 10.4731 27C10.4725 27 10.472 27 10.4715 27C10.4709 27 10.4704 27 10.4698 27C10.4693 27 10.4687 27 10.4681 27C10.4676 27 10.467 27 10.4664 27C10.4658 27 10.4652 27 10.4646 27C10.464 27 10.4634 27 10.4628 27C10.4622 27 10.4616 27 10.461 27C10.4604 27 10.4597 27 10.4591 27C10.4585 27 10.4578 27 10.4572 27C10.4565 27 10.4558 27 10.4552 27C10.4545 27 10.4538 27 10.4532 27C10.4525 27 10.4518 27 10.4511 27C10.4504 27 10.4497 27 10.449 27C10.4483 27 10.4476 27 10.4468 27C10.4461 27 10.4454 27 10.4447 27C10.4439 27 10.4432 27 10.4424 27C10.4417 27 10.4409 27 10.4401 27C10.4394 27 10.4386 27 10.4378 27C10.437 27 10.4362 27 10.4354 27C10.4346 27 10.4338 27 10.433 27C10.4322 27 10.4314 27 10.4306 27C10.4297 27 10.4289 27 10.4281 27C10.4272 27 10.4264 27 10.4255 27C10.4246 27 10.4238 27 10.4229 27C10.422 27 10.4211 27 10.4202 27C10.4194 27 10.4185 27 10.4175 27C10.4166 27 10.4157 27 10.4148 27C10.4139 27 10.4129 27 10.412 27C10.4111 27 10.4101 27 10.4092 27C10.4082 27 10.4073 27 10.4063 27C10.4053 27 10.4043 27 10.4033 27C10.4024 27 10.4014 27 10.4004 27C10.3994 27 10.3983 27 10.3973 27C10.3963 27 10.3953 27 10.3942 27C10.3932 27 10.3922 27 10.3911 27C10.39 27 10.389 27 10.3879 27C10.3868 27 10.3858 27 10.3847 27C10.3836 27 10.3825 27 10.3814 27C10.3803 27 10.3792 27 10.3781 27C10.3769 27 10.3758 27 10.3747 27C10.3735 27 10.3724 27 10.3712 27C10.3701 27 10.3689 27 10.3677 27C10.3666 27 10.3654 27 10.3642 27C10.363 27 10.3618 27 10.3606 27C10.3594 27 10.3582 27 10.3569 27C10.3557 27 10.3545 27 10.3532 27C10.352 27 10.3507 27 10.3495 27C10.3482 27 10.3469 27 10.3457 27C10.3444 27 10.3431 27 10.3418 27C10.3405 27 10.3392 27 10.3379 27C10.3365 27 10.3352 27 10.3339 27C10.3326 27 10.3312 27 10.3299 27C10.3285 27 10.3271 27 10.3258 27C10.3244 27 10.323 27 10.3216 27C10.3202 27 10.3188 27 10.3174 27C10.316 27 10.3146 27 10.3132 27C10.3118 27 10.3103 27 10.3089 27C10.3074 27 10.306 27 10.3045 27C10.303 27 10.3016 27 10.3001 27C10.2986 27 10.2971 27 10.2956 27C10.2941 27 10.2926 27 10.2911 27C10.2895 27 10.288 27 10.2865 27C10.2849 27 10.2834 27 10.2818 27C10.2802 27 10.2787 27 10.2771 27C10.2755 27 10.2739 27 10.2723 27C10.2707 27 10.2691 27 10.2675 27C10.2659 27 10.2642 27 10.2626 27C10.2609 27 10.2593 27 10.2576 27C10.256 27 10.2543 27 10.2526 27C10.2509 27 10.2493 27 10.2476 27C10.2458 27 10.2441 27 10.2424 27C10.2407 27 10.239 27 10.2372 27C10.2355 27 10.2337 27 10.232 27C10.2302 27 10.2284 27 10.2266 27C10.2249 27 10.2231 27 10.2213 27C10.2195 27 10.2177 27 10.2158 27C10.214 27 10.2122 27 10.2103 27C10.2085 27 10.2066 27 10.2048 27C10.2029 27 10.201 27 10.1991 27C10.1972 27 10.1953 27 10.1934 27C10.1915 27 10.1896 27 10.1877 27C10.1858 27 10.1838 27 10.1819 27C10.1799 27 10.1779 27 10.176 27C10.174 27 10.172 27 10.17 27C10.168 27 10.166 27 10.164 27C10.162 27 10.16 27 10.1579 27C10.1559 27 10.1538 27 10.1518 27C10.1497 27 10.1477 27 10.1456 27C10.1435 27 10.1414 27 10.1393 27C10.1372 27 10.1351 27 10.133 27C10.1308 27 10.1287 27 10.1265 27C10.1244 27 10.1222 27 10.1201 27C10.1179 27 10.1157 27 10.1135 27C10.1113 27 10.1091 27 10.1069 27C10.1047 27 10.1025 27 10.1002 27C10.098 27 10.0958 27 10.0935 27C10.0912 27 10.089 27 10.0867 27C10.0844 27 10.0821 27 10.0798 27C10.0775 27 10.0752 27 10.0728 27C10.0705 27 10.0682 27 10.0658 27C10.0635 27 10.0611 27 10.0587 27C10.0563 27 10.054 27 10.0516 27C10.0492 27 10.0467 27 10.0443 27C10.0419 27 10.0395 27 10.037 27C10.0346 27 10.0321 27 10.0297 27C10.0272 27 10.0247 27 10.0222 27C10.0197 27 10.0172 27 10.0147 27C10.0122 27 10.0096 27 10.0071 27C10.0046 27 10.002 27 9.99944 27C9.99688 27 9.9943 27 9.99171 27C9.98912 27 9.98652 27 9.9839 27C9.98129 27 9.97866 27 9.97603 27C9.97339 27 9.97074 27 9.96808 27C9.96541 27 9.96274 27 9.96005 27C9.95736 27 9.95466 27 9.95195 27C9.94924 27 9.94652 27 9.94378 27C9.94104 27 9.93829 27 9.93553 27C9.93277 27 9.93 27 9.92721 27C9.92443 27 9.92163 27 9.91882 27C9.916 27 9.91318 27 9.91034 27C9.90751 27 9.90466 27 9.9018 27C9.89893 27 9.89606 27 9.89317 27V31ZM13 22.5833V22H9V22.5833H13ZM10.5149 20.0597L7.51493 20.8097L8.48507 24.6903L11.4851 23.9403L10.5149 20.0597Z" fill="black" mask="url(#path-3-inside-2)"/>
<path d="M18 15.2389H19V14.477L18.2654 14.2748L18 15.2389ZM13.5 14L13.7654 13.0359L13.5 12.9628L13.2346 13.0359L13.5 14ZM9 15.2389L8.73456 14.2748L8 14.477V15.2389H9ZM18.2654 14.2748L13.7654 13.0359L13.2346 14.9641L17.7346 16.2031L18.2654 14.2748ZM13.2346 13.0359L8.73456 14.2748L9.26544 16.2031L13.7654 14.9641L13.2346 13.0359ZM8 15.2389V19H10V15.2389H8ZM17 15.2389V19H19V15.2389H17Z" fill="black"/>
<path d="M13 18.239V29H15V18.239H13Z" fill="black"/>
<path d="M16 22V25H18V22H16Z" fill="black"/>
<path d="M14.9488 7.03026L15.5283 6.21531L15.5283 6.21531L14.9488 7.03026ZM12.0512 7.03026L11.4717 6.21531L11.4717 6.21531L12.0512 7.03026ZM10 9.06765V14H12V9.06765H10ZM15 9.06765V14H17V9.06765H15ZM15.5283 6.21531C14.314 5.35177 12.686 5.35177 11.4717 6.21531L12.6307 7.84522C13.1512 7.47513 13.8488 7.47513 14.3693 7.84522L15.5283 6.21531ZM17 9.06765C17 7.93472 16.4516 6.87187 15.5283 6.21531L14.3693 7.84522C14.765 8.1266 15 8.58211 15 9.06765H17ZM12 9.06765C12 8.58211 12.235 8.1266 12.6307 7.84522L11.4717 6.21531C10.5484 6.87187 10 7.93472 10 9.06765H12Z" fill="black"/>
<path d="M13.5 1L14.4864 0.835601C14.406 0.353413 13.9888 0 13.5 0C13.0112 0 12.594 0.353413 12.5136 0.835601L13.5 1ZM12.5136 0.835601L11.5136 6.8356L13.4864 7.1644L14.4864 1.1644L12.5136 0.835601ZM12.5136 1.1644L13.5136 7.1644L15.4864 6.8356L14.4864 0.835601L12.5136 1.1644Z" fill="black"/>
<path d="M1 26.0512L4.5 25.5M22.5 25.5C23.5518 25.6589 25.0546 26.0507 26 26.2556" stroke="black" stroke-width="2"/>
</svg>
