<svg width="19" height="12" viewBox="0 0 19 12" fill="none" xmlns="http://www.w3.org/2000/svg">
<path d="M7.07941 10.2662C7.48465 10.6415 7.50899 11.2742 7.13376 11.6794C6.75853 12.0847 6.12584 12.109 5.72059 11.7338L7.07941 10.2662ZM1 6L0.320593 6.73376C0.116194 6.5445 -2.06381e-07 6.27856 -2.18557e-07 6C-2.30733e-07 5.72144 0.116194 5.4555 0.320593 5.26624L1 6ZM5.72059 0.26624C6.12584 -0.108987 6.75853 -0.0846524 7.13376 0.320592C7.50899 0.725837 7.48465 1.35853 7.07941 1.73376L5.72059 0.26624ZM18 9L19 9L18 9ZM19 11C19 11.5523 18.5523 12 18 12C17.4477 12 17 11.5523 17 11L19 11ZM5.72059 11.7338L0.320593 6.73376L1.67941 5.26624L7.07941 10.2662L5.72059 11.7338ZM0.320593 5.26624L5.72059 0.26624L7.07941 1.73376L1.67941 6.73376L0.320593 5.26624ZM1 6C1 5 1.00005 5 1.00014 5C1.00023 5 1.00037 5 1.00055 5C1.001 5 1.00137 5 1.00219 5C1.0037 5 1.00576 5 1.0087 5C1.01446 5 1.02313 5 1.03448 5C1.05725 5 1.09107 5 1.13525 5C1.22363 5 1.35352 5 1.51953 5C1.85156 5 2.32812 5 2.90625 5C4.0625 5 5.625 5 7.25 5C10.5 5 14 5 15 5L15 7C14 7 10.5 7 7.25 7C5.625 7 4.0625 7 2.90625 7C2.32813 7 1.85156 7 1.51953 7C1.35352 7 1.22363 7 1.13525 7C1.09105 7 1.05726 7 1.03448 7C1.02309 7 1.01449 7 1.0087 7C1.00583 7 1.00363 7 1.00219 7C1.00137 7 1.001 7 1.00055 7C1.00037 7 1.00023 7 1.00014 7C1.00005 7 1 7 1 6ZM15 5C16.1541 5 17.2034 5.28921 17.9571 6.04289C18.7108 6.79657 19 7.84586 19 9L17 9C17 8.15414 16.7892 7.70343 16.5429 7.45711C16.2966 7.21079 15.8459 7 15 7L15 5ZM19 9C19 9.79865 19 10.0013 19 11L17 11C17 9.99865 17 9.80135 17 9L19 9Z" fill="black"/>
</svg>
