<svg width="234" height="234" viewBox="0 0 234 234" fill="none" xmlns="http://www.w3.org/2000/svg">
    <path d="M0 5.00001C0 2.23858 2.23858 0 5 0H229C231.761 0 234 2.23858 234 5V229C234 231.761 231.761 234 229 234H5.00001C2.23858 234 0 231.761 0 229V5.00001Z"
          fill="#F8F8FA"/>
    <path d="M62 172V62H172V172H62Z" stroke="#E7E7E7" stroke-width="6"/>
    <path d="M117.277 104L119.391 101.872L117.277 99.7712L115.163 101.872L117.277 104ZM77.1143 148.128L119.391 106.128L115.163 101.872L72.8857 143.872L77.1143 148.128ZM115.163 106.128L155.886 146.585L160.114 142.328L119.391 101.872L115.163 106.128Z"
          fill="#E7E7E7"/>
    <path d="M156.977 90L159.1 87.8796L156.977 85.7555L154.855 87.8796L156.977 90ZM133.122 118.12L159.1 92.1204L154.855 87.8796L128.878 113.88L133.122 118.12ZM154.855 92.1204L169.378 106.656L173.622 102.415L159.1 87.8796L154.855 92.1204Z"
          fill="#E7E7E7"/>
</svg>
