<svg width="30" height="30" viewBox="0 0 30 30" fill="none" xmlns="http://www.w3.org/2000/svg">
    <path d="M13.0908 11.5C13.0908 9.61724 14.6171 8.09094 16.4999 8.09094" stroke="black" stroke-width="2"
          stroke-linecap="round"/>
    <path d="M9 11.5C9 7.35786 12.3579 4 16.5 4C20.6421 4 24 7.35786 24 11.5C24 15.6421 20.6421 19 16.5 19C12.3579 19 9 15.6421 9 11.5Z"
          stroke="black" stroke-width="2"/>
    <path d="M27.5 27C27.5 24.5 27.5 12 27.5 12C27.5 12 25.5 11.5 24 11" stroke="black" stroke-width="2"
          stroke-linecap="round"/>
    <path d="M24 11.5C24 10.6716 24.6716 10 25.5 10C26.3284 10 27 10.6716 27 11.5C27 12.3284 26.3284 13 25.5 13C24.6716 13 24 12.3284 24 11.5Z"
          stroke="black" stroke-width="2"/>
    <path d="M9.5 23.375C8.53226 23.7442 7.42582 24.2578 5 25.875C2 27.875 0 27.7086 0 28.375C0 28.875 0 29.375 3.5 28.875C5.88152 28.5348 8.48863 27.2682 9.5 26.875C10.5114 26.4818 11.5149 26.4963 12.5 26.875C13.4851 27.2536 16.1185 28.5348 18.5 28.875C22 29.375 22 28.875 22 28.375C22 27.7086 20 27.875 17 25.875C14.5742 24.2578 13.4851 23.7442 12.5 23.375C11.5149 23.0058 10.4677 23.0058 9.5 23.375Z"
          fill="black"/>
</svg>
